<svg width="12" height="14" viewBox="0 0 12 14" fill="none" xmlns="http://www.w3.org/2000/svg">
<g clip-path="url(#clip0)">
<path d="M1.07358 4.30794C0.69243 4.30794 0.355744 4.30794 0 4.30794C0 3.93737 0 3.5982 0 3.23392C0.158814 3.22763 0.311276 3.21507 0.501853 3.20879C0.508205 3.07689 0.514558 2.945 0.520911 2.8131C0.559026 2.31063 0.698782 2.16617 1.20699 2.15989C1.76601 2.14733 2.32504 2.15361 2.88407 2.15361C2.98571 2.15361 3.0937 2.15361 3.20805 2.15361C3.23346 1.9275 3.24616 1.72023 3.28428 1.51925C3.47485 0.570838 4.38327 -0.0446851 5.11382 -0.000719144C5.6919 0.0369659 6.27634 0.0306851 6.85442 -0.000719144C7.73743 -0.0509659 8.70937 0.790667 8.72208 1.85841C8.72208 1.94006 8.72208 2.02171 8.72208 2.15361C9.05876 2.15361 9.38274 2.15361 9.70672 2.15361C10.0561 2.15361 10.3992 2.14733 10.7485 2.15989C11.2758 2.17245 11.4346 2.34204 11.441 2.86963C11.441 2.97012 11.441 3.07689 11.441 3.20879C11.6188 3.22135 11.784 3.22763 12 3.2402C12 3.41606 12 3.58564 12 3.75523C12 3.91853 12 4.08811 12 4.30166C11.6252 4.30166 11.2758 4.30166 10.8819 4.30166C10.8819 4.47124 10.8819 4.59686 10.8819 4.71619C10.8819 7.29762 10.8756 9.88533 10.8756 12.4668C10.8756 13.2833 10.1895 13.9804 9.35733 13.9867C7.11488 13.993 4.86607 13.9679 2.62361 13.9993C1.76601 14.0118 1.06088 13.0948 1.06723 12.4228C1.09264 9.84136 1.07358 7.25366 1.06723 4.67223C1.07358 4.57174 1.07358 4.46496 1.07358 4.30794ZM2.16623 4.34562C2.15987 4.41471 2.14717 4.45868 2.14717 4.50893C2.15987 7.09035 2.16623 9.67178 2.18528 12.2595C2.19164 12.8185 2.31233 12.9378 2.88407 12.9378C4.94865 12.9441 7.01323 12.9441 9.07782 12.9378C9.6559 12.9378 9.78295 12.7996 9.78931 12.2344C9.79566 9.69062 9.80201 7.15316 9.80201 4.60942C9.80201 4.52149 9.78931 4.43356 9.78295 4.34562C7.22922 4.34562 4.70725 4.34562 2.16623 4.34562ZM7.5532 2.13477C7.62943 1.469 7.31816 1.10471 6.6702 1.09215C6.1874 1.08587 5.70461 1.07959 5.22181 1.09215C4.63102 1.11099 4.30704 1.51925 4.39598 2.13477C5.4505 2.13477 6.50503 2.13477 7.5532 2.13477Z" fill="#414143"/>
<path d="M4.33259 11.8394C3.97685 11.8394 3.64652 11.8394 3.29077 11.8394C3.29077 9.69766 3.29077 7.56846 3.29077 5.42041C3.62746 5.42041 3.9705 5.42041 4.33259 5.42041C4.33259 7.54962 4.33259 9.67882 4.33259 11.8394Z" fill="#414143"/>
<path d="M6.51792 5.42041C6.51792 7.56846 6.51792 9.69138 6.51792 11.8332C6.16217 11.8332 5.81913 11.8332 5.45068 11.8332C5.45068 9.70395 5.45068 7.57474 5.45068 5.42041C5.78737 5.42041 6.13676 5.42041 6.51792 5.42041Z" fill="#414143"/>
<path d="M7.63574 11.8394C7.63574 9.6851 7.63574 7.56218 7.63574 5.42041C7.98513 5.42041 8.32817 5.42041 8.68391 5.42041C8.68391 7.56218 8.68391 9.69138 8.68391 11.8394C8.33452 11.8394 8.00419 11.8394 7.63574 11.8394Z" fill="#414143"/>
</g>
<defs>
<clipPath id="clip0">
<rect width="12" height="14" fill="white"/>
</clipPath>
</defs>
</svg>
