<svg width="21" height="16" viewBox="0 0 21 16" fill="none" xmlns="http://www.w3.org/2000/svg">
<path d="M14.7607 3.08461e-07C14.7607 0.162946 14.7607 0.288291 14.7607 0.413634C14.7607 2.12456 14.7607 3.83549 14.7607 5.54642C14.7607 6.20447 15.0444 6.54289 15.658 6.62436C16.2252 6.69957 16.6883 6.47395 17.1167 6.08539C18.4249 4.88837 20.4567 5.55268 20.914 7.32002C21.186 8.37916 20.7982 9.50725 19.9588 10.1214C19.1021 10.7481 18.0139 10.6855 17.1804 10.0086C16.8851 9.77047 16.5494 9.56365 16.2079 9.44458C15.9706 9.3631 15.6695 9.40697 15.4206 9.47591C14.8997 9.63259 14.7665 9.85821 14.7665 10.4473C14.7665 12.1708 14.7665 13.888 14.7665 15.6114C14.7665 15.7368 14.7665 15.8559 14.7665 16C9.82892 16 4.92025 16 0 16C-2.32853e-07 10.6729 -4.65159e-07 5.3584 -6.9856e-07 0.0188017C0.109981 0.0125341 0.208386 0.00627135 0.301003 0.00627135C1.92179 0.00627128 3.53679 0.0125349 5.15758 7.28229e-07C5.44122 7.15831e-07 5.55699 0.125345 5.61487 0.388565C5.73643 0.889936 5.53962 1.2785 5.26177 1.64826C4.4919 2.67607 4.32982 3.81669 4.86236 5.00744C5.37754 6.1606 6.27477 6.76224 7.46141 6.74344C8.63648 6.72464 9.51055 6.10419 10.0026 4.95731C10.5062 3.79162 10.3383 2.68234 9.60317 1.6796C9.35426 1.34117 9.15745 0.996475 9.19797 0.551509C9.23849 0.13161 9.36005 0.0125356 9.74209 0.0125356C11.2934 0.0125356 12.8447 0.0125355 14.3961 0.0125354C14.5061 1.27327e-06 14.6218 3.14534e-07 14.7607 3.08461e-07Z" fill="#423977"/>
</svg>
