<svg width="29" height="28" viewBox="0 0 29 28" fill="none" xmlns="http://www.w3.org/2000/svg">
<rect x="0.5" y="0.5" width="28" height="27" rx="4.5" stroke="#423977"/>
<path d="M15.7836 18.2009C15.4879 18.5034 15.2527 18.7455 15.0108 18.9875C14.3118 19.68 13.6398 20.3995 12.9073 21.0516C11.879 21.966 10.6559 22.2215 9.35216 21.8114C8.082 21.408 7.29571 20.5003 7.05378 19.1825C6.83872 18.0126 7.12098 16.9234 7.94759 16.0561C9.0363 14.9064 10.1586 13.7903 11.3011 12.6944C12.5914 11.4505 14.7151 11.3968 16.0659 12.5599C16.2608 12.728 16.4355 12.9902 16.5027 13.239C16.6102 13.6289 16.4355 13.9651 16.0928 14.1803C15.7635 14.382 15.414 14.3685 15.078 14.1735C14.9839 14.1198 14.9032 14.0391 14.8092 13.9718C14.1371 13.481 13.2231 13.481 12.625 14.0592C11.5094 15.135 10.3938 16.2175 9.33872 17.3537C8.47179 18.2883 8.85485 19.7473 10.0108 20.0498C10.5753 20.1978 11.1264 20.0969 11.5766 19.6935C12.1479 19.1758 12.6989 18.6379 13.2433 18.1C13.418 17.9252 13.539 17.8714 13.8011 17.9925C14.4059 18.2681 15.0511 18.3354 15.7836 18.2009Z" fill="#423977"/>
<path d="M15.4946 11.1817C14.7621 10.7716 14.0363 10.6707 13.2298 10.785C13.3172 10.6842 13.371 10.6102 13.4314 10.5497C14.2849 9.70254 15.1183 8.83521 15.9986 8.00823C17.8804 6.23324 20.9314 6.89886 21.7715 9.27896C22.2352 10.5968 22.0067 11.8608 21.0591 12.8962C19.9704 14.0862 18.8145 15.2158 17.6451 16.3319C16.3548 17.5622 14.2177 17.5959 12.9072 16.4461C12.7056 16.2646 12.5309 15.9957 12.4637 15.7335C12.3629 15.3435 12.5511 14.9939 12.9072 14.8056C13.2365 14.6308 13.5927 14.6375 13.922 14.8527C15.0914 15.6259 15.7164 15.5788 16.7177 14.6039C17.6384 13.7097 18.5322 12.7953 19.4395 11.8877C19.7755 11.5515 20.0309 11.1615 20.0779 10.6707C20.1452 9.97147 19.9032 9.41343 19.2715 9.07726C18.6196 8.73436 17.9879 8.84866 17.4301 9.27896C17.047 9.57479 16.7043 9.93786 16.3548 10.2808C16.0524 10.5766 15.7769 10.8859 15.4946 11.1817Z" fill="#423977"/>
</svg>
