<svg width="15" height="18" viewBox="0 0 15 18" fill="none" xmlns="http://www.w3.org/2000/svg">
<path d="M0 16.2203C0 13.8972 0 11.5697 0 9.24658C0.0131945 9.20822 0.0351855 9.16985 0.0439818 9.13149C0.114353 8.75211 0.255095 8.37699 0.567366 8.15107C0.941211 7.88252 0.932415 7.5884 0.897229 7.19197C0.782876 5.96432 1.01158 4.78782 1.56575 3.67099C2.78845 1.21569 5.49333 -0.318879 8.34335 0.0562372C9.90031 0.260846 11.2198 0.921562 12.2797 2.03838C13.7839 3.6241 14.3557 5.50821 14.061 7.63955C14.0434 7.76743 14.0742 7.82711 14.1753 7.89957C14.7031 8.296 14.9934 8.82031 14.9934 9.46824C15.0022 11.6422 15.0022 13.8204 14.9934 15.9944C14.989 17.0942 14.0786 17.9936 12.9482 17.9936C9.31535 18.0021 5.68685 18.0021 2.05395 17.9936C1.43821 17.9936 0.932415 17.7378 0.518986 17.2903C0.228705 16.9876 0.105556 16.6125 0 16.2203ZM11.6112 7.49036C11.8487 6.03252 11.5232 4.75798 10.5073 3.67099C9.39892 2.4817 7.62205 2.0597 6.10908 2.61811C4.20466 3.31293 3.04354 5.28655 3.36021 7.24312C3.391 7.44347 3.45257 7.49036 3.65489 7.49036C6.22783 7.48183 8.79636 7.48609 11.3693 7.48609C11.4441 7.49036 11.5232 7.49036 11.6112 7.49036ZM6.59288 14.2126C6.58848 14.2126 6.58408 14.2126 6.57528 14.2126C6.59288 14.511 6.57968 14.8094 6.63246 15.0992C6.70723 15.5213 7.16464 15.7983 7.62205 15.7472C8.06627 15.696 8.40053 15.3209 8.40932 14.8435C8.41812 14.4471 8.41372 14.0506 8.40932 13.6542C8.40493 13.5221 8.44011 13.4411 8.56326 13.3601C9.10424 12.9977 9.38132 12.4905 9.38572 11.8511C9.39452 11.0156 8.81396 10.2909 7.9739 10.0735C7.16904 9.86893 6.2806 10.2185 5.88037 10.9005C5.43176 11.672 5.51532 12.6056 6.19264 13.1427C6.54889 13.424 6.62806 13.7096 6.58848 14.0975C6.58848 14.1444 6.59288 14.1785 6.59288 14.2126Z" fill="black"/>
</svg>
