<svg width="15" height="15" viewBox="0 0 15 15" fill="none" xmlns="http://www.w3.org/2000/svg">
<path d="M8.78349 11.2011C8.48779 11.5037 8.25258 11.7457 8.01064 11.9878C7.31172 12.6803 6.63968 13.3997 5.90715 14.0519C4.87892 14.9663 3.6558 15.2218 2.35204 14.8116C1.08188 14.4082 0.295589 13.5005 0.0536538 12.1828C-0.1614 11.0129 0.120858 9.92367 0.947471 9.05635C2.03618 7.90664 3.15849 6.79055 4.30097 5.69463C5.59129 4.45079 7.71494 4.397 9.06575 5.56016C9.26064 5.72824 9.43537 5.99046 9.50258 6.23923C9.61011 6.62919 9.43537 6.96536 9.09263 7.18051C8.76333 7.38221 8.41387 7.36876 8.07785 7.17378C7.98376 7.12 7.90312 7.03932 7.80903 6.97208C7.13699 6.48127 6.22301 6.48127 5.62489 7.05949C4.5093 8.13524 3.39371 9.21771 2.3386 10.354C1.47166 11.2885 1.85473 12.7475 3.01064 13.0501C3.57516 13.198 4.12623 13.0971 4.5765 12.6937C5.14774 12.176 5.69882 11.6382 6.24317 11.1003C6.4179 10.9255 6.53887 10.8717 6.80097 10.9927C7.4058 11.2684 8.05097 11.3356 8.78349 11.2011Z" fill="black"/>
<path d="M8.49449 4.18188C7.76196 3.77175 7.03616 3.6709 6.22971 3.78519C6.31707 3.68434 6.37083 3.61038 6.43132 3.54987C7.28481 2.70272 8.11815 1.8354 8.99852 1.00841C10.8802 -0.766577 13.9313 -0.100956 14.7714 2.27914C15.2351 3.59694 15.0066 4.86094 14.059 5.89635C12.9703 7.0864 11.8144 8.21594 10.645 9.33203C9.35471 10.5624 7.21761 10.596 5.90713 9.44633C5.70551 9.2648 5.53078 8.99586 5.46358 8.73365C5.36277 8.34369 5.55094 7.99407 5.90713 7.80581C6.23643 7.631 6.59261 7.63773 6.92191 7.85288C8.09126 8.62607 8.71627 8.57901 9.71761 7.60411C10.6383 6.70989 11.5321 5.7955 12.4394 4.88784C12.7754 4.55167 13.0308 4.16171 13.0778 3.6709C13.145 2.97166 12.9031 2.41361 12.2714 2.07744C11.6195 1.73454 10.9878 1.84884 10.43 2.27914C10.0469 2.57497 9.70417 2.93804 9.35471 3.28094C9.05229 3.57677 8.77675 3.88605 8.49449 4.18188Z" fill="black"/>
</svg>
