<svg width="19" height="19" viewBox="0 0 19 19" fill="none" xmlns="http://www.w3.org/2000/svg">
<circle cx="9.5" cy="9.5" r="9.5" fill="#EDE7F2"/>
<g clip-path="url(#clip0)">
<path d="M9.97698 7.35287C10.5094 7.88823 11.0471 8.43018 11.5809 8.96685C10.2131 10.3422 8.84256 11.7214 7.47469 13.0967C6.94092 12.5601 6.40059 12.0194 5.86682 11.4841C7.236 10.1061 8.6078 8.72819 9.97698 7.35287Z" fill="black"/>
<path d="M12.0243 8.53697C11.4813 7.99107 10.9423 7.45044 10.3967 6.9019C10.4964 6.803 10.5987 6.70147 10.701 6.59994C10.84 6.4628 10.9751 6.32171 11.1167 6.18853C11.3816 5.93931 11.8092 5.93404 12.0754 6.18853C12.3377 6.44038 12.5987 6.69488 12.8439 6.96255C13.0564 7.19463 13.0472 7.49659 12.8282 7.72866C12.5698 8.00294 12.2984 8.26402 12.0321 8.5317C12.0308 8.53433 12.0269 8.53565 12.0243 8.53697Z" fill="black"/>
<path d="M5.40663 11.9377C5.94564 12.4796 6.48204 13.0176 7.02105 13.5596C6.93318 13.582 6.84138 13.6044 6.74958 13.6268C6.25515 13.7468 5.76072 13.8681 5.26761 13.9881C5.07745 14.0343 4.96728 13.9288 5.00925 13.7363C5.14171 13.1376 5.27417 12.5377 5.40663 11.9377Z" fill="black"/>
</g>
<defs>
<clipPath id="clip0">
<rect width="8" height="8" fill="white" transform="translate(5 6)"/>
</clipPath>
</defs>
</svg>
