<svg width="11" height="13" viewBox="0 0 11 13" fill="none" xmlns="http://www.w3.org/2000/svg">
<path d="M0.92024 3.69513C0.593528 3.69513 0.304932 3.69513 0 3.69513C0 3.37749 0 3.08677 0 2.77452C0.13613 2.76913 0.266815 2.75836 0.430172 2.75298C0.435617 2.63992 0.441062 2.52686 0.446507 2.41381C0.479178 1.98311 0.598973 1.85928 1.03459 1.8539C1.51377 1.84313 1.99295 1.84851 2.47213 1.84851C2.55925 1.84851 2.65182 1.84851 2.74983 1.84851C2.77161 1.6547 2.7825 1.47704 2.81517 1.30476C2.97853 0.491814 3.75719 -0.0357913 4.38339 0.0018948C4.87891 0.0341972 5.37987 0.0288135 5.87538 0.0018948C6.63227 -0.041175 7.46538 0.680245 7.47627 1.59548C7.47627 1.66547 7.47627 1.73546 7.47627 1.84851C7.76487 1.84851 8.04257 1.84851 8.32028 1.84851C8.61977 1.84851 8.91381 1.84313 9.21329 1.8539C9.66525 1.86467 9.80138 2.01003 9.80682 2.46226C9.80682 2.5484 9.80682 2.63992 9.80682 2.75298C9.95929 2.76375 10.1009 2.76913 10.286 2.7799C10.286 2.93064 10.286 3.076 10.286 3.22137C10.286 3.36134 10.286 3.5067 10.286 3.68975C9.96473 3.68975 9.66525 3.68975 9.32764 3.68975C9.32764 3.83511 9.32764 3.94279 9.32764 4.04508C9.32764 6.25779 9.3222 8.47589 9.3222 10.6886C9.3222 11.3885 8.73412 11.9861 8.02079 11.9915C6.09863 11.9968 4.17103 11.9753 2.24887 12.0022C1.51377 12.013 0.90935 11.227 0.914795 10.6509C0.936576 8.4382 0.92024 6.2201 0.914795 4.00739C0.92024 3.92125 0.92024 3.82973 0.92024 3.69513ZM1.85682 3.72744C1.85137 3.78666 1.84048 3.82434 1.84048 3.86741C1.85137 6.08013 1.85682 8.29284 1.87315 10.5109C1.8786 10.9901 1.98206 11.0924 2.47213 11.0924C4.24182 11.0978 6.01151 11.0978 7.7812 11.0924C8.27672 11.0924 8.38562 10.9739 8.39107 10.4894C8.39651 8.30899 8.40196 6.13396 8.40196 3.95355C8.40196 3.87818 8.39107 3.80281 8.38562 3.72744C6.19665 3.72744 4.0349 3.72744 1.85682 3.72744ZM6.47435 1.83236C6.5397 1.26169 6.27288 0.949431 5.71747 0.938664C5.30363 0.93328 4.8898 0.927896 4.47596 0.938664C3.96956 0.954815 3.69185 1.30476 3.76808 1.83236C4.67199 1.83236 5.57589 1.83236 6.47435 1.83236Z" fill="#414143"/>
<path d="M3.71382 10.1506C3.40888 10.1506 3.12573 10.1506 2.8208 10.1506C2.8208 8.31476 2.8208 6.48967 2.8208 4.64844C3.1094 4.64844 3.40344 4.64844 3.71382 4.64844C3.71382 6.47352 3.71382 8.29861 3.71382 10.1506Z" fill="#414143"/>
<path d="M5.58692 4.64844C5.58692 6.48967 5.58692 8.30937 5.58692 10.1452C5.28198 10.1452 4.98794 10.1452 4.67212 10.1452C4.67212 8.32014 4.67212 6.49506 4.67212 4.64844C4.96072 4.64844 5.2602 4.64844 5.58692 4.64844Z" fill="#414143"/>
<path d="M6.54504 10.1506C6.54504 8.30399 6.54504 6.48429 6.54504 4.64844C6.84453 4.64844 7.13857 4.64844 7.4435 4.64844C7.4435 6.48429 7.4435 8.30937 7.4435 10.1506C7.14401 10.1506 6.86086 10.1506 6.54504 10.1506Z" fill="#414143"/>
</svg>
