<svg width="19" height="15" viewBox="0 0 19 15" fill="none" xmlns="http://www.w3.org/2000/svg">
<path d="M10.9882 7.53812C10.9882 9.59309 10.9772 11.659 10.9882 13.714C10.9882 14.2195 10.889 14.6591 10.382 14.8898C9.88606 15.1316 9.47827 14.9448 9.08151 14.6261C7.63773 13.4722 6.19394 12.3294 4.73914 11.2085C4.54075 11.0546 4.2542 10.9667 4.00071 10.9557C3.06391 10.9228 2.13812 10.9557 1.20132 10.9447C0.396765 10.9447 0.0110212 10.5491 0 9.73594C0 8.24143 0 6.74691 0 5.25239C0 4.4392 0.396765 4.06557 1.22336 4.05458C2.13812 4.04359 3.05289 4.07655 3.96765 4.04359C4.23216 4.0326 4.54075 3.9337 4.75016 3.77985C6.21598 2.65896 7.65977 1.5051 9.10355 0.362237C9.50032 0.0435527 9.91912 -0.132273 10.4151 0.120477C10.911 0.362237 11.0102 0.801801 10.9992 1.3073C10.9882 3.38424 10.9882 5.46118 10.9882 7.53812Z" fill="black"/>
<path d="M16.0043 6.3175C16.4241 5.94136 16.7555 5.62027 17.1201 5.3267C17.6172 4.91387 18.2468 4.89552 18.6887 5.25331C19.1195 5.60192 19.1085 6.14319 18.6224 6.54685C18.2689 6.8496 17.8823 7.13399 17.352 7.53765C17.805 7.85874 18.2026 8.10644 18.5672 8.40001C19.0974 8.82202 19.1306 9.35411 18.6887 9.73025C18.2468 10.1064 17.6172 10.0789 17.0869 9.64768C16.7445 9.37246 16.4131 9.09724 16.0706 8.82202C16.0485 8.80367 16.0043 8.79449 15.8939 8.76697C15.5514 9.06972 15.1979 9.39998 14.8223 9.70272C14.3363 10.088 13.7397 10.0972 13.3089 9.73942C12.9002 9.39998 12.8891 8.84954 13.331 8.4734C13.6955 8.15231 14.0932 7.85874 14.5462 7.49178C14.1485 7.17986 13.7729 6.90464 13.4194 6.61107C12.9002 6.17989 12.867 5.64779 13.2979 5.28083C13.7508 4.89552 14.3584 4.92305 14.8886 5.3634C15.2421 5.63862 15.5735 5.94136 16.0043 6.3175Z" fill="black"/>
</svg>
