<svg width="20" height="14" viewBox="0 0 20 14" fill="none" xmlns="http://www.w3.org/2000/svg">
<path d="M0 7.44938C0.182741 6.79366 0.290236 6.1057 0.569723 5.48223C0.741715 5.09525 1.1287 4.77276 1.49418 4.51477C1.80591 4.29978 2.1929 4.37503 2.52613 4.62227C3.74082 5.50373 5.02001 5.50373 6.22396 4.63302C6.3637 4.53627 6.51419 4.47177 6.75068 4.33203C6.49269 5.37473 6.63244 6.25619 7.24516 7.1054C5.83697 7.0409 5.22425 7.93311 4.80502 9.02956C4.65453 9.43804 4.43954 9.55628 4.02031 9.53478C3.28934 9.49179 2.55838 9.50254 1.83816 9.50254C0.924456 9.49179 0.279487 9.1048 0 8.20185C0 7.95461 0 7.69662 0 7.44938Z" fill="#423977"/>
<path d="M9.98628 13.8561C8.95433 13.8561 7.92237 13.8884 6.89042 13.8454C6.46044 13.8239 6.00897 13.7164 5.61123 13.5337C5.00926 13.2542 4.69753 12.7489 4.67603 12.0502C4.65453 10.8893 4.78352 9.76058 5.37475 8.77163C5.63273 8.34165 6.07346 7.98692 6.50344 7.71818C6.90117 7.46019 7.33115 7.57844 7.72888 7.89017C9.01882 8.90063 10.7817 8.94362 12.0932 8.01917C12.9854 7.3957 13.9421 7.53544 14.4581 8.50289C14.8235 9.19086 15.017 9.97557 15.2535 10.7388C15.3395 11.0075 15.318 11.2978 15.3288 11.588C15.4148 13.0069 14.6516 13.8346 13.2219 13.8669C12.1577 13.8669 11.072 13.8454 9.98628 13.8561C9.98628 13.8454 9.98628 13.8454 9.98628 13.8561Z" fill="#423977"/>
<path d="M9.9971 7.99761C8.38468 7.98687 7.07324 6.68618 7.07324 5.09525C7.07324 3.50433 8.39543 2.19289 9.9971 2.17139C11.6203 2.16064 12.9317 3.48283 12.9317 5.11675C12.9317 6.72917 11.631 7.99761 9.9971 7.99761Z" fill="#423977"/>
<path d="M12.7705 7.14838C13.394 6.29917 13.5015 5.40697 13.2865 4.35352C13.523 4.49326 13.695 4.56851 13.8347 4.66525C14.9312 5.47146 16.2963 5.48221 17.4143 4.6975C18.0055 4.27827 18.6505 4.31052 19.102 4.89099C19.9082 5.92294 20.1447 7.13763 19.9189 8.40607C19.8007 9.07254 19.2202 9.39503 18.586 9.44877C17.6293 9.52402 16.6618 9.50252 15.7051 9.49177C15.5761 9.49177 15.4041 9.34128 15.3289 9.21228C15.1569 8.9113 15.0494 8.55657 14.8667 8.25558C14.4152 7.53536 13.8132 7.03014 12.7705 7.14838Z" fill="#423977"/>
<path d="M15.6403 0C16.9195 0 18.0159 1.07495 18.0374 2.36489C18.0589 3.65483 16.9195 4.78352 15.6188 4.77277C14.3289 4.76202 13.2539 3.67633 13.2539 2.37564C13.2647 1.0857 14.3504 0 15.6403 0Z" fill="#423977"/>
<path d="M6.75028 2.39714C6.75028 3.70857 5.67533 4.78352 4.37465 4.77277C3.07396 4.76202 2.02051 3.68707 2.02051 2.37564C2.02051 1.0642 3.09546 0 4.39615 0C5.69683 0.0107495 6.75028 1.0857 6.75028 2.39714Z" fill="#423977"/>
</svg>
