<svg width="20" height="18" viewBox="0 0 20 18" fill="none" xmlns="http://www.w3.org/2000/svg">
<path d="M1.39415 17.4022C0.734239 17.6851 0 17.2011 0 16.4831C0 14.946 0 13.4155 0 11.8746C0 11.3734 0.371057 10.9496 0.867885 10.8834C5.50551 10.2653 10.1433 9.64714 14.7842 9.02902C14.7979 9.02719 14.8084 9.01419 14.8099 9.00042C14.8113 8.98666 14.8013 8.97624 14.7876 8.97441C10.1497 8.35302 5.51174 7.73467 0.868067 7.1165C0.37116 7.05036 0 6.62653 0 6.12524C0 4.58874 0 3.05711 0 1.51653C0 0.798617 0.734046 0.314582 1.39392 0.597364C7.20772 3.08882 13.0152 5.57694 18.8559 8.07956C19.6639 8.42578 19.6641 9.57122 18.8562 9.91765C13.0199 12.4201 7.21043 14.9084 1.39415 17.4022Z" fill="white"/>
</svg>
