<svg width="28" height="21" viewBox="0 0 28 21" fill="none" xmlns="http://www.w3.org/2000/svg">
<path d="M14.0047 0.00953611C18.1706 0.00953611 22.3366 0.00953611 26.5025 0.00953611C27.2769 0.00953611 27.8321 0.448709 27.9674 1.15705C27.9907 1.27039 27.9907 1.39317 27.9907 1.51122C27.9907 7.50852 27.9907 13.5058 27.9907 19.4984C27.9907 20.4145 27.4076 21.0001 26.4979 21.0001C18.1706 21.0001 9.84808 21.0001 1.52085 21.0001C0.569172 21.0001 0.00469333 20.424 0.00469333 19.4512C0.0140236 13.52 0.0233538 7.58408 2.82213e-05 1.65289C-0.00463689 0.713157 0.569172 -0.00935303 1.64681 9.15378e-05C5.76611 0.0284252 9.8854 0.00953611 14.0047 0.00953611ZM26.6938 8.19798C26.6938 6.03517 26.6938 3.92903 26.6938 1.81817C26.6938 1.57733 26.5725 1.38844 26.3532 1.29872C26.2226 1.24677 26.064 1.23733 25.9194 1.23733C17.9794 1.23261 10.044 1.23733 2.10399 1.22789C1.54418 1.22789 1.30159 1.51122 1.30159 2.03067C1.31559 6.4224 1.31092 10.8141 1.31092 15.2058C1.31092 15.2861 1.31092 15.3664 1.31092 15.4892C1.41356 15.4089 1.4742 15.3617 1.53018 15.3097C4.36657 12.8778 7.1983 10.4458 10.0393 8.02325C10.3706 7.73992 10.7391 7.49436 11.117 7.28658C11.8261 6.90407 12.5585 6.92296 13.2583 7.32436C13.5475 7.48963 13.8041 7.71158 14.07 7.90992C14.4432 8.18853 14.7978 8.5002 15.199 8.74104C15.7634 9.07632 16.3326 9.00549 16.8551 8.59465C16.9904 8.49076 17.1163 8.36798 17.2283 8.24048C18.2033 7.16852 19.169 6.09184 20.144 5.0246C20.3026 4.84988 20.4752 4.68932 20.6618 4.55237C21.1656 4.18404 21.7115 4.12265 22.2666 4.41071C22.5325 4.54765 22.7891 4.7271 23.013 4.92543C24.1793 5.95489 25.3316 6.99852 26.4932 8.0327C26.5492 8.07992 26.6052 8.12242 26.6938 8.19798Z" fill="#423977"/>
<path d="M5.87828 3.79297C7.14252 3.79297 8.16885 4.83659 8.17351 6.12578C8.17351 7.41968 7.13786 8.47275 5.86428 8.46803C4.59071 8.46803 3.55505 7.41496 3.55505 6.12106C3.55972 4.82715 4.59537 3.79297 5.87828 3.79297Z" fill="#423977"/>
</svg>
