<svg width="21" height="18" viewBox="0 0 21 18" fill="none" xmlns="http://www.w3.org/2000/svg">
<path d="M21 15.0947C19.7123 15.0947 18.4362 15.0947 17.0905 15.0947C17.0905 16.0795 17.0905 17.0275 17.0905 18C16.3828 18 15.7332 18 15.0255 18C15.0255 17.0644 15.0255 16.1165 15.0255 15.107C13.6914 15.107 12.4153 15.107 11 15.107C12.0789 13.679 13.0766 12.3617 14.1439 10.9583C13.703 10.9583 13.3434 10.9583 12.8329 10.9583C13.6334 9.85038 14.3643 8.84091 15.1299 7.7822C14.8051 7.75758 14.5499 7.74527 14.2251 7.72064C14.8399 6.79735 15.3968 5.93561 16.0232 5C16.6264 5.9233 17.2065 6.78504 17.8213 7.73295C17.4965 7.74527 17.2529 7.75758 16.9049 7.7822C17.6589 8.8286 18.3782 9.82576 19.1555 10.8968C18.7262 10.8968 18.3666 10.8968 17.8329 10.8968C18.1694 11.34 18.413 11.6723 18.6566 11.9924C19.4339 12.9896 20.2227 13.9867 21 14.9839C21 15.0085 21 15.0578 21 15.0947Z" fill="black"/>
<path d="M6.61382 3.80365C6.05069 3.80365 5.64332 3.80365 5.09217 3.80365C6.07465 2.5062 6.99724 1.28637 7.96774 0C8.92627 1.27528 9.84885 2.49511 10.8433 3.79256C10.3161 3.79256 9.89677 3.79256 9.32166 3.79256C10.5797 5.30072 11.7539 6.70907 13 8.20613C12.2691 8.20613 11.6461 8.20613 10.9032 8.20613C11.5263 8.93803 12.0774 9.57012 12.6286 10.2355C12.1014 10.8676 11.6101 11.4775 11.035 12.165C11.4783 12.165 11.8498 12.165 12.329 12.165C11.7899 12.8415 11.3346 13.4403 10.8553 14.0059C10.7714 14.1057 10.5558 14.15 10.388 14.1611C9.98065 14.1833 9.56129 14.1722 9.10599 14.1722C9.10599 15.137 9.10599 16.0463 9.10599 17C8.3871 17 7.70415 17 6.97327 17C6.97327 16.0796 6.97327 15.1703 6.97327 14.2055C4.67281 14.2055 2.42028 14.2055 0 14.2055C1.71336 12.1761 3.34286 10.2466 5.02028 8.25049C4.31336 8.25049 3.7023 8.25049 2.91152 8.25049C4.19355 6.72016 5.36774 5.31181 6.61382 3.80365Z" fill="black"/>
</svg>
