<svg width="68" height="68" viewBox="0 0 68 68" fill="none" xmlns="http://www.w3.org/2000/svg">
<circle cx="34" cy="34" r="34" fill="#EDE7F2"/>
<path d="M23.156 26.1371H20.1655L19.4939 28H18.5233L21.249 20.8622H22.0726L24.8032 28H23.8374L23.156 26.1371ZM20.4499 25.3625H22.8765L21.6608 22.024L20.4499 25.3625ZM26.5582 22.6957V28.6128C26.5582 29.6325 26.0957 30.1423 25.1708 30.1423C24.9715 30.1423 24.7868 30.1129 24.6169 30.0541V29.3285C24.7215 29.3547 24.8587 29.3678 25.0287 29.3678C25.2313 29.3678 25.3849 29.3122 25.4895 29.2011C25.5973 29.0932 25.6513 28.9037 25.6513 28.6324V22.6957H26.5582ZM25.5581 21.2887C25.5581 21.1449 25.6022 21.0223 25.6905 20.921C25.782 20.8164 25.9144 20.7641 26.0876 20.7641C26.2641 20.7641 26.3981 20.8148 26.4896 20.9161C26.5811 21.0174 26.6268 21.1416 26.6268 21.2887C26.6268 21.4358 26.5811 21.5583 26.4896 21.6564C26.3981 21.7544 26.2641 21.8034 26.0876 21.8034C25.9111 21.8034 25.7787 21.7544 25.6905 21.6564C25.6022 21.5583 25.5581 21.4358 25.5581 21.2887ZM27.7838 25.2988C27.7838 24.7792 27.8851 24.3118 28.0877 23.8967C28.2936 23.4817 28.578 23.1614 28.9407 22.9359C29.3068 22.7104 29.7235 22.5976 30.1908 22.5976C30.9131 22.5976 31.4965 22.8476 31.941 23.3477C32.3887 23.8477 32.6126 24.5128 32.6126 25.3429V25.4067C32.6126 25.923 32.5129 26.3871 32.3136 26.7989C32.1175 27.2075 31.8348 27.5261 31.4654 27.7549C31.0994 27.9837 30.6778 28.098 30.2006 28.098C29.4816 28.098 28.8983 27.848 28.4505 27.348C28.006 26.8479 27.7838 26.1861 27.7838 25.3625V25.2988ZM28.6956 25.4067C28.6956 25.9949 28.8313 26.4672 29.1025 26.8234C29.3771 27.1797 29.7431 27.3578 30.2006 27.3578C30.6615 27.3578 31.0275 27.178 31.2988 26.8185C31.57 26.4558 31.7057 25.9492 31.7057 25.2988C31.7057 24.7171 31.5668 24.2464 31.289 23.8869C31.0144 23.5242 30.6484 23.3428 30.1908 23.3428C29.7431 23.3428 29.382 23.5209 29.1074 23.8771C28.8329 24.2334 28.6956 24.7432 28.6956 25.4067ZM37.0247 27.4754C36.6717 27.8905 36.1537 28.098 35.4707 28.098C34.9053 28.098 34.4739 27.9346 34.1764 27.6078C33.8823 27.2777 33.7336 26.7908 33.7303 26.1469V22.6957H34.6373V26.1224C34.6373 26.9264 34.9641 27.3284 35.6177 27.3284C36.3106 27.3284 36.7714 27.0702 37.0002 26.5538V22.6957H37.9071V28H37.0443L37.0247 27.4754ZM40.5201 21.4113V22.6957H41.5104V23.3967H40.5201V26.6862C40.5201 26.8986 40.5642 27.0588 40.6524 27.1666C40.7407 27.2712 40.891 27.3235 41.1035 27.3235C41.208 27.3235 41.3518 27.3039 41.5349 27.2646V28C41.2963 28.0654 41.0642 28.098 40.8387 28.098C40.4335 28.098 40.1279 27.9755 39.922 27.7304C39.7161 27.4853 39.6131 27.1372 39.6131 26.6862V23.3967H38.6474V22.6957H39.6131V21.4113H40.5201ZM44.7753 28.098C44.0563 28.098 43.4713 27.8627 43.0203 27.3921C42.5693 26.9182 42.3438 26.2858 42.3438 25.4949V25.3282C42.3438 24.802 42.4434 24.333 42.6428 23.9213C42.8454 23.5062 43.1265 23.1826 43.486 22.9506C43.8488 22.7153 44.241 22.5976 44.6626 22.5976C45.3522 22.5976 45.8881 22.8248 46.2705 23.279C46.6529 23.7333 46.8441 24.3837 46.8441 25.2302V25.6077H43.2507C43.2638 26.1306 43.4157 26.5538 43.7066 26.8774C44.0007 27.1976 44.3733 27.3578 44.8243 27.3578C45.1446 27.3578 45.4159 27.2924 45.6381 27.1617C45.8604 27.031 46.0548 26.8578 46.2215 26.6421L46.7755 27.0735C46.331 27.7565 45.6643 28.098 44.7753 28.098ZM44.6626 23.3428C44.2965 23.3428 43.9893 23.4768 43.7409 23.7448C43.4925 24.0095 43.3389 24.3821 43.2801 24.8625H45.9372V24.7939C45.911 24.333 45.7868 23.9768 45.5646 23.7252C45.3424 23.4702 45.0417 23.3428 44.6626 23.3428ZM50.462 23.5095C50.3248 23.4866 50.1761 23.4751 50.0159 23.4751C49.4211 23.4751 49.0175 23.7284 48.805 24.235V28H47.8981V22.6957H48.7805L48.7952 23.3085C49.0926 22.8346 49.5142 22.5976 50.06 22.5976C50.2365 22.5976 50.3705 22.6205 50.462 22.6663V23.5095ZM30.2595 39.4754C29.9065 39.8905 29.3885 40.098 28.7054 40.098C28.14 40.098 27.7086 39.9346 27.4112 39.6078C27.1171 39.2777 26.9684 38.7908 26.9651 38.1469V34.6957H27.872V38.1224C27.872 38.9264 28.1989 39.3284 28.8525 39.3284C29.5454 39.3284 30.0062 39.0702 30.235 38.5538V34.6957H31.1419V40H30.2791L30.2595 39.4754ZM33.3823 34.6957L33.4117 35.3624C33.8169 34.8525 34.3464 34.5976 35 34.5976C36.121 34.5976 36.6864 35.23 36.6963 36.4948V40H35.7893V36.4899C35.786 36.1075 35.6978 35.8248 35.5246 35.6418C35.3546 35.4588 35.0883 35.3673 34.7255 35.3673C34.4314 35.3673 34.1732 35.4457 33.9509 35.6026C33.7287 35.7595 33.5555 35.9654 33.4313 36.2203V40H32.5244V34.6957H33.3823ZM40.2652 40.098C39.5461 40.098 38.9611 39.8627 38.5101 39.3921C38.0591 38.9182 37.8336 38.2858 37.8336 37.4949V37.3282C37.8336 36.802 37.9333 36.333 38.1326 35.9213C38.3353 35.5062 38.6163 35.1826 38.9758 34.9506C39.3386 34.7153 39.7308 34.5976 40.1524 34.5976C40.842 34.5976 41.378 34.8248 41.7604 35.279C42.1428 35.7333 42.3339 36.3837 42.3339 37.2302V37.6077H38.7405C38.7536 38.1306 38.9056 38.5538 39.1964 38.8774C39.4906 39.1976 39.8632 39.3578 40.3142 39.3578C40.6345 39.3578 40.9057 39.2924 41.128 39.1617C41.3502 39.031 41.5447 38.8578 41.7113 38.6421L42.2653 39.0735C41.8208 39.7565 41.1541 40.098 40.2652 40.098ZM40.1524 35.3428C39.7864 35.3428 39.4791 35.4768 39.2308 35.7448C38.9824 36.0095 38.8288 36.3821 38.7699 36.8625H41.427V36.7939C41.4009 36.333 41.2767 35.9768 41.0544 35.7252C40.8322 35.4702 40.5315 35.3428 40.1524 35.3428ZM22.3373 52H21.4304V46.6957H22.3373V52ZM21.3568 45.2887C21.3568 45.1416 21.4009 45.0174 21.4892 44.9161C21.5807 44.8148 21.7147 44.7641 21.8912 44.7641C22.0677 44.7641 22.2017 44.8148 22.2932 44.9161C22.3847 45.0174 22.4304 45.1416 22.4304 45.2887C22.4304 45.4358 22.3847 45.5583 22.2932 45.6564C22.2017 45.7544 22.0677 45.8034 21.8912 45.8034C21.7147 45.8034 21.5807 45.7544 21.4892 45.6564C21.4009 45.5583 21.3568 45.4358 21.3568 45.2887ZM24.6463 46.6957L24.6708 47.2839C25.0597 46.8264 25.5843 46.5976 26.2445 46.5976C26.9863 46.5976 27.4913 46.882 27.7593 47.4506C27.9358 47.1957 28.1645 46.9898 28.4456 46.8329C28.7299 46.6761 29.0649 46.5976 29.4506 46.5976C30.6141 46.5976 31.2056 47.2137 31.2252 48.4458V52H30.3183V48.4997C30.3183 48.1206 30.2317 47.8379 30.0585 47.6516C29.8853 47.4621 29.5944 47.3673 29.1859 47.3673C28.8492 47.3673 28.5698 47.4686 28.3476 47.6712C28.1253 47.8706 27.9962 48.1402 27.9603 48.4801V52H27.0484V48.5242C27.0484 47.7529 26.671 47.3673 25.916 47.3673C25.3212 47.3673 24.9143 47.6206 24.6953 48.1271V52H23.7884V46.6957H24.6463ZM35.8727 52C35.8204 51.8954 35.7779 51.7091 35.7452 51.4411C35.3236 51.8791 34.8203 52.098 34.2353 52.098C33.7124 52.098 33.2826 51.951 32.946 51.6568C32.6126 51.3594 32.4459 50.9836 32.4459 50.5293C32.4459 49.977 32.6551 49.5488 33.0734 49.2449C33.495 48.9377 34.0866 48.7841 34.8481 48.7841H35.7305V48.3674C35.7305 48.0503 35.6357 47.7987 35.4462 47.6124C35.2566 47.4228 34.9772 47.3281 34.6079 47.3281C34.2843 47.3281 34.013 47.4098 33.7941 47.5732C33.5751 47.7366 33.4656 47.9343 33.4656 48.1664H32.5538C32.5538 47.9016 32.6469 47.6467 32.8332 47.4016C33.0228 47.1532 33.2777 46.9571 33.598 46.8133C33.9215 46.6695 34.2761 46.5976 34.6618 46.5976C35.2729 46.5976 35.7517 46.7512 36.0982 47.0584C36.4446 47.3624 36.6244 47.7824 36.6374 48.3183V50.7597C36.6374 51.2467 36.6995 51.634 36.8237 51.9216V52H35.8727ZM34.3676 51.3088C34.652 51.3088 34.9216 51.2352 35.1765 51.0882C35.4314 50.9411 35.6161 50.7499 35.7305 50.5146V49.4263H35.0196C33.9085 49.4263 33.3529 49.7515 33.3529 50.4018C33.3529 50.6862 33.4476 50.9084 33.6372 51.0686C33.8267 51.2287 34.0702 51.3088 34.3676 51.3088ZM37.8434 49.3037C37.8434 48.4768 38.0346 47.8199 38.417 47.333C38.7994 46.8427 39.3059 46.5976 39.9367 46.5976C40.5838 46.5976 41.0888 46.8264 41.4515 47.2839L41.4956 46.6957H42.3241V51.8725C42.3241 52.5589 42.1199 53.0998 41.7113 53.4952C41.3061 53.8907 40.7603 54.0884 40.074 54.0884C39.6916 54.0884 39.3174 54.0067 38.9513 53.8433C38.5853 53.6799 38.3059 53.456 38.113 53.1717L38.5837 52.6275C38.9726 53.1079 39.4481 53.3481 40.0102 53.3481C40.4514 53.3481 40.7946 53.224 41.0397 52.9756C41.2881 52.7272 41.4123 52.3775 41.4123 51.9265V51.4705C41.0495 51.8889 40.5544 52.098 39.9269 52.098C39.3059 52.098 38.8026 51.848 38.417 51.348C38.0346 50.8479 37.8434 50.1665 37.8434 49.3037ZM38.7552 49.4067C38.7552 50.0047 38.8778 50.4754 39.1229 50.8185C39.368 51.1584 39.7112 51.3284 40.1524 51.3284C40.7243 51.3284 41.1443 51.0686 41.4123 50.5489V48.1271C41.1345 47.6206 40.7178 47.3673 40.1622 47.3673C39.721 47.3673 39.3762 47.5389 39.1278 47.882C38.8794 48.2252 38.7552 48.7334 38.7552 49.4067ZM45.8979 52.098C45.1789 52.098 44.5939 51.8627 44.1429 51.3921C43.6919 50.9182 43.4664 50.2858 43.4664 49.4949V49.3282C43.4664 48.802 43.5661 48.333 43.7654 47.9213C43.9681 47.5062 44.2491 47.1826 44.6086 46.9506C44.9714 46.7153 45.3636 46.5976 45.7852 46.5976C46.4748 46.5976 47.0108 46.8248 47.3932 47.279C47.7755 47.7333 47.9667 48.3837 47.9667 49.2302V49.6077H44.3733C44.3864 50.1306 44.5384 50.5538 44.8292 50.8774C45.1234 51.1976 45.496 51.3578 45.947 51.3578C46.2673 51.3578 46.5385 51.2924 46.7608 51.1617C46.983 51.031 47.1775 50.8578 47.3441 50.6421L47.8981 51.0735C47.4536 51.7565 46.7869 52.098 45.8979 52.098ZM45.7852 47.3428C45.4192 47.3428 45.1119 47.4768 44.8636 47.7448C44.6152 48.0095 44.4616 48.3821 44.4027 48.8625H47.0598V48.7939C47.0337 48.333 46.9095 47.9768 46.6872 47.7252C46.465 47.4702 46.1643 47.3428 45.7852 47.3428Z" fill="#423977"/>
</svg>
