<svg width="102" height="63" viewBox="0 0 102 63" fill="none" xmlns="http://www.w3.org/2000/svg">
<path d="M12.1565 56.6089C12.1565 56.6089 -0.547663 57.3004 0.018368 44.3482C0.584399 31.3959 13.9594 30.6657 13.9594 30.6657C13.9594 30.6657 22.1984 32.8594 22.0914 17.1901C21.9844 1.52079 38.5695 -3.18001 52.1585 2.0431C65.7475 7.26621 69.7065 7.57959 78.1595 3.61003C86.6125 -0.359529 93.8885 11.3402 90.2505 18.6526C86.6125 25.9649 87.3861 34.2477 96.2008 36.8436C105.015 39.4395 103.061 55.9163 93.9795 56.2443C84.8984 56.5723 12.1565 56.6089 12.1565 56.6089Z" fill="#EDE7F2"/>
<path d="M56.3298 56.8858H30.7514C29.9265 56.8858 29.2588 56.233 29.2588 55.4286V13.7378C29.2588 12.9324 29.9275 12.2805 30.7514 12.2805H54.8361C55.6611 12.2805 56.3288 12.9334 56.3288 13.7378V56.8858H56.3298Z" fill="white"/>
<path d="M29.2055 55.8326C29.2847 55.9391 29.2783 56.054 29.2398 56.1731C29.3104 56.474 29.5255 56.6328 29.8101 56.7153C30.114 56.8041 30.4179 56.896 30.726 56.9702C37.497 58.5977 45.4995 60.524 52.2127 62.3625C52.6996 62.4962 53.0024 62.304 53.2164 62.0042C53.4314 61.7013 53.5438 61.3022 53.4892 60.9147C53.3341 59.7969 53.4796 58.6781 53.4892 57.5478C53.5042 55.7302 53.4389 53.9178 53.4892 52.1075C53.6101 47.7691 53.6882 43.4549 53.4892 39.1322C53.2795 34.5819 53.868 30.0315 53.4892 25.4895C53.2956 23.1631 53.5545 20.8294 53.4892 18.501C53.4721 17.8961 51.0186 17.2589 50.4044 17.121C48.0483 16.5903 45.6547 16.1955 43.3189 15.6157C38.8035 14.4948 34.2581 13.4857 29.7641 12.2813C29.3093 12.1591 29.1157 12.2677 29.1478 12.7326C29.1563 12.8537 29.1467 12.976 29.1499 13.0971C29.2045 15.4225 29.0932 17.3707 29.1499 19.6971L29.2055 55.8326Z" fill="#423977"/>
<path d="M67.0934 40.6242C68.0072 40.0747 69.0376 39.9838 70.0638 39.9828C70.6865 39.9828 71.336 39.7686 71.9438 40.0872C71.9705 40.151 71.9983 40.2147 72.0251 40.2784C72.0893 40.4873 72.1524 40.6962 72.2166 40.9052C72.223 40.9762 72.2295 41.0472 72.2359 41.1172C72.2188 41.2092 72.2262 41.2959 72.2958 41.369C72.2979 42.0741 72.299 42.7803 72.3011 43.4854C72.1749 43.7643 72.2134 44.0578 72.2241 44.3482C71.9523 45.6008 72.605 46.6778 72.9196 47.8174C73.1689 48.721 73.7735 49.3969 74.4283 50.0446C75.173 50.78 75.9531 51.4893 76.5105 52.3845C76.4795 52.6185 77.0124 52.9821 76.38 53.0729C75.723 53.168 75.4673 53.5535 75.4202 54.1426C75.234 54.0935 75.0254 54.08 74.8649 53.9891C73.8248 53.3957 72.6639 53.1367 71.4837 52.794C71.3135 53.9306 71.1712 55.0609 71.2611 56.2131C71.3499 57.335 71.4708 58.4601 71.2151 59.5789C70.8941 59.6603 70.9626 59.9507 70.877 60.1628C70.801 60.3519 70.7079 60.6318 70.4747 60.5744C70.1633 60.4992 69.8401 60.3822 69.593 60.1524C69.5748 60.1356 69.5962 60.0427 69.6272 60.0155C70.0006 59.6781 69.5555 59.7627 69.4464 59.675C69.4785 59.3825 69.3158 59.1391 69.2249 58.8821C68.7616 57.5784 68.5743 56.2183 68.3689 54.8645C68.2351 53.9859 68.0522 53.1283 67.7322 52.2937C67.2304 50.9868 66.9233 49.6361 66.8473 48.2384C66.7671 46.7666 66.3765 45.326 66.3509 43.85C66.337 43.0529 66.5156 42.2705 66.6301 41.4849C66.6794 41.1465 66.858 40.8697 67.0934 40.6242Z" fill="#418E89"/>
<path d="M66.123 20.5461C65.2745 20.0583 65.3751 18.9061 65.8544 18.2417C66.0353 17.991 66.322 17.9795 66.5724 18.1247C67.1363 18.4506 67.7344 18.3785 68.3358 18.319C68.8119 18.272 69.2859 18.2041 69.7632 18.178C70.6245 18.1299 71.1296 18.4997 71.519 19.2571C72.0669 20.3226 71.9192 21.4142 71.7448 22.509C71.6603 23.0376 71.5073 23.5599 71.3403 24.0707C71.1499 24.6546 70.7818 25.0746 70.0906 25.0965C69.7321 24.9388 69.6283 24.6546 69.6326 24.2901C69.638 23.7782 69.8049 23.2998 69.9033 22.8067C69.9429 22.6082 70.0692 22.3763 69.8595 22.228C69.6851 22.1047 69.486 22.2227 69.3148 22.322C69.1105 22.44 68.8804 22.557 68.6696 22.393C68.4781 22.2447 68.5669 22.0023 68.5894 21.8018C68.6354 21.3902 68.8151 21.0005 68.7745 20.5701C68.7402 20.215 68.5723 20.0802 68.2181 20.1126C67.9966 20.1325 67.8147 20.2421 67.6178 20.3174C67.1374 20.5043 66.6591 20.7101 66.123 20.5461Z" fill="#3B3B3E"/>
<path d="M66.1231 20.5467C66.6591 20.7107 67.1374 20.5049 67.6178 20.32C67.8147 20.2437 67.9966 20.1351 68.2181 20.1153C68.5712 20.0839 68.7403 20.2176 68.7745 20.5728C68.8162 21.0032 68.6354 21.3928 68.5894 21.8044C68.5669 22.005 68.4781 22.2484 68.6697 22.3957C68.8804 22.5586 69.1105 22.4427 69.3149 22.3246C69.4871 22.2254 69.6851 22.1073 69.8595 22.2306C70.0692 22.3789 69.9429 22.6109 69.9034 22.8093C69.8049 23.3024 69.638 23.7808 69.6326 24.2927C69.6284 24.6573 69.7332 24.9414 70.0906 25.0991C69.8627 25.5212 70.097 25.9442 70.1163 26.361C70.1313 26.6838 70.1773 27.0108 70.1741 27.3388C69.3609 27.2166 68.6675 27.5895 67.9495 27.858C67.88 27.2594 67.8115 26.6608 67.7398 26.0623C67.7238 25.9244 67.712 25.7896 67.5087 25.7781C66.78 25.7395 66.627 25.166 66.459 24.6426C66.3702 24.3658 66.3371 24.1162 66.0599 23.9083C65.7689 23.6899 65.6951 23.2899 65.8277 22.9514C66.1359 22.1669 66.1049 21.3563 66.1231 20.5467Z" fill="#B9B4D5"/>
<path d="M69.4475 59.6737C69.5567 59.7615 70.0018 59.6769 69.6284 60.0143C69.5973 60.0425 69.5759 60.1344 69.5941 60.1511C69.8413 60.3809 70.1655 60.4979 70.4758 60.5731C70.7091 60.6296 70.8022 60.3496 70.8781 60.1616C70.9637 59.9495 70.8953 59.6591 71.2163 59.5776C71.4731 59.7803 71.4966 60.0299 71.4057 60.3256C71.2837 60.7183 71.0889 61.061 70.7808 61.3388C69.8659 62.163 68.7884 62.6665 67.5569 62.8201C66.6409 62.934 66.2985 62.4827 66.6281 61.6303C66.8474 61.062 67.2123 60.5982 67.7655 60.2995C68.2941 60.0122 68.8441 59.7719 69.4475 59.6737Z" fill="#3B3B3E"/>
<path d="M75.4199 54.1426C75.467 53.5535 75.7227 53.168 76.3797 53.0729C77.0121 52.982 76.4792 52.6185 76.5102 52.3845C77.011 53.0092 77.6509 53.5388 77.5824 54.4727C77.5021 55.5821 76.9618 56.4419 76.2352 57.2306C76.1528 57.3193 76.0576 57.404 75.9528 57.4646C75.6746 57.6223 75.3824 57.7873 75.0582 57.5868C74.7126 57.3726 74.7201 57.0352 74.8025 56.702C74.9823 55.9749 75.2005 55.2593 75.5654 54.597C75.6788 54.3902 75.7216 54.2158 75.4199 54.1426Z" fill="#3B3B3E"/>
<path d="M54.1403 35.6499C54.5308 35.8213 54.8058 36.19 55.2638 36.2589C55.4264 36.283 55.4221 36.4637 55.4221 36.6037C54.1488 37.5041 52.7642 37.5637 51.3326 37.0706C50.8264 36.8962 50.7697 36.3874 51.2213 36.1096C51.7798 35.7659 52.4079 35.5434 53.082 35.6228C53.4394 35.6635 53.7861 35.6844 54.1403 35.6499Z" fill="#B9B4D5"/>
<path d="M66.7573 40.0728C66.7663 40.0577 66.7741 40.0437 66.7831 40.0286C66.7753 40.0437 66.7663 40.0588 66.7573 40.0728C66.7584 40.0739 66.7573 40.0728 66.7573 40.0728Z" fill="#FDFDFD"/>
<path d="M60.8755 35.9607C62.0985 35.5805 63.1814 34.9945 64.1337 34.1556C64.4483 33.8788 64.7992 33.6396 65.148 33.4035C65.2775 33.3158 65.4765 33.1674 65.5172 33.5048C65.5835 34.0522 65.6862 34.5965 65.7258 35.1459C65.8403 36.7306 66.0201 38.3038 66.3764 39.8561C66.4042 39.9784 66.4695 40.0348 66.5872 40.0494C66.5957 40.0348 66.6032 40.0212 66.6118 40.0066C66.6043 40.0212 66.5957 40.0358 66.5883 40.0504C66.585 40.3011 66.7862 40.4328 66.9232 40.603C67.837 40.0536 68.8674 39.9627 69.8935 39.9616C70.5162 39.9616 71.1657 39.7475 71.7735 40.0661C72.3631 39.7256 72.4519 39.1197 72.5653 38.5524C72.7932 37.4201 72.6616 36.2679 72.6734 35.125C72.6787 34.539 72.7311 33.9519 72.6006 33.3628C72.3812 32.3693 72.1983 31.3686 72.0303 30.3657C71.8687 29.4005 71.4332 28.499 71.3658 27.5108C71.3476 27.2423 71.1133 27.0752 70.8618 26.9446C70.3889 26.6981 69.8774 26.5915 69.3638 26.4818C68.5506 26.3607 67.8573 26.7326 67.1393 27.001C66.3015 27.6852 65.6146 28.4854 64.9437 29.3357C64.0384 30.4817 62.8486 31.3978 61.5175 32.0727C60.6669 32.5041 59.7841 32.8895 58.9367 33.3189C57.7693 33.9101 56.5292 34.3123 55.35 34.8587C54.8717 35.0801 54.2586 35.0843 53.9697 35.6306C54.3603 35.802 54.6353 36.1707 55.0932 36.2397C55.2559 36.2637 55.2516 36.4444 55.2516 36.5844C55.3757 36.7661 55.5683 36.6982 55.7384 36.7129C56.7207 36.7975 57.673 36.5509 58.6403 36.4632L60.8755 35.9607Z" fill="#8071A4"/>
</svg>
