<svg width="21" height="21" viewBox="0 0 21 21" fill="none" xmlns="http://www.w3.org/2000/svg">
<path d="M3.65049 14.9433C3.50055 15.4514 3.1107 15.8997 2.75084 16.3181C2.27102 16.8561 2.331 17.1998 2.8558 17.6929C3.92039 18.6643 3.92039 18.724 5.05995 17.8274C5.71969 17.3044 6.28947 17.155 6.97921 17.6929C7.12915 17.8125 7.33907 17.9021 7.519 17.9171C8.79351 18.0964 9.12338 18.9631 9.15337 20.0689C9.16837 20.7563 9.42327 21.0403 10.203 20.9954C11.6574 20.9207 11.6724 20.9805 11.8373 19.5609C11.9273 18.7838 12.1672 18.1711 13.0669 18.0665C13.2318 18.0516 13.4267 17.9918 13.5467 17.8872C14.6563 17.0205 15.6009 17.3941 16.4706 18.2608C16.9504 18.724 17.2503 18.6045 17.6701 18.1562C18.7047 17.0653 18.7647 17.0653 17.835 15.8549C17.3702 15.2422 17.2053 14.7042 17.7001 14.0467C17.805 13.9122 17.895 13.7479 17.91 13.5835C18.0599 12.1639 19.0346 11.7903 20.2491 11.7753C20.8939 11.7604 21.0138 11.4765 20.9988 10.9086C20.9688 9.30965 20.9838 9.29471 19.3494 9.10044C18.7197 9.02572 18.2699 8.80157 18.1349 8.11417C18.0899 7.90496 18.0449 7.65092 17.925 7.48655C17.0703 6.38073 17.4002 5.42435 18.2699 4.54268C18.7197 4.09438 18.6447 3.78057 18.1799 3.36215C17.0553 2.31611 17.0553 2.25633 15.8558 3.18283C15.226 3.66102 14.6712 3.8254 14.0115 3.30238C13.8166 3.15294 13.5767 3.03339 13.3368 3.00351C12.1522 2.88396 11.9123 2.07701 11.8223 1.09074C11.7924 0.7321 11.8973 0.149305 11.4625 0.0596447C10.8177 -0.0599022 10.128 0.0297565 9.45326 0.0745869C9.28832 0.0895309 9.30331 0.313683 9.30331 0.448174C9.27332 1.97241 8.62857 2.83913 7.06917 3.33226C6.13953 3.63113 5.59974 3.43687 4.93999 2.95868C3.96537 2.22645 3.95037 2.25633 3.08071 3.10811C2.316 3.87023 2.316 3.87023 2.96076 4.75189C3.15568 5.02087 3.32062 5.28986 3.51554 5.5439C3.75545 5.85771 3.74046 6.17152 3.56052 6.51522C3.35061 6.93364 3.06572 7.35206 2.99074 7.80036C2.82581 8.7418 2.19605 8.99584 1.37137 9.10044C0.0218876 9.26482 0.0968587 9.29471 0.00689335 10.6396C-0.0530836 11.5063 0.276789 11.7753 1.05649 11.7903C1.40136 11.7903 1.74622 11.8799 2.09109 11.9546C2.34599 11.9995 2.61589 12.0891 2.69086 12.3432C2.93077 13.1501 3.26064 13.9272 3.6355 14.6744C3.65049 14.7341 3.6355 14.8238 3.65049 14.9433ZM10.5029 15.5859C7.69893 15.5859 5.41981 13.3145 5.40481 10.535C5.38982 7.74059 7.65395 5.48412 10.4579 5.45424C13.3068 5.42435 15.6009 7.7107 15.5859 10.535C15.6009 13.3294 13.3068 15.5859 10.5029 15.5859Z" fill="#423977"/>
</svg>
