<svg width="22" height="15" viewBox="0 0 22 15" fill="none" xmlns="http://www.w3.org/2000/svg">
<path d="M0 7.98667C0.195919 7.28367 0.311165 6.54609 0.610805 5.87767C0.795199 5.46278 1.21009 5.11704 1.60192 4.84045C1.93614 4.60996 2.35102 4.69063 2.70829 4.9557C4.01057 5.90072 5.382 5.90072 6.67276 4.96722C6.82258 4.8635 6.98392 4.79435 7.23747 4.64453C6.96087 5.76242 7.11069 6.70744 7.7676 7.61788C6.25787 7.54874 5.60097 8.50528 5.15151 9.68079C4.99016 10.1187 4.75967 10.2455 4.31021 10.2225C3.52654 10.1764 2.74286 10.1879 1.97071 10.1879C0.991118 10.1764 0.29964 9.76147 0 8.7934C0 8.52833 0 8.25174 0 7.98667Z" fill="#423977"/>
<path d="M10.7065 14.8554C9.60015 14.8554 8.49378 14.89 7.38742 14.8439C6.92643 14.8209 6.4424 14.7056 6.01599 14.5097C5.37061 14.2101 5.0364 13.6684 5.01335 12.9193C4.9903 11.6746 5.12859 10.4645 5.76245 9.40428C6.03904 8.9433 6.51155 8.56299 6.97253 8.27487C7.39894 7.99828 7.85993 8.12505 8.28634 8.45926C9.66929 9.54258 11.5593 9.58868 12.9653 8.59756C13.9219 7.92913 14.9476 8.07895 15.5008 9.11617C15.8926 9.85374 16.1 10.695 16.3536 11.5133C16.4458 11.8014 16.4227 12.1126 16.4343 12.4237C16.5264 13.945 15.7082 14.8324 14.1754 14.867C13.0345 14.867 11.8705 14.8439 10.7065 14.8554C10.7065 14.8439 10.7065 14.8439 10.7065 14.8554Z" fill="#423977"/>
<path d="M10.7179 8.57454C8.98926 8.56302 7.58325 7.16854 7.58325 5.46289C7.58325 3.75725 9.00078 2.35124 10.7179 2.32819C12.4582 2.31667 13.8642 3.7342 13.8642 5.48594C13.8642 7.21464 12.4697 8.57454 10.7179 8.57454Z" fill="#423977"/>
<path d="M13.6909 7.66388C14.3593 6.75344 14.4746 5.79689 14.2441 4.66748C14.4976 4.8173 14.682 4.89797 14.8319 5.00169C16.0074 5.86604 17.471 5.87757 18.6696 5.03627C19.3034 4.58681 19.9949 4.62138 20.4789 5.24371C21.3433 6.35008 21.5968 7.65236 21.3548 9.01226C21.228 9.72679 20.6057 10.0725 19.9257 10.1302C18.9 10.2108 17.8628 10.1878 16.8371 10.1763C16.6988 10.1763 16.5145 10.0149 16.4338 9.87661C16.2494 9.55392 16.1341 9.17361 15.9382 8.85092C15.4542 8.07877 14.8088 7.53711 13.6909 7.66388Z" fill="#423977"/>
<path d="M16.7684 0C18.1399 0 19.3154 1.15246 19.3384 2.53542C19.3615 3.91837 18.1399 5.12846 16.7454 5.11693C15.3624 5.10541 14.21 3.94142 14.21 2.54694C14.2215 1.16399 15.3855 0 16.7684 0Z" fill="#423977"/>
<path d="M7.23758 2.56999C7.23758 3.976 6.08512 5.12846 4.69064 5.11693C3.29616 5.10541 2.16675 3.95295 2.16675 2.54694C2.16675 1.14094 3.31921 0 4.71369 0C6.10817 0.0115246 7.23758 1.16399 7.23758 2.56999Z" fill="#423977"/>
</svg>
