<svg width="142" height="86" viewBox="0 0 142 86" fill="none" xmlns="http://www.w3.org/2000/svg">
<path d="M26.5931 76.2424C34.9396 76.5682 43.2763 76.2227 51.6179 76.0834L102.364 74.8061C108.64 75.7259 114.951 75.4172 121.248 75.278C123.167 75.2355 124.689 73.994 125.79 72.2485C127.804 69.0578 128.004 65.4019 128.917 61.9148C130.576 55.5891 126.254 49.0598 122.243 46.607C120.861 45.7603 119.382 45.0496 118.066 44.107C114.647 41.6554 112.225 38.6777 113.02 34.0972C113.649 30.4601 114.143 26.8047 114.947 23.1947C116.713 15.2695 114.268 9.54613 107.594 5.43395C106.074 4.49619 104.435 4.09026 102.728 4.43933C99.6974 5.05459 96.5054 5.04869 93.7398 6.73959C92.8042 7.3111 91.685 7.35812 90.5828 7.36094C84.9781 7.37357 79.916 5.07799 74.6776 3.60444C72.0564 2.86763 69.5173 2.09978 66.7551 2.02384C62.9401 1.91915 59.1833 2.527 55.4013 2.66138C45.6074 3.00817 38.4599 8.17988 32.1664 14.8489C28.6337 18.5898 27.87 23.5266 26.9442 28.3922C25.4484 36.265 21.8504 42.5885 13.5411 45.3361C5.41238 48.0219 0.823732 53.4887 0.236841 62.225C-0.0465612 66.474 1.32116 69.8191 4.14794 72.7911L4.16484 72.8089C5.33158 74.0426 6.50124 75.2793 8.30548 75.5009C10.1184 75.7236 11.9439 75.9303 13.7676 75.9874C18.0434 76.1196 22.3219 76.078 26.5931 76.2424Z" fill="#EDE7F2"/>
<path d="M43.3964 29.5429C44.738 29.1527 46.0493 28.7803 47.3476 28.3939C48.6516 27.9968 49.9451 27.5938 51.242 27.172C51.4523 27.1019 51.6435 26.9659 51.8264 26.8323C52.1596 26.5746 52.2264 26.2246 51.9863 25.8567C51.8303 25.6251 51.6275 25.4161 51.4353 25.2129C50.6666 24.4001 50.2238 23.4569 50.2492 22.3238C50.2723 20.6644 51.5958 19.2968 53.295 19.16C54.9321 19.0234 56.47 20.1931 56.7779 21.801C56.9185 22.5284 56.9114 23.2363 56.7205 23.9529C56.462 24.8946 56.9208 25.4044 57.8903 25.2297C58.5745 25.1111 59.2477 24.9243 59.9127 24.7398C61.7557 24.2128 63.5939 23.6693 65.4263 23.1364C65.5736 23.0936 65.7208 23.0508 65.8844 23.0032C65.9329 23.0784 65.9824 23.1266 66.0016 23.1925C66.7158 25.7096 67.4195 28.2208 68.1255 30.7402C68.1447 30.8061 68.1662 30.8803 68.1772 30.9485C68.2579 31.47 68.1823 31.5456 67.6745 31.4164C66.4395 31.1055 65.2541 31.209 64.1317 31.8034C62.7339 32.5494 61.9112 34.2359 62.1508 35.7921C62.4172 37.5014 63.6307 38.837 65.2486 39.1527C66.952 39.4881 68.3271 38.847 69.4984 37.6577C69.8625 37.2928 70.0077 37.3041 70.162 37.8042C70.9599 40.3952 71.725 42.9958 72.4983 45.594C72.5055 45.6187 72.4882 45.6505 72.4746 45.7259C72.3519 45.7616 72.2046 45.8044 72.0574 45.8473C69.9468 46.461 67.8363 47.0748 65.7281 47.6968C65.2537 47.8348 64.7782 47.9998 64.3513 48.2401C63.6186 48.6497 63.5602 49.2117 64.1892 49.7881C64.7452 50.2965 65.1765 50.8947 65.4339 51.597C65.9096 52.897 65.6903 54.0954 64.7554 55.0909C63.8624 56.0474 62.7124 56.364 61.4477 55.9813C60.1162 55.5824 59.3092 54.6378 59.1116 53.2569C59.0244 52.6212 59.0867 51.9509 59.2044 51.3181C59.3782 50.3295 58.9498 49.802 57.9749 50.0497C56.2706 50.4739 54.583 50.9557 52.8931 51.4293C51.9417 51.697 50.987 51.9836 50.0463 52.2572C49.5695 51.5025 47.6577 44.3486 47.7945 43.7818C48.2047 43.8501 48.6164 43.9537 49.0334 43.9843C50.8198 44.117 52.2939 43.5722 53.2751 41.9735C54.0559 40.6923 53.9633 38.8789 52.9667 37.5874C51.9879 36.3266 50.6661 35.8086 49.0851 36.1076C48.0665 36.2966 47.1962 36.782 46.4858 37.5425C46.3649 37.6759 46.218 37.7811 46.0225 37.9631C45.8565 37.6361 45.6745 37.3764 45.5906 37.0881C44.8652 34.6547 44.1456 32.2106 43.4284 29.7748C43.3986 29.703 43.4088 29.6465 43.3964 29.5429Z" fill="white"/>
<path d="M40.035 58.9481C41.1944 58.8495 42.017 59.434 42.569 60.3789C43.6094 62.1866 44.533 62.3072 45.9953 60.817C47.209 59.5797 47.9211 58.1123 48.3105 56.4445C48.6942 56.7842 49.1782 56.9109 49.6558 57.0545C50.6837 57.3502 51.3323 58.0421 51.7718 58.9828C51.9375 61.8866 50.6816 64.4798 49.8065 67.1217C48.354 71.4756 46.234 75.5361 43.735 79.394C42.9686 78.8116 41.9962 78.769 41.1396 78.4228C41.7125 76.9216 42.8598 75.659 43.2004 74.0691C43.809 71.2289 45.1404 68.5873 45.3645 65.6584C45.4483 64.4923 45.2777 63.345 45.4509 62.1937C45.2186 62.1051 45.1708 62.2801 45.0925 62.3855C42.326 65.948 38.9661 68.7237 34.7277 70.3139C34.4577 70.4235 34.1915 70.5731 33.9317 70.7058C33.6398 69.976 33.1416 69.4381 32.4307 69.1088C33.7772 67.9222 35.1236 66.7356 36.2192 65.2599C37.6497 63.2552 39.0803 61.2504 40.035 58.9481Z" fill="#418E89"/>
<path d="M53.7613 40.418C53.3291 40.5043 52.9135 40.5969 52.4813 40.6832C53.5609 38.9503 54.2625 37.1118 54.1418 35.0367C54.036 33.1219 55.3682 32.4709 56.8101 31.8811C56.7281 32.8933 56.6856 33.9012 57.2901 34.8083C57.5956 35.2533 57.6006 35.7384 57.1789 36.1958C56.7738 36.6595 56.6711 37.2773 56.4752 37.8403C56.273 38.4201 55.8916 38.6224 55.333 38.6411C54.0409 38.689 54.0409 38.689 53.866 39.9942C53.8541 40.125 53.7962 40.2768 53.7613 40.418Z" fill="#CECDCE"/>
<path d="M41.1294 78.3993C41.9923 78.7287 42.9583 78.7881 43.7248 79.3705C44.2931 79.9738 44.9755 80.4275 45.6579 80.8812C46.1772 81.2146 46.3038 81.6301 46.0324 82.2415C45.7546 82.8698 45.3794 82.7072 44.8825 82.6142C43.4047 82.3015 42.008 81.8264 40.9185 80.6956C40.0992 79.8033 40.1457 79.1833 41.1294 78.3993Z" fill="#3D3C3F"/>
<path d="M32.3975 69.0967C33.1084 69.426 33.613 69.947 33.8985 70.6937C33.7198 71.9588 33.9219 73.2727 33.4188 74.4913C33.2836 74.8455 33.1827 75.3094 32.7467 75.3556C32.2942 75.3954 32.0192 75.02 31.771 74.674C31.0124 73.5729 30.9995 70.4182 31.7119 69.2988C31.9301 68.9763 32.1421 69.0185 32.3975 69.0967Z" fill="#3D3C3F"/>
<path d="M67.4865 41.3313C68.0278 40.6586 67.4241 40.3561 67.0949 39.9547C67.2738 39.6204 67.4142 39.2451 67.6244 38.9275C67.8346 38.61 68.1003 38.3017 68.3874 38.0663C68.8878 37.6584 70.0872 37.5631 70.274 37.9292C70.5779 38.6037 70.2556 39.1684 69.7838 39.6736C69.3447 40.1553 68.6834 40.3747 68.3982 41.0206C68.172 41.1044 67.9374 41.204 67.6956 41.2794C67.6387 41.3104 67.5662 41.333 67.4865 41.3313Z" fill="#CECDCE"/>
<path d="M100.482 49.1232C100.989 47.8213 101.476 46.5481 101.976 45.289C102.486 44.0251 103.002 42.7722 103.537 41.5176C103.625 41.3143 103.777 41.136 103.927 40.9655C104.213 40.6564 104.567 40.6208 104.912 40.8924C105.129 41.0683 105.32 41.2887 105.505 41.4981C106.247 42.3355 107.147 42.86 108.278 42.9347C109.933 43.0582 111.412 41.8606 111.699 40.1802C111.979 38.5615 110.95 36.9263 109.375 36.4776C108.663 36.2734 107.958 36.218 107.227 36.3448C106.266 36.5191 105.799 36.0171 106.058 35.0668C106.237 34.3958 106.482 33.7417 106.725 33.0956C107.413 31.3063 108.116 29.5233 108.809 27.7451C108.865 27.6022 108.92 27.4593 108.982 27.3006C108.911 27.2456 108.868 27.1921 108.804 27.1671C106.36 26.2334 103.92 25.3108 101.473 24.385C101.409 24.3601 101.337 24.3321 101.27 24.3151C100.758 24.1887 100.676 24.2573 100.76 24.7746C100.96 26.0322 100.753 27.2038 100.061 28.2694C99.1949 29.5959 97.4424 30.2664 95.9134 29.8903C94.2343 29.474 93.0111 28.1473 92.8395 26.5079C92.6557 24.7815 93.4157 23.4684 94.7038 22.4067C95.0995 22.0763 95.101 21.9306 94.6165 21.7327C92.1061 20.7092 89.5832 19.7174 87.0635 18.7177C87.0395 18.7084 87.0063 18.7228 86.93 18.7297C86.8836 18.8488 86.8279 18.9917 86.7723 19.1345C85.9745 21.1827 85.1768 23.2308 84.3711 25.2758C84.1918 25.7362 83.9853 26.1952 83.7083 26.5993C83.2356 27.2929 82.6707 27.3014 82.152 26.624C81.6948 26.0253 81.137 25.5429 80.4601 25.2244C79.2072 24.6358 77.9941 24.7485 76.92 25.5918C75.8883 26.3968 75.4714 27.5144 75.7409 28.808C76.0207 30.1695 76.8904 31.0568 78.2484 31.3755C78.8739 31.5185 79.5471 31.5156 80.1878 31.4543C81.1879 31.3684 81.6756 31.8418 81.3427 32.7909C80.7697 34.4512 80.1407 36.0896 79.5198 37.7311C79.1691 38.6551 78.7994 39.5808 78.4438 40.4937C79.1535 41.0352 86.1105 43.5713 86.6873 43.4851C86.6555 43.0704 86.5886 42.6512 86.5949 42.2331C86.6205 40.442 87.2933 39.0218 88.9724 38.1855C90.3176 37.5209 92.1157 37.7732 93.3141 38.88C94.4836 39.9664 94.8828 41.3287 94.4454 42.8772C94.1672 43.8751 93.6069 44.6991 92.7866 45.3396C92.6431 45.4482 92.5253 45.5852 92.3268 45.7639C92.6378 45.9582 92.8804 46.1624 93.1602 46.2714C95.5201 47.2088 97.891 48.1414 100.254 49.0709C100.323 49.1069 100.38 49.1018 100.482 49.1232Z" fill="white"/>
<path d="M120.216 59.3466C120.922 59.6308 121.761 59.5943 122.251 60.3732C122.461 60.7071 122.805 60.4572 122.998 60.2131C123.922 59.0995 125.143 58.8775 126.506 59.0839C128.086 59.3214 128.605 58.8325 128.482 57.233C128.433 56.6081 128.274 55.9962 128.208 55.3763C128.058 54.1416 128.574 53.1839 129.515 52.9111C130.979 52.4869 131.916 52.8542 132.537 54.084C132.67 54.3463 132.621 54.8303 133.07 54.8132C133.426 54.8039 133.585 54.4384 133.768 54.1596C134.351 53.2388 134.606 52.2253 134.598 51.1561C134.597 49.7842 134.15 48.5039 133.622 47.2662C132.81 45.3775 131.134 44.5475 129.249 44.1726C127.667 43.8606 126.074 43.514 124.43 43.5769C123.124 43.6357 122.066 42.8522 121.152 42.0456C118.943 40.0921 117.188 37.8187 116.6 34.8124C116.224 32.9289 115.421 31.2634 114.132 29.8138C112.36 27.8084 108.746 27.0702 106.627 28.3611C106.097 28.6838 105.717 29.1323 105.459 29.6769C105.214 30.1991 105.212 30.6506 105.667 31.0452C107.073 31.7277 108.373 32.4976 108.094 34.4018C107.785 36.4649 108.316 38.3601 109.274 40.1686C109.866 40.7114 110.493 41.2441 111.037 41.8193C112.071 42.9106 112.116 43.7811 111.317 45.0653C110.813 45.8692 110.154 46.5299 109.541 47.2153C108.952 47.8558 108.485 48.5925 108.609 49.4776C108.835 51.1038 109.27 52.6695 110.673 53.7291C111.519 54.3673 111.984 55.191 112.114 56.2249C112.36 57.9205 112.951 59.4407 114.073 60.7697C115.408 62.3754 116.379 62.3382 117.593 60.5954C118.159 59.6796 119.047 59.1591 120.216 59.3466Z" fill="#423977"/>
<path d="M120.294 59.324C119.13 59.135 118.247 59.6542 117.606 60.5543C116.395 62.2774 115.45 62.3256 114.102 60.7238C112.984 59.3938 112.393 57.8734 112.146 56.1781C111.728 56.4872 111.227 56.5759 110.732 56.6819C109.666 56.8968 108.949 57.5368 108.422 58.4415C107.999 61.3272 109.041 64.0139 109.693 66.7194C110.779 71.1791 112.566 75.398 114.753 79.4444C115.58 78.9229 116.567 78.9564 117.463 78.6777C117.016 77.1345 115.967 75.7844 115.763 74.1708C115.397 71.2881 114.283 68.5471 114.314 65.6059C114.332 64.4353 114.605 63.3034 114.532 62.1407C114.774 62.0703 114.807 62.2487 114.877 62.3601C117.361 66.1325 120.515 69.1658 124.661 71.0844C124.924 71.2149 125.18 71.385 125.431 71.5378C125.791 70.8322 126.342 70.3341 127.09 70.061C125.833 68.7712 124.575 67.4815 123.597 65.9229C122.327 63.8099 121.057 61.6969 120.294 59.324Z" fill="#418E89"/>
<path d="M108.434 58.4189C108.962 57.5142 109.678 56.8742 110.744 56.6593C111.222 56.5583 111.74 56.4646 112.158 56.1555C112.028 55.1219 111.581 54.2929 110.72 53.6588C109.322 52.5977 108.87 51.0371 108.661 49.4062C108.536 48.5213 109.017 47.7805 109.585 47.146C110.212 46.4567 110.861 45.7797 111.35 44.9992C112.143 43.7166 112.098 42.8463 111.067 41.7541C110.519 41.161 109.9 40.6451 109.31 40.1017C108.88 39.9818 108.468 39.8569 108.039 39.737C106.421 40.187 104.766 40.4413 103.163 40.9433C102.677 41.084 102.082 40.9747 101.566 40.8799C99.8187 40.5592 97.9641 40.6456 96.4025 39.538C96.052 39.3013 95.6768 39.1093 95.5165 38.6858C95.2928 38.5627 95.0742 38.4568 94.8505 38.3337C94.5698 38.2083 94.2947 38.2317 94.0373 38.3814C93.6194 38.6905 92.9431 38.8865 93.3527 39.6512C93.8789 41.0776 94.8152 42.1032 96.1991 42.7924C98.8377 44.1141 101.672 44.6836 104.509 45.3276C104.712 45.3814 104.928 45.4128 105.127 45.4493C106.087 45.5845 106.401 46.0198 106.502 47.0808C106.723 49.1407 106.81 51.2582 107.445 53.2546C107.689 54.0298 107.711 54.7564 107.446 55.5286C107.208 56.1991 107.157 56.9283 107.385 57.6516C107.58 58.1964 107.842 58.5153 108.434 58.4189Z" fill="#8071A4"/>
<path d="M108.044 39.7546C108.473 39.8745 108.886 39.9994 109.315 40.1193C108.376 38.3051 107.828 36.415 108.133 34.3531C108.408 32.45 107.118 31.696 105.712 30.9946C105.706 32.0113 105.66 33.0208 104.969 33.879C104.621 34.2994 104.573 34.7832 104.959 35.2727C105.328 35.7673 105.378 36.392 105.526 36.9693C105.68 37.5639 106.048 37.7956 106.611 37.8579C107.913 38.0068 107.913 38.0067 107.975 39.3233C107.976 39.4548 108.021 39.6108 108.044 39.7546Z" fill="#CECDCE"/>
<path d="M117.476 78.6553C116.574 78.9167 115.592 78.9005 114.766 79.422C114.138 79.9798 113.408 80.3794 112.678 80.7789C112.123 81.0711 111.959 81.476 112.179 82.1075C112.405 82.7564 112.799 82.6235 113.309 82.5695C114.831 82.3727 116.286 82.0077 117.487 80.9641C118.394 80.1373 118.401 79.5148 117.476 78.6553Z" fill="#3D3C3F"/>
<path d="M127.124 70.0508C126.377 70.324 125.82 70.8047 125.466 71.5277C125.535 72.8045 125.215 74.1002 125.617 75.356C125.722 75.7202 125.784 76.1911 126.221 76.2713C126.675 76.3464 126.986 75.9931 127.267 75.6672C128.131 74.6273 128.422 71.4793 127.8 70.3062C127.608 69.9672 127.39 69.9928 127.124 70.0508Z" fill="#3D3C3F"/>
<path d="M93.375 39.6638C92.9828 38.894 93.6467 38.7204 94.0596 38.394C93.9541 38.0298 93.8955 37.6333 93.7553 37.2792C93.6151 36.9251 93.4179 36.5687 93.1837 36.2795C92.7751 35.7776 91.6058 35.4398 91.3416 35.7607C90.895 36.36 91.0933 36.9793 91.4526 37.5706C91.7846 38.1323 92.3935 38.4821 92.5375 39.1734C92.7438 39.3016 92.9551 39.4471 93.1788 39.5703C93.2285 39.6122 93.2956 39.6492 93.375 39.6638Z" fill="#CECDCE"/>
<path d="M51.593 58.895C51.1397 57.949 50.4754 58.2511 49.4277 57.9479C48.9579 57.8072 48.4478 56.6705 48.0552 56.3274C48.2698 55.3079 48.7843 54.5187 49.6961 53.9585C51.1798 53.0175 51.7591 51.4994 52.1015 49.891C52.2984 49.0193 51.8783 48.2406 51.3622 47.5605C50.7914 46.8209 50.1972 46.0918 49.7729 45.2728C49.0841 43.9278 49.2005 43.064 50.3199 42.0613C50.9159 41.5158 51.5772 41.0532 52.211 40.5608C52.6501 40.4772 53.0723 40.3871 53.5113 40.3034C55.0917 40.8872 56.726 41.279 58.287 41.9134C58.7609 42.0943 59.3652 42.035 59.8889 41.9837C61.6614 41.8099 63.5083 42.051 65.1595 41.0773C65.5293 40.8706 65.92 40.7105 66.1147 40.3018C66.3483 40.1977 66.5755 40.1105 66.8091 40.0064C67.1 39.9048 67.3731 39.9511 67.6182 40.1219C68.0107 40.4649 68.6708 40.7168 68.199 41.445C67.5567 42.8231 66.5372 43.7673 65.0976 44.3387C62.3522 45.4359 59.4727 45.7669 56.5843 46.1718C56.3764 46.2085 56.1581 46.2217 55.9567 46.2415C54.9858 46.2961 54.6363 46.7038 54.4491 47.7531C54.0602 49.7883 53.8002 51.8919 53.0028 53.8291C52.6962 54.5817 52.6144 55.3041 52.8162 56.0961C52.9995 56.7844 52.9918 57.5158 52.7045 58.2177C52.4647 58.7446 52.1772 59.0406 51.593 58.895Z" fill="#8071A4"/>
<path d="M40.1267 58.9837C39.4027 59.2098 38.5729 59.1056 38.0214 59.842C37.785 60.1576 37.4654 59.881 37.2936 59.6223C36.4701 58.4384 35.278 58.1187 33.9082 58.2143C32.3207 58.3234 31.8462 57.7945 32.1026 56.2112C32.2034 55.5927 32.4119 54.9959 32.5295 54.3838C32.7817 53.166 32.3501 52.1704 31.4393 51.8228C30.0224 51.2821 29.0614 51.5723 28.3425 52.7473C28.1889 52.9978 28.1967 53.4839 27.7532 53.4306C27.4006 53.3926 27.2739 53.0157 27.115 52.7232C26.6134 51.7589 26.4461 50.7288 26.5432 49.6644C26.6589 48.298 27.2091 47.0587 27.8373 45.8684C28.8008 44.0526 30.5333 43.3611 32.4342 43.1397C34.0306 42.9567 35.6399 42.7399 37.2658 42.9353C38.5559 43.0992 39.6714 42.4041 40.6456 41.6744C43.0013 39.9068 44.9323 37.7838 45.7672 34.8368C46.2977 32.9909 47.2346 31.3968 48.6348 30.0568C50.56 28.2021 54.2076 27.7584 56.2023 29.2153C56.701 29.5796 57.0406 30.057 57.2507 30.6203C57.4504 31.1603 57.414 31.6101 56.9302 31.9665C55.4773 32.5329 54.1232 33.1948 54.241 35.1142C54.3747 37.1942 53.6899 39.0391 52.5875 40.7633C51.9549 41.2562 51.2887 41.7362 50.7003 42.2653C49.583 43.2689 49.466 44.1324 50.1513 45.4761C50.5838 46.3175 51.1819 47.0288 51.7333 47.761C52.264 48.4466 52.6652 49.2181 52.4678 50.0896C52.1078 51.6913 51.5453 53.2158 50.0649 54.1581C49.172 54.7255 48.6413 55.5085 48.4262 56.5279C48.0404 58.197 47.3262 59.6636 46.1019 60.8968C44.6437 62.3886 43.6415 62.3339 42.5829 60.5C42.0983 59.5421 41.3021 58.8912 40.1267 58.9837Z" fill="#423977"/>
</svg>
