<svg width="32" height="32" viewBox="0 0 32 32" fill="none" xmlns="http://www.w3.org/2000/svg">
<path d="M13.9861 14.1893H15.7049C16.5233 14.1893 17.1297 13.9847 17.5241 13.5755C17.9184 13.1663 18.1156 12.6231 18.1156 11.946C18.1156 11.2913 17.9184 10.7816 17.5241 10.417C17.1372 10.0524 16.6015 9.87015 15.9169 9.87015C15.2994 9.87015 14.7823 10.0413 14.3656 10.3835C13.9489 10.7184 13.7406 11.1574 13.7406 11.7005H10.5152C10.5152 10.8523 10.7421 10.0934 11.196 9.42372C11.6573 8.74664 12.2971 8.21837 13.1156 7.8389C13.9415 7.45944 14.8492 7.26971 15.8388 7.26971C17.5576 7.26971 18.9043 7.68265 19.879 8.50854C20.8537 9.327 21.341 10.4579 21.341 11.9014C21.341 12.6454 21.1141 13.33 20.6602 13.955C20.2064 14.58 19.6111 15.0599 18.8745 15.3947C19.7897 15.7221 20.4705 16.2132 20.9169 16.8679C21.3708 17.5227 21.5977 18.2965 21.5977 19.1893C21.5977 20.6328 21.0695 21.7898 20.0129 22.6603C18.9638 23.5309 17.5724 23.9661 15.8388 23.9661C14.2168 23.9661 12.8887 23.5383 11.8544 22.6827C10.8277 21.827 10.3143 20.696 10.3143 19.2898H13.5397C13.5397 19.8999 13.7666 20.3984 14.2205 20.7853C14.6818 21.1722 15.2473 21.3657 15.9169 21.3657C16.6833 21.3657 17.2823 21.1648 17.7138 20.763C18.1528 20.3538 18.3723 19.8143 18.3723 19.1447C18.3723 17.5227 17.4794 16.7117 15.6937 16.7117H13.9861V14.1893Z" fill="#423977"/>
<circle cx="16" cy="16" r="14.6286" stroke="#423977" stroke-width="2.74286"/>
</svg>
