<svg width="32" height="32" viewBox="0 0 32 32" fill="none" xmlns="http://www.w3.org/2000/svg">
<path d="M21.8433 23.7429H10.7049V21.5331L15.9616 15.9304C16.6833 15.1417 17.2153 14.4535 17.5576 13.8657C17.9073 13.2779 18.0821 12.7199 18.0821 12.1916C18.0821 11.4699 17.8998 10.9044 17.5352 10.4952C17.1707 10.0785 16.6498 9.87015 15.9727 9.87015C15.2436 9.87015 14.6669 10.1231 14.2428 10.6291C13.8262 11.1276 13.6178 11.7861 13.6178 12.6045H10.3812C10.3812 11.6149 10.6156 10.7109 11.0844 9.89247C11.5605 9.07402 12.2302 8.43414 13.0933 7.97283C13.9564 7.50408 14.9348 7.26971 16.0285 7.26971C17.7027 7.26971 19.001 7.67149 19.9236 8.47506C20.8537 9.27863 21.3187 10.4133 21.3187 11.8791C21.3187 12.6827 21.1104 13.5011 20.6937 14.3344C20.2771 15.1678 19.5628 16.1388 18.5509 17.2474L14.8567 21.1425H21.8433V23.7429Z" fill="#423977"/>
<circle cx="16" cy="16" r="14.6286" stroke="#423977" stroke-width="2.74286"/>
</svg>
