<svg width="500" height="64" viewBox="0 0 500 64" fill="none" xmlns="http://www.w3.org/2000/svg">
<g filter="url(#filter0_d)">
<path d="M219.4 8H-1V2H500V8H278.6C274.5 8.1 275.4 8.2 271.3 8.3C269.7 8.3 268.2 8.89999 266.7 9.39999C265.3 9.99999 264.3 10.8 263.8 11.9C263.3 13 263.2 14.3 263.7 15.8C264.2 17.6 265.1 19.2 265.9 20.8C266 21 266 21.1 266.1 21.2C269.6 27.9 270.7 34.9 268.4 42.2C265.2 52.9 254 59.3 242.7 57C231.8 54.8 224.1 44.3 225.1 33.3C225.5 28.3 226.9 23.7 229.5 19.4C231.3 16.5 231.7 14 230.7 12C229.8 10 227.5 8.79999 224.1 8.39999C222.6 8.2 221 8.10001 219.4 8.00001L219.4 8Z" fill="#EDE7F2"/>
</g>
<rect y="1" width="500" height="6" fill="#EDE7F2"/>
<defs>
<filter id="filter0_d" x="-5" y="0" width="509" height="63.4667" filterUnits="userSpaceOnUse" color-interpolation-filters="sRGB">
<feFlood flood-opacity="0" result="BackgroundImageFix"/>
<feColorMatrix in="SourceAlpha" type="matrix" values="0 0 0 0 0 0 0 0 0 0 0 0 0 0 0 0 0 0 127 0"/>
<feOffset dy="2"/>
<feGaussianBlur stdDeviation="2"/>
<feColorMatrix type="matrix" values="0 0 0 0 0.501961 0 0 0 0 0.443137 0 0 0 0 0.643137 0 0 0 1 0"/>
<feBlend mode="normal" in2="BackgroundImageFix" result="effect1_dropShadow"/>
<feBlend mode="normal" in="SourceGraphic" in2="effect1_dropShadow" result="shape"/>
</filter>
</defs>
</svg>