<svg width="131" height="81" viewBox="0 0 131 81" fill="none" xmlns="http://www.w3.org/2000/svg">
<path d="M26.5931 75.2556C34.9396 75.5814 43.2763 75.2359 51.6179 75.0966L102.364 73.8193C108.64 74.7391 114.951 74.4304 121.248 74.2912C123.167 74.2487 124.689 73.0072 125.79 71.2617C127.804 68.071 128.004 64.4151 128.917 60.928C130.576 54.6023 126.254 48.073 122.243 45.6201C120.861 44.7735 119.382 44.0628 118.066 43.1202C114.647 40.6686 112.225 37.6909 113.02 33.1104C113.649 29.4733 114.143 25.8179 114.947 22.2079C116.713 14.2827 114.268 8.55931 107.594 4.44713C106.074 3.50937 104.435 3.10344 102.728 3.45251C99.6974 4.06778 96.5054 4.06188 93.7398 5.75278C92.8042 6.32428 91.685 6.37131 90.5828 6.37413C84.9781 6.38675 79.916 4.09117 74.6776 2.61762C72.0564 1.88082 69.5173 1.11296 66.7551 1.03702C62.9401 0.932337 59.1833 1.54018 55.4013 1.67457C45.6074 2.02136 38.4599 7.19306 32.1664 13.8621C28.6337 17.603 27.87 22.5398 26.9442 27.4054C25.4484 35.2782 21.8504 41.6017 13.5411 44.3493C5.41238 47.0351 0.823732 52.5019 0.236841 61.2382C-0.0465612 65.4872 1.32116 68.8323 4.14794 71.8042L4.16484 71.8221C5.33158 73.0558 6.50124 74.2925 8.30548 74.5141C10.1184 74.7368 11.9439 74.9435 13.7676 75.0006C18.0434 75.1328 22.3219 75.0911 26.5931 75.2556Z" fill="#EDE7F2"/>
<path d="M119.244 73.2096C119.106 73.7402 118.999 74.2432 118.86 74.7739C118.188 77.8193 117.07 78.1905 113.722 77.683C108.51 76.9232 105.483 73.4655 102.458 69.9478C100.976 68.2212 99.1719 66.712 98.0793 64.5926C96.9963 68.9902 96.1037 73.3713 93.5767 77.1561C93.0711 77.0902 92.7588 76.8879 92.5166 76.3903C92.0935 75.4894 91.5424 74.6396 91.0243 73.732C90.8692 69.4268 91.314 65.2242 92.3276 61.0919C92.7113 59.5576 93.1893 58.06 93.7615 56.599C94.3695 54.9605 95.3607 54.5803 97.0874 55.3032C98.186 55.7715 99.2165 56.4451 100.281 57.031C101.624 57.907 102.966 58.7829 104.278 59.6566C106.048 61.2235 107.721 62.9036 109.916 63.96C112.658 66.0162 115.108 68.3819 117.72 70.579C118.684 71.3981 119.078 72.1768 119.244 73.2096Z" fill="#418E89"/>
<path d="M103.634 59.5597C102.279 58.6713 100.925 57.7829 99.6024 56.8968C99.3649 54.6871 98.5495 52.5885 98.3439 50.3811C98.2946 49.738 98.2134 49.0927 98.2605 48.426C99.4012 48.8728 100.536 49.5628 101.83 48.9241C101.924 48.9917 102.018 49.0593 102.112 49.1574C101.962 50.1213 102.776 50.8797 102.98 51.747C103.097 52.2426 103.207 53.0119 103.976 52.9448C104.585 52.8664 104.885 52.3396 104.804 51.6943C104.997 51.6471 105.284 51.6676 105.383 51.5224C107.037 49.082 109.786 47.6943 111.691 45.4545C114.101 44.9258 116.599 44.708 118.768 43.5225C119.585 45.5603 120.692 47.497 121.025 49.7135C121.134 50.5436 121.052 51.3296 121.13 52.127C121.206 52.9852 121.301 52.8173 121.314 53.5026C121.472 54.3883 121.565 56.5435 121.219 59.8514C121.132 60.6845 120.938 61.9503 120.896 62.4042C120.735 65.2555 120.287 68.0863 120.35 70.9536C120.388 72.0832 120.11 73.0684 118.731 73.2746C118.563 72.2271 118.165 71.4374 117.224 70.6394C114.589 68.4112 112.119 66.0118 109.353 63.9265C111.327 61.448 111.376 59.2892 109.508 57.1155C109.331 56.433 110.103 54.8434 108.263 55.5955C107.134 56.0632 106.093 56.8721 105.617 58.0869C104.624 58.1988 103.88 58.5722 103.634 59.5597Z" fill="#8071A4"/>
<path d="M119.264 43.62C117.08 44.8482 114.564 45.1196 112.138 45.687C110.882 45.7263 109.594 45.7633 108.339 45.7705C107.502 45.7753 106.766 45.5621 106.303 44.7246C105.839 43.8872 106.492 43.4831 106.859 42.93C107.459 42.0074 108.027 41.0825 108.085 39.9282C108.239 38.8129 108.264 37.7206 108 36.6077C107.239 33.2714 106.604 32.9044 104.161 32.7948C101.521 31.4163 101.192 27.4993 103.453 25.7295C108.531 21.7469 113.653 24.3639 116.974 28.3009C118.885 30.5928 120.015 33.2476 121.176 35.9688C122.703 39.585 121.594 41.6299 119.264 43.62Z" fill="#423977"/>
<path d="M90.9856 73.4044C91.4714 74.2726 92.021 75.1155 92.4738 76.0409C92.7153 76.5345 93.0268 76.7351 93.531 76.8005C93.6025 77.8181 93.0907 78.0799 92.0836 77.8897C90.9502 77.6907 89.7833 77.5787 88.6506 77.3499C86.9513 77.0216 85.4687 75.5173 85.1255 73.9443C84.8696 72.7052 85.9631 71.8888 87.5691 72.1509C88.7971 72.3566 89.9236 72.853 90.9856 73.4044Z" fill="#3D3C3F"/>
<path d="M102.589 49.1766C102.495 49.1089 102.4 49.0413 102.306 48.9432C101.647 47.007 100.467 45.4299 98.8331 44.1555C98.2166 43.1366 97.5682 42.1153 96.9836 41.0986C96.7073 40.5914 96.0825 39.9374 96.8593 39.5357C97.5715 39.1599 98.0352 39.8633 98.4087 40.3165C99.3105 41.4473 100.147 42.6343 101.016 43.7932C101.438 44.9506 101.503 46.2959 102.994 46.8288C103.173 47.39 103.321 47.9186 103.5 48.4798C103.394 48.9293 103.131 49.2457 102.589 49.1766Z" fill="white"/>
<path d="M104.195 32.8243C106.633 32.9675 107.268 33.3187 108.032 36.4632C108.297 37.5223 108.273 38.5609 108.121 39.6208C106.845 38.9148 105.716 38.5537 105.317 37.3308C105.206 37.1383 104.911 37.1453 104.84 36.9117C104.757 36.6402 105.02 36.1823 105.005 35.7524C104.957 35.0452 104.371 33.5711 104.195 32.8243Z" fill="#CECDCE"/>
<path d="M98.7842 44.2082C100.414 45.5102 101.592 47.084 102.251 48.9857C100.991 49.6258 99.8577 48.9369 98.6869 48.4886C98.1776 47.0232 97.9232 45.5759 98.7842 44.2082Z" fill="#CECDCE"/>
<path d="M102.374 49.1903C102.919 49.2292 103.183 48.9419 103.29 48.4905C104.396 49.3344 104.169 50.8179 105.08 51.7397C105.162 52.3883 104.86 52.9482 104.248 52.9965C103.474 53.0944 103.364 52.2908 103.247 51.7927C103.042 50.9212 102.222 50.1895 102.374 49.1903Z" fill="#CECDCE"/>
<path d="M102.934 46.7818C101.407 46.2453 101.341 44.8966 100.951 43.7385C102.025 43.0209 102.392 43.8107 102.791 44.6028C103.191 45.3339 103.239 46.0399 102.934 46.7818Z" fill="#CECDCE"/>
<path d="M109.555 57.1764C109.104 57.4166 108.809 57.8191 108.514 58.1913C107.468 59.4478 107.054 59.4486 105.684 58.1715C106.157 56.965 107.193 56.1615 108.317 55.6969C110.147 54.9197 109.348 56.4962 109.555 57.1764Z" fill="#CECDCE"/>
<path d="M48.6056 24.0187C59.5057 28.5537 79.3487 39.9872 71.5198 49.4419C61.7336 61.2602 46.8895 55.5792 43.9958 48.2536C41.102 40.9279 55.6874 30.9373 86.9302 49.0306" stroke="#423977" stroke-width="1.09789" stroke-dasharray="3.66 3.66"/>
<path d="M32.2895 23.168C33.415 23.0481 34.5389 22.9259 35.6644 22.81C36.0028 22.7749 36.0039 22.7832 35.9477 23.1261C35.9242 23.2718 36.0519 23.3154 36.1294 23.3826C37.2932 24.3945 38.4598 25.403 39.6264 26.4115C40.409 27.088 41.19 27.7662 41.9799 28.4333C42.1989 28.6184 42.3736 28.8062 42.1993 29.0946C42.0215 29.3893 41.9208 29.7612 41.4187 29.6944C39.9892 29.5044 38.5547 29.3528 37.122 29.1803C36.2137 29.0707 35.306 28.9501 34.3983 28.8335C34.2381 28.7984 34.0796 28.7516 33.9174 28.7292C31.9905 28.4655 30.0618 28.2095 28.1344 27.9436C26.984 27.7845 25.8355 27.6086 24.6846 27.4473C23.1138 27.2277 21.5408 27.0178 19.9701 26.7982C18.5782 26.604 17.1855 26.4085 15.7958 26.1965C15.4861 26.1492 15.1359 26.1653 14.9451 25.8022C14.8471 25.6165 14.6608 25.7295 14.5108 25.779C14.1746 25.8218 14.2164 25.5354 14.1539 25.354C14.0878 25.1627 14.2196 25.0652 14.3664 24.9651C16.3723 23.5992 18.3749 22.2304 20.372 20.8553C21.6559 19.9712 22.9267 19.0698 24.2114 18.187C25.1392 17.549 26.084 16.9375 27.0111 16.2984C27.197 16.1701 27.4484 16.0868 27.4661 15.7733C27.4749 15.613 27.6484 15.5792 27.8163 15.5866C28.1258 15.6004 28.3807 15.72 28.627 15.9014C30.0797 16.9709 31.5372 18.0334 32.9944 19.0969C33.5249 19.484 33.5274 19.512 33.1361 20.0635C33.0519 20.1825 32.9921 20.3185 32.921 20.4467C32.8013 20.2883 32.6622 20.3008 32.4845 20.356C30.5567 20.9498 28.6256 21.5357 26.6948 22.1206C23.8995 22.9667 21.1051 23.809 18.3116 24.6556C17.9943 24.7516 17.6831 24.8683 17.3692 24.9753C17.4506 25.0729 17.5139 25.093 17.5725 25.0856C19.2792 24.8574 20.9844 24.6187 22.6915 24.3977C25.891 23.9828 29.0904 23.577 32.2895 23.168ZM16.9468 25.1286C16.9423 25.1174 16.9424 25.1001 16.9344 25.0952C16.9238 25.0886 16.908 25.0909 16.8941 25.0896C16.8993 25.1061 16.9033 25.1233 16.9086 25.1398C16.9215 25.1367 16.9346 25.1328 16.9468 25.1286ZM17.1495 25.0662L17.1735 25.0891L17.1826 25.0639L17.1495 25.0662Z" fill="#423977"/>
<path d="M14.5132 25.7796C14.6631 25.73 14.8497 25.6161 14.9474 25.8027C15.1383 26.1659 15.4884 26.1497 15.7981 26.1971C17.1878 26.4091 18.5805 26.6045 19.9724 26.7988C21.5431 27.0183 23.1162 27.2283 24.6869 27.4478C25.8369 27.6089 26.9853 27.7848 28.1367 27.9441C30.0641 28.21 31.9918 28.4658 33.9197 28.7298C34.0819 28.7521 34.2404 28.799 34.4006 28.8341C34.1907 29.7119 33.9836 30.5904 33.7711 31.4665C33.6729 31.8705 33.4871 32.1003 33.0044 31.9479C31.1768 31.3738 29.3397 30.827 27.5093 30.2604C26.0403 29.8052 24.5764 29.3329 23.1093 28.87C21.0339 28.2147 18.9585 27.5593 16.8822 26.9078C16.3983 26.7561 15.9154 26.5874 15.4203 26.4827C14.9863 26.3906 14.6883 26.1786 14.5132 25.7796Z" fill="#9D98B9"/>
<path d="M32.2899 23.1681C29.0906 23.578 25.8914 23.9828 22.6929 24.398C20.9856 24.62 19.2806 24.8577 17.5738 25.0859C17.515 25.0942 17.4519 25.0732 17.3706 24.9756C17.6845 24.8686 17.9956 24.7519 18.313 24.6559C21.1064 23.8093 23.9008 22.967 26.6942 22.1205C28.6251 21.5355 30.5551 20.9494 32.4839 20.3558C32.6616 20.3007 32.8017 20.2883 32.9204 20.4465C32.9028 20.5164 32.8851 20.5863 32.8675 20.6562C32.791 20.6999 32.7812 20.7585 32.828 20.8305C32.7399 21.5333 32.429 22.1699 32.2366 22.8417C32.2009 22.9662 32.1064 23.0858 32.2899 23.1681Z" fill="#9D98B9"/>
</svg>
