<svg width="38" height="51" viewBox="0 0 38 51" fill="none" xmlns="http://www.w3.org/2000/svg">
<path d="M21.5493 30.5899C23.9093 28.669 26.2555 26.7594 28.6128 24.8407C30.5318 27.1984 32.4508 29.5561 34.3788 31.9249C34.3339 31.966 34.2891 32.0072 34.2448 32.0432C33.4692 32.6745 32.6941 33.3007 31.923 33.9376C31.7873 34.0481 31.6867 34.0376 31.5635 33.9485C31.3363 33.7826 31.2738 33.5473 31.2796 33.2886C31.2901 32.8092 31.147 32.3901 30.8308 32.0242C30.2413 31.3452 29.1771 31.2372 28.4532 31.7849C27.7321 32.3303 27.5438 33.3607 28.0185 34.1193C28.3054 34.5737 28.7156 34.84 29.2392 34.9401C29.5384 34.9966 29.7815 35.1312 29.8611 35.4496C29.8778 35.5098 29.8498 35.6112 29.8055 35.6472C28.9984 36.3134 28.1845 36.9712 27.3729 37.6318C27.359 37.643 27.3434 37.6465 27.3062 37.663C27.2655 37.613 27.2203 37.5574 27.1773 37.5047C26.5603 36.7465 25.9432 35.9884 25.3262 35.2303C25.0776 34.9248 24.7991 34.8883 24.4658 35.118C24.1873 35.3077 24.0599 35.5869 23.9994 35.9085C23.8246 36.831 22.8341 37.351 21.9805 36.97C21.3508 36.6885 21.0086 36.0021 21.1594 35.3161C21.3022 34.6598 21.8939 34.1874 22.5796 34.1925C22.8868 34.1964 23.1756 34.1553 23.4103 33.9457C23.4944 33.868 23.5728 33.7719 23.6288 33.671C23.7513 33.4651 23.7473 33.2791 23.575 33.073C22.9283 32.3068 22.3059 31.5252 21.6731 30.7476C21.6374 30.6982 21.5967 30.6482 21.5493 30.5899Z" fill="#423977"/>
<path d="M31.5936 22.8942C30.1484 21.5062 28.7118 20.1264 27.2683 18.7401C28.6549 17.2964 30.0414 15.8526 31.4345 14.4021C31.465 14.4281 31.4955 14.4541 31.5226 14.4802C31.9976 14.9363 32.4692 15.3925 32.9474 15.8453C33.0305 15.9251 33.0317 15.9917 32.9834 16.0793C32.8932 16.2411 32.7445 16.3009 32.5749 16.3179C32.2608 16.3496 31.9984 16.4768 31.7847 16.7129C31.3883 17.1528 31.4033 17.8569 31.8195 18.286C32.2339 18.7135 32.9225 18.7537 33.3801 18.3824C33.6539 18.1584 33.795 17.8689 33.8184 17.5187C33.8312 17.3185 33.8996 17.1489 34.1013 17.0712C34.1393 17.0554 34.2078 17.0656 34.235 17.0917C34.7352 17.5656 35.2306 18.0446 35.7275 18.5219C35.736 18.5301 35.7395 18.54 35.7533 18.563C35.7239 18.5936 35.6912 18.6276 35.6602 18.6599C35.2144 19.1242 34.7685 19.5884 34.3226 20.0526C34.143 20.2397 34.1415 20.4246 34.3185 20.624C34.4648 20.7907 34.6575 20.8515 34.8726 20.8652C35.4895 20.9053 35.909 21.5109 35.7286 22.0993C35.5953 22.5335 35.1742 22.8123 34.7138 22.7689C34.2734 22.7284 33.917 22.3797 33.8652 21.9311C33.8431 21.7301 33.793 21.5446 33.6372 21.408C33.5796 21.3593 33.5105 21.3158 33.44 21.2874C33.2956 21.2238 33.1744 21.2414 33.0536 21.3706C32.6048 21.8549 32.144 22.3244 31.6867 22.8006C31.6573 22.8278 31.6279 22.8585 31.5936 22.8942Z" fill="#423977"/>
<path d="M30.8505 7.29034C29.6951 6.18065 28.5464 5.07748 27.3924 3.9691C28.5009 2.81484 29.6095 1.66057 30.7233 0.500863C30.7477 0.521645 30.772 0.542427 30.7937 0.563266C31.1735 0.927951 31.5505 1.29269 31.9328 1.65466C31.9993 1.71848 32.0003 1.77172 31.9617 1.84179C31.8896 1.97116 31.7706 2.01899 31.6351 2.03255C31.3839 2.05791 31.1741 2.15961 31.0033 2.34837C30.6864 2.70003 30.6984 3.26302 31.0311 3.60608C31.3624 3.94783 31.9129 3.97996 32.2788 3.68317C32.4978 3.50403 32.6106 3.27259 32.6292 2.99256C32.6395 2.83256 32.6942 2.6969 32.8555 2.63485C32.8858 2.62221 32.9406 2.63036 32.9623 2.6512C33.3622 3.0301 33.7583 3.41307 34.1556 3.79469C34.1624 3.8012 34.1652 3.80913 34.1762 3.82754C34.1527 3.85201 34.1266 3.8792 34.1018 3.90503C33.7453 4.27619 33.3889 4.64735 33.0324 5.01851C32.8888 5.16806 32.8876 5.31589 33.029 5.4753C33.1461 5.60861 33.3001 5.65723 33.4721 5.66819C33.9653 5.70022 34.3007 6.18436 34.1565 6.65483C34.0499 7.00198 33.7133 7.22492 33.3451 7.19021C32.993 7.15782 32.7081 6.87898 32.6667 6.52035C32.649 6.35961 32.6089 6.21134 32.4844 6.10216C32.4383 6.0632 32.3831 6.02844 32.3267 6.00568C32.2113 5.95489 32.1143 5.96896 32.0178 6.07223C31.6589 6.45942 31.2906 6.83483 30.925 7.2155C30.9014 7.23731 30.8779 7.26179 30.8505 7.29034Z" fill="#423977"/>
<path d="M17.5613 38.645C17.4712 38.7314 17.4019 38.7979 17.3327 38.8644C16.3872 39.7721 15.4416 40.6798 14.4961 41.5875C14.1325 41.9367 14.1042 42.2816 14.4027 42.6826C14.6787 43.0533 15.0626 43.2036 15.5171 43.2473C16.911 43.375 17.6812 44.9122 16.9606 46.1165C16.5275 46.8371 15.687 47.2094 14.8777 47.0458C14.0518 46.8788 13.4772 46.211 13.3847 45.3658C13.351 45.0673 13.2774 44.7618 13.152 44.4995C13.0642 44.3179 12.8714 44.1656 12.694 44.0571C12.3158 43.8364 12.1165 43.8785 11.791 44.191C10.8385 45.1054 9.88956 46.0164 8.93712 46.9308C8.86785 46.9973 8.80204 47.0605 8.72239 47.1369C5.9583 44.2577 3.21042 41.3954 0.456055 38.5264C3.39996 35.7002 6.33694 32.8806 9.28778 30.0477C9.35281 30.1085 9.41136 30.1626 9.46321 30.2166C10.3705 31.1617 11.2711 32.1068 12.1854 33.0452C12.3442 33.2106 12.3397 33.3446 12.2267 33.518C12.0176 33.8549 11.6927 33.9463 11.3328 33.9804C10.3339 34.0768 9.61278 34.5874 9.25285 35.5297C8.90398 36.4419 9.07376 37.2843 9.74844 37.9663C10.4166 38.6415 11.2488 38.822 12.1581 38.5004C13.0842 38.1757 13.6032 37.4893 13.7458 36.5286C13.7935 36.2039 13.8738 35.9063 14.1424 35.6938C14.3972 35.4947 14.531 35.5024 14.7449 35.7252C15.6133 36.6298 16.4818 37.5344 17.3502 38.439C17.4187 38.4964 17.4835 38.5639 17.5613 38.645Z" fill="#423977"/>
</svg>
