<svg width="198" height="173" viewBox="0 0 198 173" fill="none" xmlns="http://www.w3.org/2000/svg">
<path d="M66.5181 48.734C71.7633 46.3288 76.8953 44.0145 81.9658 41.6504C87.0535 39.2395 92.0944 36.811 97.1378 34.3034C97.9546 33.8899 98.6532 33.2188 99.3199 32.5623C100.525 31.308 100.587 29.8378 99.3832 28.4797C98.6056 27.6281 97.6509 26.8966 96.7429 26.1826C93.1109 23.3269 90.7311 19.741 90.1497 15.0966C89.2407 8.30287 93.8209 1.91521 100.68 0.328878C107.286 -1.21922 114.277 2.62989 116.507 9.01271C117.521 11.8996 117.92 14.7957 117.574 17.8388C117.087 21.8426 119.27 23.648 123.125 22.3479C125.849 21.4498 128.486 20.2794 131.091 19.1236C138.302 15.856 145.483 12.524 152.648 9.23885C153.223 8.97487 153.799 8.71088 154.439 8.41756C154.682 8.69561 154.914 8.86237 155.032 9.12001C159.472 18.9717 163.865 28.8058 168.273 38.6721C168.391 38.9298 168.524 39.2196 168.611 39.4919C169.255 41.5737 168.992 41.9282 166.839 41.7072C161.606 41.1838 156.826 42.3235 152.599 45.4308C147.34 49.3238 144.998 56.7114 146.919 62.9246C149.041 69.7468 154.806 74.4695 161.607 74.7809C168.769 75.1214 173.999 71.6707 178.065 66.1034C179.332 64.3922 179.932 64.3508 180.865 66.3006C185.692 76.4038 190.39 86.5658 195.121 96.713C195.165 96.8096 195.113 96.9502 195.103 97.2665C194.624 97.4865 194.048 97.7505 193.472 98.0145C185.221 101.798 176.969 105.582 168.732 109.398C166.877 110.249 165.035 111.211 163.436 112.451C160.69 114.567 160.792 116.898 163.71 118.873C166.289 120.614 168.412 122.797 169.889 125.511C172.618 130.534 172.447 135.563 169.229 140.195C166.16 144.643 161.652 146.632 156.254 145.833C150.573 145.008 146.705 141.637 145.063 136.115C144.322 133.571 144.171 130.794 144.269 128.138C144.382 123.994 142.312 122.098 138.479 123.7C131.773 126.463 125.17 129.452 118.552 132.409C114.827 134.078 111.1 135.826 107.422 137.513C105.017 134.717 92.8806 106.646 93.0968 104.248C94.8141 104.279 96.5586 104.453 98.2808 104.326C105.659 103.788 111.352 100.671 114.395 93.546C116.81 87.8393 115.335 80.4866 110.482 75.813C105.721 71.2536 100.007 69.9369 93.7289 72.1144C89.6817 73.5025 86.4197 76.0117 83.9771 79.5483C83.5638 80.1666 83.0275 80.6853 82.3387 81.5468C81.4627 80.3115 80.562 79.3604 80.0451 78.2333C75.61 68.7301 71.1921 59.18 66.7889 49.6622C66.624 49.3871 66.6313 49.1498 66.5181 48.734Z" fill="white"/>
<path d="M55.545 153.084C52.555 154.018 49.1278 153.588 46.8498 156.629C45.8736 157.933 44.5537 156.791 43.8443 155.722C40.443 150.832 35.5199 149.512 29.8626 149.907C23.306 150.358 21.3464 148.173 22.4054 141.634C22.8217 139.08 23.6825 136.615 24.1684 134.087C25.21 129.057 23.4273 124.945 19.6656 123.51C13.8141 121.277 9.8451 122.475 6.87595 127.328C6.2416 128.363 6.27357 130.37 4.44219 130.15C2.9857 129.993 2.46238 128.437 1.80614 127.229C-0.265206 123.246 -0.956118 118.992 -0.555341 114.596C-0.0775056 108.952 2.19504 103.834 4.7893 98.9181C8.7687 91.4186 15.9239 88.5628 23.7748 87.6484C30.368 86.8925 37.0144 85.9973 43.7295 86.8043C49.0577 87.481 53.6648 84.6104 57.6879 81.5968C67.4172 74.2964 75.3922 65.5285 78.8402 53.357C81.0313 45.7336 84.9006 39.1498 90.6838 33.6155C98.6349 25.9558 113.7 24.1233 121.938 30.1404C123.997 31.6447 125.4 33.6164 126.268 35.9428C127.092 38.1729 126.942 40.0309 124.944 41.5029C118.943 43.8418 113.351 46.5758 113.837 54.5027C114.39 63.0932 111.562 70.7128 107.008 77.8338C104.396 79.8695 101.644 81.852 99.2141 84.0371C94.5996 88.1817 94.1164 91.7483 96.9466 97.2976C98.7329 100.773 101.203 103.71 103.481 106.734C105.672 109.566 107.329 112.752 106.514 116.352C105.027 122.967 102.704 129.263 96.5901 133.155C92.9025 135.498 90.7107 138.732 89.8223 142.942C88.2289 149.836 85.2789 155.892 80.2226 160.986C74.2001 167.147 70.2321 166.67 65.8603 159.096C63.8586 155.14 60.3994 152.702 55.545 153.084Z" fill="#423977"/>
<path d="M55.1841 152.724C60.0385 152.342 63.4977 154.779 65.8312 158.703C70.2296 166.207 74.1014 166.727 80.1935 160.593C85.2498 155.499 88.1997 149.442 89.7931 142.549C91.4081 143.963 93.4384 144.498 95.4421 145.103C99.7547 146.35 102.487 149.229 104.349 153.132C105.109 165.153 99.9063 175.857 96.2998 186.771C90.3134 204.757 81.5241 221.514 71.1427 237.424C67.9191 234.997 63.8447 234.799 60.2489 233.347C62.615 227.147 67.3927 221.947 68.7835 215.375C71.269 203.634 76.7866 192.732 77.6599 180.615C77.9846 175.791 77.2442 171.039 77.9438 166.278C76.9686 165.906 76.7724 166.629 76.4469 167.064C64.9381 181.745 50.9262 193.157 33.2077 199.643C32.0794 200.091 30.9675 200.704 29.8822 201.247C28.6431 198.221 26.5442 195.983 23.5588 194.604C29.1724 189.724 34.786 184.843 39.3419 178.761C45.2893 170.496 51.2367 162.231 55.1841 152.724Z" fill="#418E89"/>
<path d="M112.366 76.6058C110.504 76.9324 108.713 77.2866 106.85 77.6132C111.391 70.4873 114.289 62.8943 113.612 54.2564C113.012 46.2861 118.725 43.678 124.917 41.3325C124.638 45.5354 124.529 49.7237 127.211 53.5404C128.565 55.4139 128.623 57.4312 126.833 59.3019C125.115 61.2002 124.717 63.7617 123.912 66.0881C123.08 68.4842 121.446 69.2969 119.032 69.3333C113.447 69.4366 113.447 69.4366 112.788 74.8512C112.746 75.394 112.507 76.0209 112.366 76.6058Z" fill="#CECDCE"/>
<path d="M169.232 81.5889C171.043 78.66 168.463 77.7522 166.93 76.3199C167.469 74.908 167.832 73.352 168.505 71.9914C169.178 70.6309 170.079 69.2801 171.104 68.208C172.892 66.3485 177.648 65.3907 178.592 66.7522C180.169 69.2797 179.178 71.6744 177.556 73.9054C176.053 76.0275 173.52 77.2172 172.721 79.9162C171.859 80.3576 170.972 80.8663 170.043 81.282C169.831 81.4324 169.553 81.5571 169.232 81.5889Z" fill="#CECDCE"/>
<path d="M104.306 153.396C102.444 149.492 99.7117 146.614 95.3991 145.367C93.4651 144.789 91.3651 144.227 89.7501 142.812C90.6386 138.603 92.7607 135.342 96.518 133.025C102.632 129.134 105.025 122.864 106.442 116.222C107.257 112.623 105.53 109.41 103.409 106.605C101.061 103.555 98.6177 100.547 96.8745 97.1682C94.0443 91.6189 94.5275 88.0524 99.1419 83.9077C101.599 81.653 104.324 79.7401 106.936 77.7045C108.745 77.3572 110.484 76.9832 112.292 76.6359C118.797 79.0387 125.525 80.6486 131.95 83.2604C133.901 84.0048 136.389 83.7574 138.546 83.543C145.846 82.8174 153.45 83.8041 160.255 79.7768C161.778 78.9217 163.388 78.259 164.192 76.5707C165.154 76.1399 166.09 75.7788 167.052 75.3481C168.25 74.9274 169.375 75.1172 170.383 75.8212C171.998 77.2356 174.715 78.2725 172.769 81.2807C170.118 86.9727 165.915 90.8754 159.984 93.2409C148.674 97.7831 136.815 99.163 124.919 100.848C124.063 101 123.164 101.056 122.334 101.138C118.336 101.368 116.895 103.053 116.119 107.386C114.508 115.789 113.428 124.475 110.135 132.476C108.869 135.584 108.529 138.567 109.357 141.835C110.108 144.676 110.073 147.695 108.887 150.595C107.897 152.771 106.712 153.994 104.306 153.396Z" fill="#8071A4"/>
</svg>
