<svg width="320" height="511" viewBox="0 0 320 511" fill="none" xmlns="http://www.w3.org/2000/svg">
<path d="M22.161 252.888C27.4993 251.336 32.7168 249.854 37.8828 248.316C43.0718 246.736 48.2187 245.133 53.379 243.454C54.2158 243.175 54.9763 242.634 55.7043 242.103C57.0301 241.077 57.2958 239.685 56.3406 238.221C55.7196 237.299 54.9128 236.467 54.1482 235.659C51.0895 232.425 49.3273 228.672 49.4283 224.163C49.5204 217.56 54.7866 212.118 61.5478 211.574C68.062 211.03 74.1814 215.685 75.4065 222.083C75.9658 224.977 75.9376 227.794 75.1781 230.645C74.1497 234.392 75.9752 236.421 79.8329 235.726C82.5552 235.254 85.2339 234.51 87.88 233.776C95.2133 231.679 102.528 229.517 109.819 227.396C110.405 227.226 110.991 227.056 111.642 226.866C111.835 227.166 112.032 227.357 112.108 227.62C114.95 237.635 117.75 247.627 120.559 257.652C120.635 257.915 120.721 258.21 120.765 258.481C121.086 260.556 120.785 260.857 118.764 260.343C113.851 259.106 109.134 259.517 104.667 261.883C99.1055 264.851 95.8321 271.562 96.7856 277.754C97.8456 284.555 102.674 289.87 109.112 291.126C115.89 292.461 121.361 289.91 126.022 285.177C127.471 283.725 128.049 283.77 128.662 285.76C131.837 296.07 134.882 306.418 137.959 316.756C137.987 316.854 137.918 316.981 137.864 317.281C137.376 317.423 136.79 317.593 136.204 317.764C127.806 320.206 119.408 322.648 111.02 325.123C109.132 325.672 107.24 326.329 105.541 327.285C102.626 328.915 102.394 331.151 104.897 333.445C107.109 335.467 108.825 337.848 109.849 340.642C111.742 345.815 110.869 350.584 107.149 354.545C103.596 358.351 99.02 359.61 93.9878 358.088C88.6896 356.5 85.4785 352.742 84.6925 347.247C84.3453 344.718 84.5934 342.051 85.0615 339.533C85.7533 335.599 84.0485 333.5 80.1694 334.486C73.3878 336.173 66.673 338.091 59.9485 339.975C56.1632 341.04 52.3643 342.181 48.621 343.269C46.724 340.266 39.1168 311.801 39.6611 309.545C41.2935 309.817 42.9314 310.229 44.5908 310.351C51.699 310.879 57.5643 308.711 61.4689 302.35C64.5757 297.252 64.2072 290.036 60.2416 284.898C56.3467 279.881 51.0874 277.82 44.7964 279.009C40.7434 279.761 37.2805 281.693 34.4537 284.719C33.9726 285.25 33.3883 285.668 32.6104 286.392C31.9496 285.091 31.2254 284.058 30.8918 282.911C28.0054 273.228 25.142 263.503 22.2882 253.811C22.1698 253.525 22.2103 253.3 22.161 252.888Z" fill="white"/>
<path d="M8.78822 369.893C13.4015 369.501 16.6749 371.826 18.8714 375.586C23.0109 382.779 26.6861 383.259 32.5048 377.329C37.3341 372.406 40.1676 366.567 41.7168 359.931C43.2437 361.283 45.1695 361.787 47.0697 362.358C51.16 363.535 53.7406 366.288 55.4896 370.031C56.1488 381.586 51.1518 391.904 47.6696 402.416C41.8902 419.74 33.4546 435.897 23.5109 451.248C20.4612 448.931 16.5919 448.761 13.1836 447.384C15.4632 441.41 20.0285 436.386 21.3836 430.06C23.8052 418.759 29.1028 408.248 29.9948 396.593C30.3281 391.954 29.6493 387.389 30.3384 382.808C29.4139 382.455 29.2238 383.151 28.9125 383.571C17.9042 397.746 4.53502 408.791 -12.3297 415.118C-13.4039 415.554 -14.4632 416.149 -15.497 416.677C-16.6584 413.774 -18.6408 411.633 -21.4695 410.323C-16.1118 405.601 -10.7541 400.88 -6.39503 395.008C-0.702799 387.031 4.98943 379.054 8.78822 369.893Z" fill="#418E89"/>
<path d="M63.4046 296.161C61.6848 296.504 60.0311 296.873 58.3114 297.216C62.6073 290.321 65.3991 283.005 64.9188 274.748C64.4977 267.129 69.7986 264.539 75.5361 262.192C75.2095 266.22 75.0406 270.23 77.446 273.839C78.6615 275.61 78.6815 277.54 77.0034 279.36C75.3913 281.206 74.9827 283.664 74.2035 285.904C73.3987 288.211 71.8811 289.016 69.6587 289.09C64.5171 289.281 64.5171 289.281 63.8212 294.475C63.7739 294.995 63.5434 295.599 63.4046 296.161Z" fill="#CECDCE"/>
<path d="M13.1409 447.29C16.5748 448.6 20.4185 448.837 23.4682 451.154C25.7294 453.555 28.4449 455.36 31.1604 457.165C33.2263 458.492 33.7302 460.145 32.6505 462.578C31.5451 465.078 30.0519 464.431 28.0748 464.061C22.1948 462.817 16.6369 460.926 12.3017 456.427C9.04195 452.876 9.22683 450.409 13.1409 447.29Z" fill="#3D3C3F"/>
<path d="M118.019 299.795C120.173 297.118 117.771 295.914 116.461 294.317C117.172 292.987 117.731 291.494 118.568 290.23C119.404 288.967 120.461 287.74 121.604 286.804C123.595 285.18 128.367 284.801 129.111 286.258C130.32 288.942 129.037 291.189 127.16 293.199C125.413 295.115 122.781 295.988 121.646 298.559C120.747 298.892 119.813 299.289 118.851 299.588C118.624 299.712 118.336 299.802 118.019 299.795Z" fill="#CECDCE"/>
<path d="M54.7734 369.682C52.9696 365.918 50.3263 367.12 46.1578 365.914C44.2884 365.354 42.2586 360.831 40.6965 359.466C41.5504 355.409 43.5975 352.269 47.2256 350.04C53.1292 346.295 55.4344 340.255 56.7968 333.855C57.5805 330.387 55.9085 327.288 53.8552 324.582C51.5837 321.639 49.2193 318.738 47.5312 315.479C44.7904 310.127 45.2535 306.69 49.7079 302.7C52.0792 300.53 54.7104 298.689 57.2326 296.73C58.9797 296.397 60.6595 296.039 62.4067 295.706C68.695 298.029 75.1977 299.588 81.4092 302.112C83.2948 302.832 85.6992 302.596 87.7831 302.392C94.8361 301.7 102.185 302.659 108.755 298.785C110.226 297.962 111.781 297.326 112.556 295.699C113.486 295.285 114.39 294.938 115.319 294.524C116.476 294.12 117.563 294.304 118.538 294.983C120.1 296.348 122.727 297.351 120.849 300.248C118.294 305.732 114.237 309.489 108.509 311.762C97.5848 316.128 86.127 317.445 74.6341 319.056C73.807 319.202 72.9382 319.255 72.1367 319.334C68.2735 319.551 66.8829 321.173 66.1381 325.348C64.5906 333.446 63.5562 341.817 60.383 349.525C59.1631 352.52 58.8376 355.394 59.6408 358.545C60.37 361.284 60.3394 364.194 59.1963 366.988C58.242 369.084 57.0981 370.262 54.7734 369.682Z" fill="#8071A4"/>
<path d="M9.1488 370.035C6.26806 370.935 2.96614 370.52 0.771489 373.45C-0.169083 374.706 -1.44068 373.606 -2.12415 372.576C-5.40112 367.865 -10.1442 366.594 -15.5948 366.974C-21.9116 367.408 -23.7996 365.304 -22.7793 359.004C-22.3783 356.542 -21.5489 354.168 -21.0807 351.732C-20.0773 346.887 -21.7947 342.925 -25.4189 341.542C-31.0566 339.39 -34.8804 340.545 -37.741 345.22C-38.3522 346.217 -38.3214 348.151 -40.0858 347.939C-41.4891 347.788 -41.9933 346.288 -42.6255 345.125C-44.6211 341.287 -45.2868 337.189 -44.9007 332.953C-44.4403 327.516 -42.2508 322.585 -39.7514 317.849C-35.9175 310.624 -29.0239 307.872 -21.46 306.991C-15.1078 306.263 -8.70437 305.401 -2.23479 306.178C2.89867 306.83 7.33729 304.064 11.2134 301.161C20.587 294.128 28.2704 285.68 31.5924 273.954C33.7033 266.609 37.4312 260.266 43.003 254.934C50.6634 247.554 65.1773 245.789 73.1144 251.586C75.0987 253.035 76.4497 254.935 77.2859 257.176C78.0806 259.325 77.9357 261.115 76.0104 262.533C70.2295 264.786 64.8416 267.42 65.3101 275.057C65.8422 283.334 63.1175 290.675 58.7308 297.536C56.2138 299.497 53.5627 301.407 51.2214 303.512C46.7757 307.505 46.3101 310.941 49.0369 316.288C50.7579 319.636 53.1377 322.466 55.3321 325.38C57.4435 328.108 59.0399 331.177 58.2547 334.645C56.822 341.019 54.5839 347.085 48.6934 350.834C45.1406 353.092 43.0289 356.207 42.173 360.263C40.6378 366.905 37.7957 372.741 32.9242 377.648C27.122 383.584 23.1343 383.366 18.9223 376.069C16.9938 372.257 13.8257 369.667 9.1488 370.035Z" fill="#423977"/>
<path d="M322.303 216.14C316.36 218.865 310.545 221.487 304.8 224.165C299.035 226.897 293.324 229.649 287.61 232.49C286.684 232.958 285.893 233.719 285.137 234.463C283.771 235.884 283.702 237.55 285.065 239.088C285.947 240.053 287.028 240.882 288.057 241.691C292.172 244.927 294.869 248.989 295.527 254.252C296.557 261.949 291.368 269.187 283.596 270.984C276.111 272.738 268.191 268.377 265.664 261.145C264.515 257.874 264.063 254.593 264.455 251.145C265.006 246.608 262.533 244.563 258.165 246.036C255.08 247.053 252.091 248.379 249.139 249.689C240.969 253.391 232.833 257.166 224.716 260.889C224.063 261.188 223.411 261.487 222.686 261.819C222.41 261.504 222.148 261.315 222.014 261.023C216.983 249.861 212.006 238.719 207.011 227.54C206.877 227.248 206.727 226.92 206.629 226.611C205.898 224.252 206.197 223.851 208.636 224.101C214.565 224.694 219.982 223.403 224.77 219.882C230.73 215.471 233.382 207.101 231.207 200.061C228.802 192.332 222.27 186.981 214.565 186.628C206.45 186.242 200.524 190.152 195.917 196.46C194.481 198.398 193.801 198.445 192.744 196.236C187.276 184.789 181.952 173.275 176.592 161.778C176.542 161.669 176.601 161.509 176.612 161.151C177.155 160.902 177.808 160.603 178.46 160.303C187.809 156.016 197.158 151.729 206.491 147.406C208.593 146.442 210.681 145.352 212.492 143.947C215.603 141.549 215.488 138.908 212.182 136.67C209.26 134.698 206.854 132.224 205.181 129.15C202.088 123.458 202.282 117.76 205.928 112.512C209.406 107.472 214.513 105.219 220.629 106.124C227.066 107.058 231.449 110.878 233.309 117.134C234.149 120.017 234.319 123.163 234.208 126.173C234.081 130.868 236.426 133.016 240.769 131.202C248.367 128.07 255.849 124.684 263.347 121.334C267.568 119.443 271.791 117.462 275.958 115.551C278.682 118.718 292.433 150.523 292.188 153.241C290.242 153.206 288.266 153.008 286.315 153.152C277.954 153.762 271.504 157.294 268.057 165.366C265.321 171.832 266.992 180.163 272.49 185.458C277.885 190.624 284.358 192.116 291.472 189.649C296.058 188.076 299.754 185.233 302.521 181.226C302.989 180.526 303.597 179.938 304.377 178.962C305.37 180.361 306.39 181.439 306.976 182.716C312.001 193.484 317.007 204.304 321.996 215.088C322.183 215.4 322.174 215.668 322.303 216.14Z" fill="white"/>
<path d="M334.736 97.909C338.124 96.8509 342.007 97.3382 344.588 93.8924C345.694 92.4157 347.189 93.7098 347.993 94.9208C351.847 100.461 357.425 101.956 363.835 101.509C371.263 100.998 373.484 103.473 372.284 110.882C371.812 113.777 370.837 116.569 370.286 119.434C369.106 125.132 371.126 129.791 375.388 131.418C382.018 133.948 386.515 132.59 389.879 127.092C390.598 125.919 390.562 123.645 392.637 123.894C394.287 124.072 394.88 125.835 395.623 127.204C397.97 131.717 398.753 136.537 398.299 141.518C397.758 147.912 395.183 153.711 392.243 159.281C387.735 167.778 379.628 171.014 370.732 172.05C363.262 172.906 355.731 173.92 348.123 173.006C342.086 172.239 336.866 175.492 332.308 178.906C321.284 187.178 312.248 197.112 308.342 210.903C305.859 219.54 301.475 227 294.923 233.27C285.914 241.949 268.845 244.025 259.511 237.208C257.177 235.503 255.589 233.269 254.605 230.634C253.671 228.107 253.841 226.002 256.105 224.334C262.904 221.684 269.24 218.586 268.689 209.605C268.063 199.871 271.268 191.238 276.426 183.17C279.386 180.863 282.504 178.617 285.258 176.141C290.486 171.445 291.033 167.404 287.827 161.117C285.803 157.18 283.004 153.851 280.423 150.425C277.94 147.216 276.063 143.606 276.986 139.528C278.671 132.033 281.303 124.899 288.231 120.49C292.409 117.835 294.892 114.171 295.899 109.401C297.704 101.59 301.046 94.7273 306.775 88.9564C313.599 81.9756 318.095 82.5159 323.048 91.0977C325.316 95.5801 329.236 98.3418 334.736 97.909Z" fill="#423977"/>
<path d="M335.145 98.3171C329.645 98.7499 325.725 95.9882 323.081 91.5431C318.098 83.0403 313.711 82.4512 306.809 89.4019C301.08 95.1728 297.737 102.035 295.932 109.846C294.102 108.244 291.802 107.637 289.531 106.951C284.645 105.539 281.549 102.278 279.439 97.8553C278.579 84.2347 284.473 72.1069 288.56 59.7411C295.342 39.362 305.301 20.3757 317.063 2.34921C320.716 5.09947 325.332 5.32402 329.406 6.96928C326.725 13.9939 321.312 19.8853 319.736 27.3316C316.92 40.6342 310.669 52.9874 309.679 66.716C309.311 72.1818 310.15 77.5657 309.357 82.9599C310.462 83.3816 310.685 82.5622 311.053 82.0699C324.093 65.4351 339.969 52.5049 360.045 45.1561C361.323 44.6494 362.583 43.9547 363.813 43.3389C365.216 46.7682 367.595 49.3034 370.977 50.8656C364.617 56.3955 358.256 61.9255 353.094 68.817C346.356 78.1813 339.617 87.5455 335.145 98.3171Z" fill="#418E89"/>
<path d="M279.488 97.5565C281.598 101.979 284.694 105.24 289.58 106.653C291.771 107.308 294.151 107.945 295.98 109.547C294.974 114.317 292.569 118.011 288.312 120.637C281.385 125.046 278.674 132.149 277.068 139.675C276.145 143.753 278.101 147.393 280.505 150.571C283.165 154.028 285.933 157.435 287.908 161.263C291.115 167.551 290.568 171.592 285.339 176.288C282.556 178.843 279.468 181.01 276.508 183.316C274.459 183.71 272.489 184.134 270.44 184.527C263.069 181.805 255.447 179.981 248.166 177.021C245.957 176.178 243.137 176.458 240.693 176.701C232.422 177.523 223.806 176.405 216.097 180.968C214.371 181.937 212.547 182.688 211.636 184.601C210.546 185.089 209.485 185.498 208.395 185.986C207.037 186.463 205.763 186.248 204.621 185.45C202.791 183.848 199.713 182.673 201.918 179.264C204.922 172.815 209.684 168.393 216.403 165.713C229.218 160.567 242.655 159.003 256.133 157.094C257.103 156.922 258.122 156.859 259.062 156.765C263.592 156.505 265.225 154.596 266.104 149.687C267.929 140.165 269.153 130.324 272.884 121.259C274.318 117.737 274.703 114.358 273.766 110.654C272.914 107.436 272.954 104.015 274.298 100.73C275.42 98.2645 276.763 96.8782 279.488 97.5565Z" fill="#8071A4"/>
<path d="M270.061 184.448C272.11 184.055 274.08 183.631 276.129 183.238C271.05 191.336 267.766 199.939 268.392 209.672C268.943 218.654 262.637 221.672 255.808 224.401C256.172 219.657 256.348 214.932 253.456 210.663C251.994 208.569 251.958 206.294 253.948 204.16C255.859 201.996 256.331 199.101 257.246 196.467C258.191 193.753 259.996 192.814 262.647 192.741C268.778 192.549 268.778 192.549 269.575 186.433C269.628 185.82 269.899 185.11 270.061 184.448Z" fill="#CECDCE"/>
<path d="M204.057 178.914C202.005 182.233 204.929 183.261 206.666 184.884C206.056 186.484 205.644 188.247 204.882 189.789C204.119 191.33 203.098 192.861 201.937 194.075C199.911 196.182 194.522 197.267 193.453 195.725C191.666 192.861 192.789 190.148 194.626 187.62C196.329 185.216 199.2 183.868 200.105 180.81C201.081 180.309 202.087 179.733 203.139 179.262C203.379 179.092 203.694 178.95 204.057 178.914Z" fill="#CECDCE"/>
<path d="M305.878 338.222C301.138 336.048 296.499 333.956 291.916 331.819C287.317 329.64 282.761 327.445 278.203 325.179C277.464 324.805 276.833 324.198 276.23 323.605C275.141 322.471 275.086 321.142 276.173 319.915C276.876 319.145 277.739 318.484 278.56 317.839C281.843 315.258 283.993 312.017 284.519 307.819C285.341 301.678 281.201 295.905 275.001 294.471C269.03 293.072 262.712 296.551 260.696 302.32C259.779 304.929 259.419 307.547 259.732 310.297C260.172 313.916 258.199 315.548 254.714 314.373C252.253 313.561 249.869 312.503 247.514 311.459C240.996 308.505 234.505 305.493 228.03 302.524C227.51 302.286 226.989 302.047 226.411 301.782C226.191 302.033 225.982 302.184 225.875 302.417C221.862 311.321 217.891 320.21 213.907 329.127C213.8 329.36 213.68 329.622 213.602 329.868C213.019 331.75 213.257 332.071 215.203 331.871C219.933 331.398 224.254 332.428 228.074 335.236C232.828 338.755 234.944 345.432 233.208 351.048C231.29 357.214 226.079 361.483 219.933 361.764C213.459 362.072 208.732 358.953 205.056 353.921C203.911 352.375 203.369 352.337 202.526 354.099C198.163 363.231 193.917 372.416 189.641 381.588C189.601 381.675 189.648 381.802 189.656 382.088C190.09 382.287 190.61 382.526 191.131 382.764C198.589 386.184 206.047 389.604 213.492 393.053C215.168 393.822 216.834 394.691 218.279 395.812C220.761 397.725 220.669 399.832 218.031 401.617C215.701 403.19 213.781 405.164 212.447 407.617C209.98 412.157 210.134 416.702 213.043 420.889C215.817 424.909 219.891 426.707 224.77 425.985C229.905 425.24 233.402 422.193 234.886 417.202C235.555 414.902 235.691 412.392 235.603 409.991C235.501 406.246 237.372 404.532 240.836 405.98C246.898 408.477 252.866 411.179 258.848 413.852C262.215 415.36 265.583 416.94 268.908 418.465C271.081 415.938 282.051 390.566 281.855 388.398C280.303 388.426 278.726 388.584 277.17 388.469C270.5 387.982 265.355 385.165 262.605 378.725C260.422 373.567 261.755 366.922 266.141 362.697C270.445 358.576 275.609 357.386 281.284 359.354C284.942 360.609 287.89 362.877 290.098 366.073C290.472 366.632 290.956 367.101 291.579 367.88C292.371 366.763 293.185 365.904 293.652 364.885C297.661 356.295 301.654 347.664 305.634 339.061C305.783 338.812 305.776 338.598 305.878 338.222Z" fill="white"/>
<path d="M315.797 432.538C318.499 433.382 321.597 432.994 323.656 435.742C324.538 436.92 325.731 435.888 326.372 434.922C329.447 430.503 333.896 429.31 339.01 429.666C344.936 430.074 346.707 428.099 345.75 422.189C345.374 419.88 344.596 417.652 344.156 415.367C343.215 410.821 344.826 407.105 348.226 405.807C353.515 403.789 357.102 404.872 359.786 409.258C360.36 410.193 360.331 412.008 361.986 411.809C363.302 411.667 363.775 410.26 364.368 409.168C366.241 405.569 366.865 401.724 366.503 397.75C366.071 392.649 364.017 388.023 361.672 383.58C358.075 376.802 351.608 374.22 344.512 373.394C338.553 372.711 332.545 371.902 326.476 372.631C321.66 373.243 317.496 370.648 313.86 367.924C305.066 361.326 297.858 353.401 294.741 342.4C292.761 335.509 289.263 329.558 284.036 324.556C276.85 317.633 263.233 315.977 255.787 321.415C253.926 322.775 252.658 324.557 251.874 326.66C251.128 328.675 251.264 330.355 253.07 331.685C258.494 333.799 263.548 336.27 263.109 343.435C262.61 351.2 265.166 358.087 269.281 364.523C271.643 366.363 274.13 368.155 276.326 370.13C280.497 373.876 280.934 377.1 278.376 382.115C276.761 385.256 274.528 387.912 272.47 390.645C270.489 393.204 268.991 396.084 269.728 399.337C271.072 405.316 273.172 411.007 278.698 414.525C282.031 416.643 284.012 419.566 284.815 423.371C286.255 429.602 288.922 435.076 293.492 439.68C298.935 445.249 302.522 444.818 306.473 437.972C308.282 434.396 311.409 432.193 315.797 432.538Z" fill="#423977"/>
<path d="M316.123 432.213C311.735 431.867 308.609 434.07 306.5 437.616C302.524 444.399 299.024 444.869 293.518 439.325C288.948 434.721 286.282 429.247 284.841 423.016C283.382 424.294 281.547 424.778 279.736 425.325C275.838 426.452 273.368 429.053 271.685 432.581C270.999 443.447 275.701 453.121 278.96 462.986C284.371 479.243 292.315 494.389 301.699 508.769C304.612 506.575 308.295 506.396 311.545 505.084C309.406 499.48 305.088 494.78 303.831 488.84C301.584 478.228 296.597 468.374 295.808 457.422C295.515 453.062 296.184 448.767 295.551 444.464C296.433 444.127 296.61 444.781 296.904 445.174C307.307 458.444 319.971 468.759 335.986 474.621C337.006 475.025 338.011 475.579 338.992 476.071C340.112 473.335 342.009 471.312 344.707 470.066C339.634 465.655 334.56 461.243 330.442 455.746C325.066 448.276 319.691 440.805 316.123 432.213Z" fill="#418E89"/>
<path d="M271.724 432.819C273.407 429.292 275.876 426.69 279.774 425.563C281.522 425.04 283.42 424.532 284.88 423.254C284.077 419.449 282.159 416.502 278.763 414.408C273.237 410.89 271.074 405.224 269.793 399.22C269.057 395.967 270.617 393.063 272.535 390.528C274.657 387.771 276.865 385.052 278.441 381.998C280.999 376.983 280.562 373.759 276.391 370.013C274.171 367.975 271.708 366.246 269.347 364.406C267.712 364.092 266.14 363.754 264.506 363.44C258.626 365.612 252.545 367.067 246.738 369.428C244.975 370.101 242.725 369.877 240.776 369.683C234.178 369.027 227.305 369.919 221.155 366.279C219.778 365.506 218.323 364.907 217.596 363.381C216.726 362.992 215.88 362.665 215.01 362.276C213.928 361.896 212.911 362.067 212 362.704C210.54 363.982 208.084 364.919 209.843 367.638C212.24 372.783 216.038 376.311 221.399 378.449C231.622 382.554 242.341 383.801 253.093 385.324C253.867 385.462 254.679 385.512 255.429 385.587C259.043 385.795 260.345 387.317 261.046 391.233C262.503 398.829 263.479 406.68 266.455 413.911C267.599 416.721 267.907 419.416 267.159 422.371C266.48 424.938 266.511 427.667 267.584 430.288C268.478 432.255 269.55 433.361 271.724 432.819Z" fill="#8071A4"/>
<path d="M264.204 363.503C265.838 363.817 267.41 364.155 269.044 364.469C264.992 358.009 262.373 351.146 262.872 343.381C263.312 336.216 258.281 333.808 252.834 331.631C253.124 335.416 253.264 339.185 250.957 342.59C249.791 344.262 249.762 346.076 251.35 347.778C252.874 349.505 253.25 351.814 253.98 353.916C254.735 356.08 256.174 356.829 258.289 356.888C263.18 357.041 263.18 357.041 263.816 361.92C263.858 362.409 264.074 362.975 264.204 363.503Z" fill="#CECDCE"/>
<path d="M211.55 367.918C209.913 365.27 212.246 364.45 213.631 363.155C213.144 361.879 212.817 360.473 212.208 359.243C211.599 358.013 210.785 356.792 209.859 355.823C208.243 354.143 203.944 353.277 203.091 354.508C201.665 356.792 202.561 358.956 204.027 360.973C205.385 362.891 207.675 363.966 208.398 366.406C209.176 366.805 209.978 367.265 210.818 367.64C211.009 367.776 211.261 367.889 211.55 367.918Z" fill="#CECDCE"/>
</svg>
