<svg width="320" height="254" viewBox="0 0 320 254" fill="none" xmlns="http://www.w3.org/2000/svg">
<g filter="url(#filter0_d)">
<path d="M322.8 2H-8.2C-13.6 2 -18 6.4 -18 11.8V187.8C-18 193.2 -13.6 197.6 -8.2 197.6H127.2C128.8 197.7 130.4 197.8 131.9 198C135.3 198.4 137.6 199.6 138.5 201.6C139.5 203.6 139.1 206.1 137.3 209C134.7 213.3 133.3 217.9 132.9 222.9C131.9 233.9 139.6 244.4 150.5 246.6C161.8 248.9 173 242.5 176.2 231.8C178.5 224.5 177.4 217.5 173.9 210.8C173.8 210.7 173.8 210.6 173.7 210.4C172.9 208.8 172 207.2 171.5 205.4C171 203.9 171.1 202.6 171.6 201.5C172.1 200.4 173.1 199.6 174.5 199C176 198.5 177.5 197.9 179.1 197.9C183.2 197.8 182.3 197.7 186.4 197.6H322.8C328.2 197.6 332.6 193.2 332.6 187.8V11.8C332.6 6.4 328.2 2 322.8 2Z" fill="white"/>
</g>
<defs>
<filter id="filter0_d" x="-22" y="0" width="358.6" height="253.067" filterUnits="userSpaceOnUse" color-interpolation-filters="sRGB">
<feFlood flood-opacity="0" result="BackgroundImageFix"/>
<feColorMatrix in="SourceAlpha" type="matrix" values="0 0 0 0 0 0 0 0 0 0 0 0 0 0 0 0 0 0 127 0"/>
<feOffset dy="2"/>
<feGaussianBlur stdDeviation="2"/>
<feColorMatrix type="matrix" values="0 0 0 0 0.501961 0 0 0 0 0.443137 0 0 0 0 0.643137 0 0 0 1 0"/>
<feBlend mode="normal" in2="BackgroundImageFix" result="effect1_dropShadow"/>
<feBlend mode="normal" in="SourceGraphic" in2="effect1_dropShadow" result="shape"/>
</filter>
</defs>
</svg>
