<svg width="253" height="351" viewBox="0 0 253 351" fill="none" xmlns="http://www.w3.org/2000/svg">
<path d="M96.2018 68.0679C102.945 66.107 109.535 64.2353 116.061 62.2928C122.615 60.2969 129.116 58.2716 135.634 56.1515C136.691 55.7992 137.652 55.1158 138.572 54.4443C140.246 53.1491 140.582 51.39 139.375 49.5408C138.591 48.3769 137.572 47.3262 136.606 46.305C132.742 42.2199 130.516 37.4791 130.644 31.7844C130.76 23.4438 137.412 16.5701 145.953 15.8826C154.181 15.196 161.911 21.0754 163.458 29.1566C164.165 32.8127 164.129 36.3703 163.17 39.972C161.871 44.7052 164.176 47.2676 169.049 46.3894C172.488 45.7935 175.871 44.8544 179.214 43.9273C188.477 41.2785 197.716 38.5468 206.926 35.8685C207.666 35.6533 208.406 35.4381 209.228 35.199C209.472 35.5771 209.721 35.8191 209.817 36.1503C213.407 48.8013 216.943 61.4229 220.492 74.0859C220.588 74.4171 220.697 74.7897 220.752 75.1328C221.157 77.7539 220.777 78.1338 218.225 77.4841C212.018 75.9215 206.06 76.4417 200.419 79.4294C193.393 83.1787 189.258 91.6552 190.463 99.477C191.802 108.068 197.901 114.781 206.032 116.367C214.594 118.053 221.505 114.831 227.392 108.854C229.222 107.019 229.952 107.076 230.728 109.59C234.738 122.613 238.583 135.683 242.47 148.742C242.506 148.866 242.419 149.026 242.351 149.405C241.734 149.584 240.994 149.8 240.254 150.015C229.646 153.1 219.038 156.184 208.443 159.311C206.058 160.004 203.668 160.834 201.522 162.042C197.84 164.1 197.547 166.925 200.708 169.822C203.502 172.377 205.67 175.384 206.964 178.914C209.355 185.448 208.252 191.471 203.554 196.474C199.065 201.282 193.285 202.873 186.929 200.95C180.237 198.944 176.18 194.197 175.188 187.256C174.749 184.061 175.062 180.692 175.654 177.512C176.528 172.543 174.374 169.892 169.474 171.137C160.908 173.269 152.426 175.69 143.933 178.071C139.151 179.416 134.353 180.857 129.624 182.232C127.228 178.438 117.619 142.483 118.307 139.634C120.369 139.977 122.438 140.498 124.534 140.652C133.512 141.318 140.921 138.58 145.853 130.545C149.777 124.106 149.312 114.991 144.303 108.5C139.383 102.163 132.74 99.56 124.793 101.063C119.674 102.013 115.3 104.452 111.729 108.274C111.121 108.945 110.383 109.474 109.401 110.388C108.566 108.745 107.651 107.44 107.23 105.991C103.584 93.76 99.9672 81.476 96.3624 69.2335C96.2129 68.8728 96.264 68.5886 96.2018 68.0679Z" fill="white"/>
<path d="M79.3098 215.861C85.1371 215.365 89.2718 218.303 92.0462 223.052C97.275 232.138 101.917 232.744 109.267 225.254C115.367 219.035 118.946 211.66 120.903 203.278C122.832 204.985 125.264 205.622 127.665 206.344C132.831 207.83 136.091 211.308 138.3 216.036C139.133 230.63 132.821 243.664 128.422 256.942C121.122 278.825 110.467 299.233 97.9066 318.623C94.0544 315.696 89.1669 315.482 84.8618 313.742C87.7413 306.197 93.5078 299.851 95.2195 291.861C98.2783 277.585 104.97 264.308 106.097 249.587C106.518 243.726 105.66 237.96 106.531 232.174C105.363 231.728 105.123 232.608 104.729 233.137C90.8246 251.043 73.9375 264.994 52.635 272.986C51.2782 273.537 49.9401 274.289 48.6343 274.956C47.1672 271.288 44.6633 268.584 41.0902 266.929C47.8577 260.965 54.6251 255.001 60.1313 247.585C67.3214 237.509 74.5114 227.432 79.3098 215.861Z" fill="#418E89"/>
<path d="M148.298 122.727C146.126 123.161 144.037 123.626 141.865 124.06C147.291 115.35 150.817 106.11 150.211 95.6802C149.679 86.0564 156.375 82.7844 163.622 79.82C163.209 84.9071 162.996 89.9732 166.034 94.532C167.57 96.769 167.595 99.2067 165.475 101.506C163.439 103.836 162.923 106.942 161.939 109.771C160.922 112.685 159.005 113.702 156.198 113.796C149.703 114.037 149.703 114.037 148.824 120.597C148.765 121.254 148.473 122.017 148.298 122.727Z" fill="#CECDCE"/>
<path d="M84.8081 313.624C89.1455 315.279 94.0006 315.578 97.8528 318.505C100.709 321.537 104.139 323.818 107.569 326.098C110.179 327.774 110.815 329.862 109.451 332.935C108.055 336.093 106.169 335.276 103.672 334.808C96.2443 333.236 89.224 330.849 83.748 325.165C79.6305 320.68 79.864 317.564 84.8081 313.624Z" fill="#3D3C3F"/>
<path d="M40.9218 266.868C44.4949 268.523 47.0311 271.142 48.4658 274.895C47.5681 281.254 48.5837 287.857 46.0551 293.982C45.3757 295.762 44.8682 298.094 42.6772 298.326C40.4028 298.526 39.0207 296.639 37.773 294.9C33.9603 289.366 33.8954 273.511 37.4761 267.884C38.5725 266.263 39.6382 266.476 40.9218 266.868Z" fill="#3D3C3F"/>
<path d="M217.283 127.318C220.004 123.936 216.97 122.416 215.315 120.398C216.214 118.718 216.92 116.832 217.976 115.236C219.033 113.64 220.368 112.091 221.811 110.908C224.326 108.857 230.354 108.378 231.293 110.218C232.821 113.609 231.201 116.447 228.83 118.985C226.623 121.407 223.299 122.509 221.865 125.756C220.729 126.177 219.549 126.678 218.334 127.057C218.048 127.212 217.684 127.326 217.283 127.318Z" fill="#CECDCE"/>
<path d="M137.396 215.595C135.117 210.841 131.778 212.359 126.513 210.835C124.152 210.128 121.588 204.415 119.615 202.691C120.693 197.566 123.279 193.6 127.862 190.784C135.319 186.054 138.231 178.425 139.952 170.34C140.941 165.959 138.829 162.045 136.236 158.627C133.367 154.91 130.38 151.245 128.248 147.129C124.786 140.369 125.371 136.028 130.997 130.988C133.993 128.246 137.316 125.921 140.502 123.446C142.709 123.026 144.831 122.573 147.038 122.153C154.981 125.087 163.194 127.056 171.04 130.245C173.422 131.154 176.459 130.856 179.091 130.598C188 129.724 197.283 130.936 205.582 126.042C207.44 125.003 209.404 124.199 210.383 122.144C211.557 121.621 212.699 121.183 213.873 120.66C215.335 120.149 216.708 120.382 217.939 121.24C219.913 122.964 223.23 124.23 220.859 127.89C217.631 134.817 212.506 139.562 205.271 142.434C191.472 147.949 177 149.612 162.482 151.648C161.438 151.832 160.34 151.898 159.328 151.998C154.448 152.272 152.692 154.321 151.751 159.595C149.796 169.824 148.49 180.397 144.481 190.134C142.94 193.916 142.529 197.547 143.544 201.528C144.465 204.987 144.426 208.663 142.982 212.191C141.777 214.839 140.332 216.327 137.396 215.595Z" fill="#8071A4"/>
<path d="M79.7656 216.041C76.1269 217.177 71.9561 216.654 69.184 220.355C67.9959 221.941 66.3897 220.551 65.5264 219.25C61.3871 213.3 55.3959 211.694 48.5111 212.174C40.5321 212.722 38.1473 210.064 39.4361 202.106C39.9427 198.998 40.9903 195.998 41.5816 192.922C42.8491 186.801 40.6797 181.797 36.1019 180.05C28.9808 177.332 24.1507 178.791 20.5373 184.696C19.7654 185.955 19.8043 188.398 17.5755 188.131C15.8031 187.94 15.1662 186.046 14.3676 184.575C11.8468 179.728 11.006 174.551 11.4938 169.202C12.0753 162.334 14.8409 156.105 17.998 150.123C22.8407 140.996 31.5483 137.521 41.1025 136.408C49.1262 135.488 57.2146 134.399 65.3866 135.381C71.8709 136.204 77.4775 132.711 82.3735 129.043C94.2137 120.159 103.919 109.489 108.115 94.6766C110.781 85.3992 115.49 77.387 122.528 70.652C132.204 61.3304 150.537 59.1004 160.563 66.4229C163.069 68.2535 164.776 70.653 165.832 73.4842C166.836 76.1982 166.653 78.4593 164.221 80.2506C156.919 83.0969 150.113 86.4241 150.705 96.0708C151.377 106.525 147.935 115.798 142.394 124.464C139.215 126.941 135.866 129.354 132.909 132.013C127.294 137.057 126.705 141.397 130.15 148.151C132.324 152.379 135.33 155.955 138.101 159.635C140.768 163.081 142.785 166.958 141.793 171.339C139.983 179.389 137.156 187.051 129.716 191.787C125.228 194.639 122.561 198.574 121.48 203.698C119.541 212.087 115.951 219.458 109.797 225.657C102.468 233.154 97.4313 232.879 92.1109 223.662C89.6749 218.847 85.6733 215.576 79.7656 216.041Z" fill="#423977"/>
</svg>
