<svg width="55" height="39" viewBox="0 0 55 39" fill="none" xmlns="http://www.w3.org/2000/svg">
<path d="M38.6591 2.12485e-06C38.6591 0.397181 38.6591 0.702708 38.6591 1.00823C38.6591 5.17862 38.6591 9.349 38.6591 13.5194C38.6591 15.1234 39.402 15.9483 41.009 16.1469C42.4947 16.3302 43.7075 15.7803 44.8294 14.8331C48.2557 11.9154 53.577 13.5347 54.7746 17.8425C55.4872 20.4242 54.4714 23.1739 52.2732 24.671C50.0294 26.1986 47.1793 26.0458 44.9962 24.396C44.223 23.8155 43.3437 23.3114 42.4492 23.0212C41.8276 22.8226 41.0393 22.9295 40.3874 23.0975C39.023 23.4794 38.6743 24.0294 38.6743 25.4653C38.6743 29.6663 38.6743 33.8519 38.6743 38.0529C38.6743 38.3584 38.6743 38.6486 38.6743 39C25.7424 39 12.8864 39 0 39C-5.6758e-07 26.0153 -1.13383e-06 13.0611 -1.70274e-06 0.0458298C0.288047 0.0305519 0.545774 0.0152855 0.788341 0.0152855C5.03326 0.0152853 9.26302 0.0305553 13.5079 3.22425e-06C14.2508 3.19177e-06 14.554 0.30553 14.7056 0.947128C15.024 2.16922 14.5085 3.11634 13.7808 4.01763C11.7645 6.52292 11.34 9.30318 12.7348 12.2056C14.084 15.0165 16.4339 16.483 19.5418 16.4371C22.6194 16.3913 24.9086 14.879 26.1972 12.0834C27.5162 9.24207 27.0765 6.5382 25.1512 4.09401C24.4993 3.2691 23.9838 2.42891 24.0899 1.3443C24.1961 0.3208 24.5144 0.0305547 25.515 0.0305546C29.578 0.0305544 33.641 0.0305543 37.704 0.0305541C37.992 2.15401e-06 38.2953 2.14076e-06 38.6591 2.12485e-06Z" fill="white"/>
</svg>
