<svg width="320" height="254" viewBox="0 0 320 254" fill="none" xmlns="http://www.w3.org/2000/svg">
<g filter="url(#filter0_d)">
<path d="M1.79999 247.067L332.8 247.067C338.2 247.067 342.6 242.667 342.6 237.267L342.6 61.2668C342.6 55.8668 338.2 51.4668 332.8 51.4668L197.4 51.4668C195.8 51.3668 194.2 51.2668 192.7 51.0668C189.3 50.6668 187 49.4668 186.1 47.4668C185.1 45.4668 185.5 42.9668 187.3 40.0668C189.9 35.7668 191.3 31.1667 191.7 26.1667C192.7 15.1667 185 4.66675 174.1 2.46675C162.8 0.166751 151.6 6.56677 148.4 17.2668C146.1 24.5668 147.2 31.5668 150.7 38.2668C150.8 38.3668 150.8 38.4667 150.9 38.6667C151.7 40.2667 152.6 41.8667 153.1 43.6667C153.6 45.1667 153.5 46.4668 153 47.5668C152.5 48.6668 151.5 49.4668 150.1 50.0668C148.6 50.5668 147.1 51.1667 145.5 51.1667C141.4 51.2667 142.3 51.3667 138.2 51.4667L1.8 51.4667C-3.6 51.4667 -7.99998 55.8667 -7.99998 61.2667L-8 237.267C-8 242.667 -3.60001 247.067 1.79999 247.067Z" fill="white"/>
</g>
<defs>
<filter id="filter0_d" x="-12" y="0" width="358.6" height="253.067" filterUnits="userSpaceOnUse" color-interpolation-filters="sRGB">
<feFlood flood-opacity="0" result="BackgroundImageFix"/>
<feColorMatrix in="SourceAlpha" type="matrix" values="0 0 0 0 0 0 0 0 0 0 0 0 0 0 0 0 0 0 127 0"/>
<feOffset dy="2"/>
<feGaussianBlur stdDeviation="2"/>
<feColorMatrix type="matrix" values="0 0 0 0 0.501961 0 0 0 0 0.443137 0 0 0 0 0.643137 0 0 0 1 0"/>
<feBlend mode="normal" in2="BackgroundImageFix" result="effect1_dropShadow"/>
<feBlend mode="normal" in="SourceGraphic" in2="effect1_dropShadow" result="shape"/>
</filter>
</defs>
</svg>
