<svg width="112" height="171" viewBox="0 0 112 171" fill="none" xmlns="http://www.w3.org/2000/svg">
<path d="M100.785 147.74C100.367 149.344 100.044 150.863 99.6263 152.466C97.5969 161.665 94.297 162.833 84.4396 161.458C69.0929 159.409 60.2295 149.139 51.371 138.688C47.0325 133.558 41.7419 129.097 38.557 122.766C35.2938 136.054 32.5923 149.284 25.0842 160.792C23.5954 160.617 22.6783 160.022 21.9728 158.535C20.7407 155.843 19.1306 153.31 17.6189 150.601C17.2319 137.648 18.6109 124.977 21.6651 112.491C22.8208 107.855 24.2537 103.324 25.9636 98.9005C27.7818 93.9401 30.7089 92.7504 35.7852 94.8478C39.0148 96.2072 42.0405 98.188 45.1669 99.9032C49.1097 102.479 53.0524 105.054 56.9019 107.624C62.0943 112.26 66.9971 117.242 73.4464 120.322C81.4931 126.386 88.6734 133.396 96.3348 139.891C99.1616 142.312 100.311 144.638 100.785 147.74Z" fill="#418E89"/>
<path d="M56.0727 107.807C52.106 105.211 48.1394 102.615 44.2665 100.025C43.6044 93.4266 41.2417 87.1865 40.6734 80.5934C40.5389 78.6721 40.3106 76.7456 40.4599 74.7494C43.8055 76.0339 47.1309 78.0462 50.9426 76.077C51.2188 76.275 51.4951 76.473 51.7688 76.762C51.3129 79.6518 53.693 81.8835 54.2787 84.4684C54.6134 85.9454 54.9253 88.2413 57.186 88.0059C58.9779 87.7437 59.8673 86.1543 59.639 84.2277C60.2067 84.0779 61.0507 84.1261 61.3447 83.6873C66.2456 76.313 74.3479 72.0373 79.9839 65.2517C87.0751 63.5608 94.4224 62.7958 100.817 59.1516C103.184 65.2096 106.406 70.952 107.349 77.5666C107.656 80.0444 107.403 82.3991 107.619 84.7805C107.829 87.3439 108.112 86.8376 108.14 88.8866C108.589 91.5287 108.828 97.9708 107.756 107.88C107.485 110.376 106.897 114.171 106.765 115.531C106.246 124.066 104.883 132.554 105.021 141.127C105.115 144.504 104.282 147.463 100.224 148.143C99.7473 145.018 98.5914 142.674 95.8388 140.33C88.1309 133.784 80.907 126.72 72.8114 120.608C78.6552 113.105 78.8345 106.646 73.3772 100.229C72.8702 98.1958 75.1634 93.4062 69.745 95.7393C66.4173 97.1895 63.3433 99.6565 61.9269 103.312C59.0047 103.691 56.8125 104.842 56.0727 107.807Z" fill="#8071A4"/>
<path d="M102.485 59.8831C96.1123 63.4264 88.7836 64.2802 81.7128 65.9665C78.0561 66.1212 74.3058 66.2706 70.6515 66.3346C68.2154 66.3773 66.0773 65.801 64.7377 63.453C63.3981 61.1049 65.3034 59.9416 66.3773 58.3674C68.1359 55.7419 69.8011 53.111 69.9852 49.8505C70.4473 46.6967 70.533 43.6123 69.777 40.4798C67.6027 31.0877 65.7578 30.0738 58.6464 29.8497C50.9786 26.0501 50.0677 15.0037 56.6706 9.92887C71.5038 -1.49095 86.3819 5.71858 96.0039 16.7169C101.539 23.1206 104.797 30.5756 108.144 38.2173C112.545 48.3725 109.293 54.1838 102.485 59.8831Z" fill="#423977"/>
<path d="M17.7173 152.05C19.1357 154.651 20.7426 157.173 22.063 159.949C22.7672 161.429 23.6825 162.021 25.1684 162.196C25.3624 165.268 23.8489 166.082 20.882 165.554C17.543 165.004 14.1034 164.719 10.7669 164.08C5.76079 163.166 1.41301 158.688 0.426795 153.95C-0.307863 150.217 2.93021 147.7 7.66219 148.418C11.2803 148.984 14.5943 150.432 17.7173 152.05Z" fill="#3D3C3F"/>
<path d="M51.9085 76.6985C51.6321 76.5005 51.3558 76.3024 51.0819 76.0133C49.1749 70.2532 45.7341 65.5905 40.9523 61.8538C39.157 58.8346 37.268 55.81 35.5665 52.7961C34.7627 51.2918 32.9371 49.3646 35.2264 48.1281C37.3255 46.9719 38.677 49.0543 39.7672 50.3926C42.3992 53.7331 44.8384 57.2449 47.374 60.671C48.5938 64.1131 48.764 68.1333 53.1375 69.6591C53.6548 71.3293 54.0809 72.9032 54.5982 74.5734C54.2789 75.9224 53.5007 76.8806 51.9085 76.6985Z" fill="white"/>
<path d="M58.6815 29.1806C65.8364 29.4974 67.6933 30.5169 69.884 39.8682C70.6448 43.0175 70.5585 46.1185 70.0933 49.2892C66.3602 47.2396 63.0539 46.2131 61.9026 42.5809C61.5798 42.0114 60.7131 42.0455 60.5079 41.3517C60.2692 40.5449 61.0495 39.1663 61.0127 37.8836C60.8828 35.7751 59.1853 31.4017 58.6815 29.1806Z" fill="#CECDCE"/>
<path d="M40.8499 61.9396C45.6225 65.7628 49.0585 70.4201 50.9654 76.0825C47.2516 78.0555 43.9298 76.045 40.4941 74.7563C39.0203 70.3931 38.2958 66.0728 40.8499 61.9396Z" fill="#CECDCE"/>
<path d="M51.4581 76.7207C53.0585 76.812 53.8369 75.9427 54.1574 74.5904C57.3888 77.0591 56.6996 81.497 59.3586 84.2072C59.5877 86.1391 58.6923 87.8241 56.896 87.9957C54.6241 88.323 54.3135 85.9296 53.9775 84.4484C53.3896 81.8564 50.9979 79.7098 51.4581 76.7207Z" fill="#CECDCE"/>
<path d="M53.0111 69.5839C48.5358 68.0505 48.3653 64.0246 47.2373 60.583C50.4043 58.3905 51.4687 60.7332 52.6271 63.0813C53.7905 65.247 53.9202 67.3538 53.0111 69.5839Z" fill="#CECDCE"/>
<path d="M73.5138 100.233C72.1831 100.974 71.307 102.195 70.4334 103.326C67.3329 107.143 66.1158 107.165 62.103 103.395C63.5142 99.7535 66.5769 97.2956 69.8923 95.8506C75.2933 93.4353 72.9151 98.2019 73.5138 100.233Z" fill="#CECDCE"/>
</svg>