<svg width="320" height="561" viewBox="0 0 320 561" fill="none" xmlns="http://www.w3.org/2000/svg">
<path d="M83.9138 129.952C90.9532 137.651 97.9514 145.304 104.983 152.994C97.2913 160.027 89.6001 167.059 81.8726 174.125C81.7231 173.979 81.5736 173.834 81.4414 173.689C79.128 171.159 76.8319 168.63 74.5003 166.116C74.0955 165.673 74.1114 165.327 74.392 164.888C74.9152 164.078 75.7082 163.817 76.5948 163.786C78.2376 163.728 79.6438 163.155 80.8337 162.001C83.0415 159.85 83.2014 156.186 81.1843 153.816C79.1755 151.456 75.6117 151.014 73.1089 152.789C71.6104 153.86 70.7797 155.316 70.5402 157.128C70.4057 158.164 69.9931 159.022 68.9189 159.357C68.7162 159.426 68.3639 159.35 68.2317 159.206C65.7927 156.575 63.3809 153.919 60.9601 151.271C60.9188 151.226 60.9038 151.173 60.8401 151.049C61.0032 150.9 61.1844 150.734 61.3565 150.577C63.8297 148.316 66.3028 146.054 68.7759 143.793C69.7725 142.882 69.8427 141.922 68.9906 140.826C68.2864 139.91 67.3059 139.529 66.1931 139.386C63.0014 138.969 61.0265 135.681 62.1624 132.685C63.0017 130.474 65.2834 129.168 67.661 129.549C69.9355 129.908 71.669 131.84 71.7866 134.188C71.8336 135.24 72.0315 136.221 72.7948 136.983C73.0773 137.255 73.4217 137.505 73.7782 137.676C74.5071 138.055 75.1429 138.005 75.8141 137.374C78.3094 135.01 80.8617 132.726 83.3982 130.407C83.5605 130.275 83.7236 130.126 83.9138 129.952Z" fill="white"/>
<path d="M137.415 163.918C142.219 158.303 146.994 152.721 151.792 147.113C157.401 151.912 163.011 156.71 168.646 161.532C168.557 161.65 168.468 161.767 168.378 161.873C166.799 163.718 165.219 165.551 163.654 167.408C163.378 167.731 163.133 167.749 162.8 167.59C162.185 167.292 161.933 166.757 161.835 166.137C161.651 164.987 161.127 164.048 160.213 163.311C158.51 161.945 155.92 162.149 154.429 163.773C152.943 165.389 152.941 167.933 154.404 169.539C155.287 170.499 156.383 170.957 157.678 170.969C158.417 170.974 159.056 171.19 159.385 171.916C159.451 172.053 159.428 172.307 159.338 172.412C157.699 174.355 156.041 176.28 154.389 178.211C154.36 178.244 154.325 178.259 154.243 178.314C154.124 178.213 153.992 178.1 153.866 177.992C152.062 176.449 150.259 174.906 148.455 173.363C147.728 172.741 147.047 172.775 146.351 173.469C145.768 174.043 145.585 174.765 145.58 175.56C145.563 177.84 143.423 179.513 141.218 178.973C139.591 178.574 138.475 177.083 138.537 175.379C138.593 173.749 139.802 172.363 141.442 172.077C142.178 171.953 142.85 171.729 143.32 171.127C143.487 170.904 143.632 170.641 143.722 170.375C143.925 169.83 143.835 169.387 143.334 168.97C141.456 167.42 139.629 165.824 137.779 164.241C137.673 164.138 137.554 164.036 137.415 163.918Z" fill="white"/>
<path d="M198.365 127.933C204.017 128.671 209.636 129.404 215.282 130.141C214.545 135.788 213.807 141.435 213.067 147.108C212.953 147.1 212.84 147.092 212.733 147.078C210.876 146.836 209.026 146.587 207.166 146.358C206.841 146.316 206.726 146.165 206.689 145.883C206.622 145.36 206.862 144.972 207.221 144.647C207.887 144.044 208.273 143.31 208.364 142.408C208.528 140.732 207.305 139.145 205.628 138.865C203.957 138.586 202.313 139.657 201.892 141.279C201.643 142.255 201.809 143.156 202.347 143.997C202.655 144.477 202.785 144.981 202.454 145.499C202.394 145.6 202.22 145.692 202.114 145.678C200.168 145.438 198.225 145.177 196.282 144.924C196.248 144.919 196.224 144.902 196.153 144.873C196.169 144.753 196.186 144.62 196.203 144.494C196.44 142.678 196.677 140.862 196.914 139.047C197.009 138.315 196.701 137.889 195.959 137.732C195.342 137.597 194.798 137.783 194.283 138.115C192.802 139.065 190.82 138.387 190.239 136.735C189.811 135.515 190.304 134.166 191.432 133.488C192.509 132.837 193.914 133.034 194.79 133.974C195.18 134.397 195.608 134.737 196.195 134.786C196.409 134.801 196.64 134.783 196.85 134.73C197.288 134.631 197.536 134.386 197.594 133.887C197.804 132.02 198.066 130.167 198.309 128.305C198.331 128.192 198.346 128.073 198.365 127.933Z" fill="white"/>
<path d="M70.2971 77.8633C69.4825 78.1699 68.8559 78.4058 68.2293 78.6417C59.6759 81.8613 51.1225 85.0809 42.5691 88.3005C39.2793 89.5388 38.1506 91.6718 38.9616 95.0618C39.712 98.1957 41.7594 100.214 44.5525 101.742C53.1343 106.391 53.8475 118.358 45.9201 124.096C41.1653 127.525 34.7556 127.602 30.0186 124.33C25.1844 120.99 23.3369 115.132 25.0656 109.461C25.67 107.455 26.0373 105.295 25.9545 103.27C25.8906 101.864 25.0736 100.359 24.2347 99.1759C22.417 96.7226 21.0247 96.4449 18.0796 97.5535C9.46355 100.797 0.878818 104.028 -7.73725 107.271C-8.36387 107.507 -8.95916 107.731 -9.67978 108.002C-19.4838 81.9564 -29.2304 56.0631 -39 30.1086C-12.3685 20.0842 14.2003 10.0834 40.8944 0.0353726C41.1441 0.603737 41.3708 1.11104 41.5547 1.59959C44.7729 10.1493 47.9484 18.6802 51.2292 27.2063C51.7924 28.7025 51.3957 29.5491 50.1947 30.3498C47.9296 31.9345 45.5962 31.6275 43.196 30.8576C36.5291 28.7307 30.505 30.0221 25.6095 35.072C20.8675 39.9596 19.6412 45.8246 22.0914 52.0489C24.5186 58.212 29.3559 61.6552 36.0664 62.0924C42.894 62.5554 48.1063 59.5824 51.6596 53.8176C52.8572 51.8677 54.1897 50.1809 56.4946 49.5573C58.6743 48.9809 59.5109 49.3981 60.2695 51.4133C63.3498 59.5966 66.4301 67.7799 69.5104 75.9632C69.7914 76.5198 70.0213 77.1305 70.2971 77.8633Z" fill="white"/>
<path d="M308.855 534.095C308.396 535.848 308.044 537.51 307.585 539.263C305.365 549.325 301.672 550.551 290.611 548.874C273.39 546.364 263.39 534.941 253.394 523.319C248.498 517.614 242.538 512.628 238.929 505.626C235.35 520.155 232.402 534.629 224.053 547.134C222.382 546.916 221.35 546.248 220.55 544.604C219.152 541.627 217.332 538.82 215.62 535.821C215.108 521.597 216.577 507.713 219.926 494.06C221.194 488.991 222.773 484.043 224.663 479.216C226.672 473.803 229.947 472.547 235.651 474.935C239.281 476.482 242.686 478.708 246.202 480.644C250.638 483.538 255.075 486.431 259.407 489.318C265.257 494.495 270.785 500.046 278.035 503.536C287.094 510.329 295.188 518.145 303.818 525.404C307.002 528.11 308.305 530.683 308.855 534.095Z" fill="#418E89"/>
<path d="M258.528 488.78C254.053 485.845 249.578 482.91 245.209 479.982C244.424 472.682 241.73 465.748 241.051 458.455C240.888 456.331 240.62 454.199 240.775 451.996C244.544 453.472 248.294 455.752 252.567 453.642C252.879 453.865 253.191 454.089 253.5 454.412C253.005 457.597 255.694 460.103 256.369 462.968C256.754 464.606 257.118 467.147 259.658 466.926C261.671 466.667 262.661 464.926 262.393 462.794C263.03 462.638 263.979 462.706 264.307 462.226C269.771 454.164 278.853 449.579 285.147 442.179C293.108 440.432 301.363 439.712 308.528 435.796C311.227 442.528 314.884 448.927 315.985 456.25C316.345 458.992 316.074 461.589 316.331 464.224C316.584 467.059 316.899 466.504 316.942 468.768C317.463 471.695 317.771 478.815 316.626 489.744C316.337 492.496 315.699 496.678 315.559 498.178C315.028 507.598 313.548 516.951 313.755 526.424C313.881 530.156 312.962 533.41 308.405 534.092C307.85 530.631 306.537 528.022 303.428 525.386C294.723 518.024 286.56 510.097 277.422 503.207C283.945 495.019 284.108 487.886 277.934 480.705C277.351 478.45 279.9 473.198 273.823 475.683C270.092 477.228 266.651 479.901 265.081 483.914C261.798 484.284 259.341 485.518 258.528 488.78Z" fill="#8071A4"/>
<path d="M310.732 435.641C303.598 439.438 295.375 440.254 287.446 441.992C283.342 442.1 279.132 442.201 275.029 442.209C272.294 442.214 269.89 441.543 268.372 438.932C266.853 436.322 268.986 435.072 270.182 433.356C272.14 430.492 273.994 427.621 274.181 424.031C274.68 420.563 274.758 417.166 273.89 413.7C271.391 403.313 269.314 402.164 261.328 401.796C252.696 397.478 251.606 385.289 258.988 379.808C275.573 367.476 292.322 375.675 303.192 387.959C309.446 395.111 313.149 403.382 316.954 411.861C321.957 423.128 318.341 429.477 310.732 435.641Z" fill="#423977"/>
<path d="M215.775 538.764C217.38 541.633 219.196 544.418 220.692 547.476C221.49 549.106 222.519 549.769 224.185 549.985C224.421 553.348 222.73 554.212 219.403 553.584C215.658 552.927 211.803 552.556 208.061 551.801C202.446 550.716 197.548 545.746 196.415 540.549C195.569 536.454 199.182 533.757 204.488 534.623C208.545 535.303 212.266 536.943 215.775 538.764Z" fill="#3D3C3F"/>
<path d="M254.117 454.37C253.805 454.146 253.494 453.923 253.184 453.599C251.005 447.202 247.108 441.991 241.709 437.781C239.672 434.414 237.53 431.04 235.599 427.681C234.686 426.005 232.621 423.844 235.188 422.517C237.541 421.275 239.073 423.599 240.307 425.097C243.286 428.833 246.05 432.754 248.921 436.583C250.314 440.407 250.53 444.852 255.456 446.613C256.048 448.467 256.537 450.213 257.128 452.068C256.778 453.553 255.908 454.598 254.117 454.37Z" fill="white"/>
<path d="M261.423 401.343C269.48 401.816 271.577 402.977 274.1 413.365C274.976 416.864 274.898 420.296 274.394 423.797C270.178 421.465 266.45 420.272 265.131 416.232C264.764 415.596 263.789 415.619 263.554 414.847C263.28 413.95 264.15 412.437 264.101 411.017C263.942 408.681 262.004 403.811 261.423 401.343Z" fill="#CECDCE"/>
<path d="M241.547 437.955C246.933 442.256 250.822 447.456 252.999 453.739C248.838 455.853 245.094 453.577 241.225 452.096C239.543 447.255 238.702 442.473 241.547 437.955Z" fill="#CECDCE"/>
<path d="M253.406 454.415C255.208 454.544 256.08 453.594 256.432 452.103C260.086 454.891 259.337 459.793 262.347 462.838C262.617 464.981 261.619 466.831 259.598 466.991C257.042 467.314 256.677 464.659 256.29 463.014C255.612 460.134 252.906 457.716 253.406 454.415Z" fill="#CECDCE"/>
<path d="M255.256 446.459C250.211 444.686 249.995 440.23 248.705 436.403C252.255 434.032 253.467 436.642 254.784 439.259C256.107 441.675 256.265 444.007 255.256 446.459Z" fill="#CECDCE"/>
<path d="M278.132 480.8C276.643 481.593 275.667 482.923 274.693 484.152C271.236 488.303 269.87 488.306 265.343 484.087C266.905 480.101 270.328 477.446 274.04 475.912C280.088 473.344 277.447 478.552 278.132 480.8Z" fill="#CECDCE"/>
<path d="M293.928 185.934C296.774 188.087 299.603 190.226 302.446 192.376C300.296 195.219 298.145 198.062 295.985 200.919C295.926 200.879 295.866 200.84 295.813 200.799C294.878 200.092 293.948 199.384 293.008 198.683C292.844 198.559 292.828 198.442 292.895 198.277C293.021 197.972 293.271 197.835 293.568 197.769C294.117 197.647 294.554 197.368 294.883 196.905C295.492 196.045 295.318 194.803 294.492 194.131C293.67 193.461 292.444 193.534 291.712 194.286C291.275 194.74 291.086 195.281 291.118 195.906C291.137 196.262 291.051 196.577 290.711 196.756C290.647 196.792 290.524 196.788 290.47 196.748C289.486 196.014 288.51 195.271 287.532 194.53C287.515 194.518 287.507 194.501 287.477 194.463C287.523 194.403 287.574 194.336 287.622 194.272C288.313 193.358 289.005 192.444 289.696 191.53C289.975 191.161 289.939 190.834 289.584 190.518C289.29 190.254 288.937 190.187 288.554 190.208C287.454 190.266 286.586 189.283 286.782 188.204C286.927 187.408 287.613 186.827 288.437 186.808C289.224 186.787 289.927 187.33 290.112 188.112C290.193 188.463 290.321 188.781 290.625 188.989C290.737 189.064 290.868 189.126 290.999 189.162C291.268 189.244 291.478 189.187 291.665 188.934C292.357 187.983 293.074 187.057 293.783 186.119C293.83 186.065 293.875 186.004 293.928 185.934Z" fill="white"/>
<path d="M290.895 226.675C293.692 228.791 296.473 230.894 299.267 233.007C297.154 235.802 295.04 238.596 292.917 241.404C292.858 241.365 292.8 241.326 292.747 241.286C291.828 240.591 290.915 239.895 289.99 239.206C289.829 239.084 289.814 238.969 289.88 238.807C290.003 238.507 290.249 238.372 290.541 238.308C291.08 238.188 291.51 237.913 291.833 237.459C292.432 236.613 292.261 235.392 291.449 234.732C290.641 234.074 289.436 234.145 288.717 234.885C288.287 235.331 288.101 235.863 288.132 236.476C288.151 236.827 288.067 237.136 287.733 237.312C287.67 237.347 287.549 237.344 287.496 237.304C286.529 236.583 285.57 235.852 284.608 235.125C284.591 235.112 284.583 235.096 284.554 235.059C284.599 234.999 284.649 234.933 284.696 234.871C285.376 233.972 286.056 233.074 286.735 232.175C287.009 231.813 286.974 231.491 286.625 231.181C286.336 230.921 285.989 230.855 285.612 230.876C284.532 230.933 283.678 229.966 283.871 228.907C284.013 228.124 284.688 227.553 285.497 227.534C286.271 227.514 286.962 228.047 287.144 228.816C287.224 229.161 287.349 229.473 287.648 229.678C287.758 229.751 287.887 229.813 288.016 229.848C288.28 229.928 288.487 229.873 288.67 229.624C289.351 228.69 290.055 227.779 290.752 226.857C290.798 226.804 290.843 226.744 290.895 226.675Z" fill="white"/>
<path d="M310.895 266.675C313.692 268.791 316.473 270.894 319.267 273.007C317.154 275.802 315.04 278.596 312.917 281.404C312.858 281.365 312.8 281.326 312.747 281.286C311.828 280.591 310.915 279.895 309.99 279.206C309.829 279.084 309.814 278.969 309.88 278.807C310.003 278.507 310.249 278.372 310.541 278.308C311.08 278.188 311.51 277.913 311.833 277.459C312.432 276.613 312.261 275.392 311.449 274.732C310.641 274.074 309.436 274.145 308.717 274.885C308.287 275.331 308.101 275.863 308.132 276.476C308.151 276.827 308.067 277.136 307.733 277.312C307.67 277.347 307.549 277.344 307.496 277.304C306.529 276.583 305.57 275.852 304.608 275.125C304.591 275.112 304.583 275.096 304.554 275.059C304.599 274.999 304.649 274.933 304.696 274.871C305.376 273.972 306.056 273.074 306.735 272.175C307.009 271.813 306.974 271.491 306.625 271.181C306.336 270.921 305.989 270.855 305.612 270.876C304.532 270.933 303.678 269.966 303.871 268.907C304.013 268.124 304.688 267.553 305.497 267.534C306.271 267.514 306.962 268.047 307.144 268.816C307.224 269.161 307.349 269.473 307.648 269.678C307.758 269.751 307.887 269.813 308.016 269.848C308.28 269.928 308.487 269.873 308.67 269.624C309.351 268.69 310.055 267.779 310.752 266.857C310.798 266.804 310.843 266.744 310.895 266.675Z" fill="white"/>
<path d="M269.154 163.603C267.033 168.53 264.924 173.428 262.806 178.349C257.884 176.23 252.962 174.112 248.017 171.983C248.054 171.882 248.09 171.781 248.13 171.689C248.827 170.07 249.528 168.459 250.213 166.835C250.335 166.551 250.501 166.486 250.766 166.524C251.256 166.598 251.546 166.915 251.748 167.324C252.122 168.082 252.688 168.62 253.48 168.933C254.955 169.514 256.706 168.814 257.391 167.368C258.073 165.927 257.526 164.164 256.166 163.366C255.347 162.89 254.489 162.808 253.589 163.079C253.075 163.235 252.586 163.223 252.201 162.79C252.126 162.71 252.087 162.528 252.127 162.436C252.845 160.737 253.58 159.045 254.309 157.35C254.322 157.321 254.343 157.303 254.388 157.247C254.492 157.292 254.608 157.342 254.719 157.389C256.301 158.071 257.884 158.752 259.467 159.433C260.104 159.708 260.569 159.538 260.903 158.907C261.183 158.383 261.154 157.843 260.986 157.291C260.507 155.707 261.631 154.087 263.275 153.986C264.489 153.912 265.583 154.705 265.907 155.9C266.22 157.042 265.68 158.263 264.605 158.814C264.122 159.059 263.704 159.359 263.508 159.878C263.44 160.068 263.396 160.282 263.391 160.485C263.367 160.907 263.525 161.194 263.963 161.376C265.598 162.045 267.208 162.759 268.832 163.458C268.928 163.506 269.032 163.551 269.154 163.603Z" fill="white"/>
</svg>
