<svg width="175" height="190" viewBox="0 0 175 190" fill="none" xmlns="http://www.w3.org/2000/svg">
<path d="M172.181 217.714C171.495 220.336 170.968 222.821 170.282 225.443C166.963 240.488 161.441 242.322 144.9 239.815C119.149 236.061 104.195 218.979 89.2469 201.6C81.9259 193.07 73.0146 185.614 67.617 175.143C62.2661 196.869 57.8565 218.513 45.372 237.212C42.8741 236.886 41.3311 235.887 40.1347 233.428C38.0442 228.978 35.3217 224.779 32.7623 220.295C31.996 199.026 34.1932 178.263 39.201 157.848C41.0967 150.268 43.4581 142.869 46.2851 135.652C49.2887 127.556 54.1857 125.678 62.7162 129.25C68.1437 131.563 73.2349 134.891 78.4926 137.786C85.1267 142.113 91.7609 146.441 98.2387 150.757C106.987 158.498 115.253 166.799 126.094 172.018C139.641 182.176 151.744 193.864 164.649 204.718C169.411 208.765 171.358 212.612 172.181 217.714Z" fill="#418E89"/>
<path d="M95.0579 150.278C88.3664 145.889 81.6749 141.501 75.1411 137.123C73.968 126.206 69.9395 115.838 68.924 104.933C68.6804 101.755 68.2791 98.5672 68.5119 95.2737C74.1474 97.4809 79.7556 100.89 86.1449 97.7341C86.6111 98.0683 87.0773 98.4024 87.5401 98.8868C86.8 103.649 90.8212 107.396 91.8293 111.681C92.4054 114.129 92.9507 117.93 96.7487 117.598C99.7583 117.211 101.239 114.608 100.838 111.42C101.791 111.187 103.21 111.288 103.7 110.571C111.871 98.5145 125.451 91.6585 134.863 80.5934C146.768 77.9813 159.112 76.905 169.827 71.0485C173.862 81.116 179.33 90.6839 180.976 101.634C181.515 105.735 181.11 109.618 181.495 113.558C181.872 117.798 182.343 116.968 182.408 120.354C183.188 124.73 183.648 135.377 181.935 151.719C181.504 155.836 180.549 162.089 180.34 164.331C179.546 178.418 177.333 192.404 177.642 206.569C177.831 212.149 176.457 217.017 169.642 218.036C168.813 212.861 166.848 208.959 162.2 205.017C149.183 194.008 136.976 182.155 123.312 171.852C133.066 159.608 133.309 148.942 124.077 138.203C123.206 134.831 127.017 126.978 117.93 130.694C112.35 133.004 107.205 137.001 104.857 143.002C99.9489 143.555 96.2744 145.4 95.0579 150.278Z" fill="#8071A4"/>
<path d="M172.278 71.5297C161.489 77.5976 149.058 78.9384 137.07 81.7416C130.866 81.9358 124.502 82.1188 118.301 82.1543C114.167 82.178 110.535 81.1246 108.244 76.9872C105.954 72.8498 109.179 70.8537 110.99 68.121C113.955 63.5629 116.762 58.9934 117.051 53.2908C117.812 47.7809 117.935 42.3845 116.629 36.8864C112.871 20.4035 109.733 18.5904 97.6625 18.0492C84.6222 11.2389 82.996 -8.11287 94.1646 -16.8564C119.254 -36.5321 144.556 -23.6029 160.965 -4.15282C170.405 7.17043 175.988 20.2859 181.724 33.7301C189.266 51.5952 183.79 61.6977 172.278 71.5297Z" fill="#423977"/>
<path d="M89.8962 98.9815C89.4297 98.6472 88.9633 98.3129 88.5003 97.8283C85.2416 88.2628 79.4143 80.4713 71.3408 74.1755C68.2951 69.1413 65.0916 64.0958 62.2036 59.0728C60.8384 56.567 57.7517 53.3362 61.5891 51.3517C65.1076 49.495 67.3988 52.9701 69.244 55.2091C73.6993 60.7954 77.8322 66.6598 82.1264 72.3851C84.2085 78.1033 84.5314 84.7499 91.8981 87.3825C92.7831 90.1552 93.5138 92.7664 94.3988 95.5391C93.8743 97.7597 92.5746 99.323 89.8962 98.9815Z" fill="white"/>
<path d="M97.8299 18.1949C109.878 18.9023 113.013 20.6372 116.787 36.1723C118.096 41.4048 117.979 46.5356 117.225 51.7721C110.922 48.2841 105.346 46.5004 103.375 40.4587C102.826 39.5078 101.368 39.542 101.016 38.3883C100.607 37.0467 101.908 34.7846 101.834 32.6605C101.596 29.167 98.6983 21.8844 97.8299 18.1949Z" fill="#CECDCE"/>
<path d="M71.0994 74.4358C79.1532 80.8683 84.9687 88.6435 88.2243 98.0389C82.0023 101.201 76.4027 97.7975 70.6184 95.5827C68.1023 88.343 66.8456 81.1931 71.0994 74.4358Z" fill="#CECDCE"/>
<path d="M88.8328 99.0496C91.5283 99.2417 92.8312 97.8225 93.3584 95.592C98.8221 99.7614 97.7023 107.09 102.204 111.645C102.608 114.849 101.115 117.615 98.0924 117.854C94.2698 118.337 93.7249 114.367 93.1457 111.907C92.132 107.601 88.0851 103.986 88.8328 99.0496Z" fill="#CECDCE"/>
<path d="M91.5988 87.1506C84.0547 84.5 83.731 77.8368 81.8016 72.1155C87.1104 68.5701 88.9227 72.4721 90.8932 76.3854C92.8706 79.9974 93.1081 83.4853 91.5988 87.1506Z" fill="#CECDCE"/>
<path d="M124.311 138.504C122.084 139.69 120.625 141.679 119.169 143.518C114 149.725 111.957 149.73 105.188 143.42C107.523 137.459 112.641 133.49 118.193 131.195C127.236 127.355 123.288 135.144 124.311 138.504Z" fill="#CECDCE"/>
</svg>
