<svg width="187" height="294" viewBox="0 0 187 294" fill="none" xmlns="http://www.w3.org/2000/svg">
<path d="M168.758 253.15C168.072 255.772 167.545 258.257 166.859 260.879C163.54 275.924 158.017 277.758 141.477 275.251C115.726 271.497 100.771 254.415 85.8236 237.036C78.5026 228.506 69.5912 221.05 64.1936 210.579C58.8427 232.305 54.4332 253.949 41.9487 272.648C39.4508 272.322 37.9078 271.323 36.7113 268.864C34.6209 264.414 31.8984 260.215 29.339 255.731C28.5727 234.462 30.7699 213.699 35.7776 193.284C37.6734 185.704 40.0348 178.305 42.8617 171.088C45.8653 162.992 50.7624 161.114 59.2928 164.686C64.7204 166.999 69.8116 170.327 75.0692 173.222C81.7034 177.549 88.3376 181.877 94.8154 186.193C103.564 193.934 111.829 202.235 122.671 207.454C136.218 217.612 148.321 229.3 161.226 240.154C165.987 244.201 167.935 248.048 168.758 253.15Z" fill="#418E89"/>
<path d="M95.0581 183.733C88.3666 179.345 81.6752 174.956 75.1414 170.578C73.9682 159.661 69.9397 149.293 68.9242 138.388C68.6806 135.211 68.2793 132.022 68.5121 128.729C74.1477 130.936 79.7559 134.345 86.1451 131.189C86.6113 131.523 87.0775 131.858 87.5403 132.342C86.8003 137.104 90.8214 140.851 91.8295 145.136C92.4056 147.584 92.9509 151.385 96.7489 151.054C99.7585 150.666 101.239 148.063 100.838 144.875C101.791 144.642 103.21 144.743 103.7 144.026C111.871 131.97 125.452 125.114 134.864 114.048C146.768 111.436 159.112 110.36 169.827 104.504C173.862 114.571 179.33 124.139 180.976 135.09C181.515 139.19 181.111 143.073 181.495 147.013C181.872 151.253 182.343 150.423 182.408 153.809C183.188 158.185 183.648 168.832 181.935 185.174C181.504 189.291 180.549 195.544 180.34 197.786C179.546 211.873 177.333 225.859 177.642 240.024C177.831 245.605 176.457 250.472 169.643 251.491C168.813 246.316 166.848 242.414 162.2 238.472C149.184 227.463 136.976 215.61 123.312 205.307C133.067 193.063 133.309 182.397 124.077 171.658C123.206 168.286 127.017 160.433 117.931 164.149C112.35 166.459 107.205 170.456 104.858 176.458C99.9491 177.01 96.2746 178.855 95.0581 183.733Z" fill="#8071A4"/>
<path d="M171.564 101.441C160.896 107.118 148.599 108.338 136.743 110.937C130.605 111.099 124.31 111.249 118.175 111.262C114.086 111.27 110.491 110.266 108.22 106.362C105.95 102.459 109.138 100.59 110.927 98.0231C113.855 93.7412 116.627 89.4481 116.907 84.0796C117.654 78.894 117.769 73.8132 116.472 68.6317C112.736 53.0986 109.629 51.3806 97.6873 50.83C84.779 44.3731 83.1491 26.1459 94.1888 17.9509C118.989 -0.490433 144.034 11.7698 160.289 30.1399C169.64 40.834 175.179 53.2025 180.867 65.8811C188.348 82.7286 182.941 92.2225 171.564 101.441Z" fill="#423977"/>
<path d="M29.5711 260.132C31.971 264.421 34.6861 268.585 36.9233 273.157C38.1165 275.596 39.6553 276.587 42.1465 276.91C42.4993 281.937 39.971 283.231 34.9954 282.291C29.3962 281.308 23.631 280.754 18.0352 279.624C9.63981 278.002 2.31505 270.57 0.619886 262.799C-0.644728 256.677 4.75754 252.644 12.692 253.939C18.7589 254.955 24.3243 257.408 29.5711 260.132Z" fill="#3D3C3F"/>
<path d="M89.8964 132.437C89.43 132.103 88.9635 131.768 88.5005 131.284C85.2418 121.718 79.4145 113.927 71.3411 107.631C68.2953 102.597 65.0918 97.5514 62.2038 92.5284C60.8387 90.0225 57.7519 86.7918 61.5893 84.8073C65.1078 82.9506 67.399 86.4257 69.2442 88.6647C73.6995 94.251 77.8325 100.115 82.1266 105.841C84.2088 111.559 84.5316 118.205 91.8983 120.838C92.7833 123.611 93.514 126.222 94.399 128.995C93.8745 131.215 92.5749 132.779 89.8964 132.437Z" fill="white"/>
<path d="M97.8299 51.65C109.878 52.3574 113.013 54.0923 116.787 69.6274C118.096 74.8599 117.979 79.9906 117.225 85.2272C110.922 81.7392 105.346 79.9555 103.375 73.9138C102.826 72.9628 101.368 72.9971 101.016 71.8434C100.607 70.5017 101.908 68.2397 101.834 66.1155C101.596 62.6221 98.6983 55.3395 97.8299 51.65Z" fill="#CECDCE"/>
<path d="M71.0994 107.891C79.1532 114.323 84.9687 122.099 88.2243 131.494C82.0023 134.656 76.4027 131.253 70.6184 129.038C68.1023 121.798 66.8456 114.648 71.0994 107.891Z" fill="#CECDCE"/>
<path d="M88.833 132.505C91.5286 132.697 92.8314 131.278 93.3587 129.047C98.8223 133.216 97.7025 140.545 102.205 145.1C102.608 148.304 101.116 151.07 98.0927 151.309C94.27 151.792 93.7252 147.822 93.1459 145.362C92.1323 141.056 88.0853 137.441 88.833 132.505Z" fill="#CECDCE"/>
<path d="M91.5991 120.606C84.0549 117.955 83.7312 111.292 81.8019 105.571C87.1106 102.025 88.9229 105.927 90.8935 109.84C92.8708 113.452 93.1083 116.94 91.5991 120.606Z" fill="#CECDCE"/>
<path d="M124.311 171.959C122.085 173.146 120.625 175.134 119.169 176.973C114 183.181 111.958 183.185 105.188 176.876C107.524 170.915 112.642 166.945 118.193 164.65C127.236 160.81 123.288 168.599 124.311 171.959Z" fill="#CECDCE"/>
</svg>
