<svg width="320" height="362" viewBox="0 0 320 362" fill="none" xmlns="http://www.w3.org/2000/svg">
<path d="M305.363 326.144C304.763 328.433 304.304 330.603 303.704 332.892C300.806 346.031 295.984 347.632 281.54 345.442C259.054 342.165 245.996 327.248 232.943 312.073C226.55 304.624 218.769 298.113 214.055 288.97C209.383 307.941 205.532 326.842 194.631 343.169C192.449 342.885 191.102 342.013 190.057 339.866C188.232 335.979 185.855 332.313 183.62 328.398C182.95 309.825 184.869 291.695 189.242 273.868C190.897 267.248 192.959 260.787 195.428 254.485C198.051 247.416 202.327 245.776 209.776 248.895C214.515 250.915 218.961 253.821 223.552 256.349C229.345 260.128 235.138 263.906 240.795 267.676C248.434 274.435 255.652 281.683 265.119 286.241C276.948 295.111 287.517 305.317 298.786 314.796C302.944 318.329 304.644 321.688 305.363 326.144Z" fill="#418E89"/>
<path d="M239.647 266.973C233.803 263.14 227.96 259.308 222.255 255.485C221.23 245.952 217.713 236.899 216.826 227.376C216.613 224.602 216.263 221.818 216.466 218.942C221.387 220.869 226.284 223.846 231.864 221.09C232.271 221.382 232.678 221.674 233.082 222.097C232.436 226.255 235.947 229.527 236.827 233.269C237.33 235.407 237.807 238.725 241.123 238.436C243.751 238.098 245.044 235.825 244.694 233.041C245.526 232.838 246.765 232.926 247.193 232.299C254.328 221.772 266.187 215.785 274.405 206.123C284.801 203.842 295.579 202.902 304.936 197.788C308.46 206.579 313.235 214.934 314.672 224.496C315.142 228.077 314.789 231.468 315.125 234.908C315.454 238.61 315.865 237.886 315.922 240.842C316.603 244.663 317.005 253.961 315.509 268.231C315.133 271.825 314.299 277.286 314.117 279.244C313.423 291.545 311.49 303.757 311.761 316.127C311.926 321 310.726 325.25 304.775 326.14C304.051 321.621 302.335 318.214 298.276 314.771C286.91 305.158 276.25 294.808 264.318 285.811C272.836 275.119 273.048 265.806 264.987 256.429C264.226 253.484 267.554 246.626 259.619 249.871C254.746 251.889 250.254 255.379 248.204 260.619C243.917 261.102 240.709 262.713 239.647 266.973Z" fill="#8071A4"/>
<path d="M307.814 197.586C298.499 202.544 287.761 203.609 277.408 205.878C272.048 206.02 266.551 206.151 261.194 206.162C257.623 206.169 254.484 205.292 252.501 201.884C250.518 198.475 253.303 196.843 254.864 194.602C257.422 190.863 259.842 187.114 260.086 182.426C260.739 177.898 260.84 173.461 259.707 168.937C256.444 155.373 253.731 153.873 243.304 153.392C232.032 147.753 230.609 131.837 240.249 124.681C261.905 108.578 283.774 119.284 297.968 135.325C306.134 144.663 310.97 155.464 315.938 166.535C322.47 181.246 317.749 189.537 307.814 197.586Z" fill="#423977"/>
<path d="M183.822 332.241C185.917 335.987 188.288 339.623 190.242 343.616C191.284 345.745 192.627 346.611 194.803 346.893C195.111 351.283 192.903 352.413 188.558 351.592C183.669 350.734 178.635 350.25 173.749 349.263C166.418 347.847 160.022 341.357 158.541 334.571C157.437 329.225 162.154 325.702 169.083 326.833C174.381 327.721 179.24 329.862 183.822 332.241Z" fill="#3D3C3F"/>
<path d="M233.888 222.041C233.481 221.749 233.073 221.457 232.669 221.034C229.823 212.681 224.735 205.877 217.685 200.379C215.026 195.983 212.228 191.577 209.707 187.191C208.515 185.003 205.819 182.182 209.17 180.449C212.242 178.827 214.243 181.862 215.854 183.817C219.745 188.695 223.354 193.816 227.103 198.816C228.921 203.809 229.203 209.614 235.636 211.912C236.409 214.334 237.047 216.614 237.82 219.035C237.362 220.974 236.227 222.339 233.888 222.041Z" fill="white"/>
<path d="M243.427 152.801C253.948 153.419 256.686 154.934 259.981 168.499C261.125 173.068 261.023 177.548 260.364 182.121C254.86 179.075 249.991 177.517 248.27 172.242C247.79 171.411 246.517 171.441 246.209 170.434C245.852 169.262 246.988 167.287 246.924 165.432C246.716 162.382 244.186 156.023 243.427 152.801Z" fill="#CECDCE"/>
<path d="M217.474 200.607C224.507 206.224 229.585 213.013 232.428 221.217C226.995 223.978 222.105 221.006 217.054 219.072C214.857 212.75 213.759 206.507 217.474 200.607Z" fill="#CECDCE"/>
<path d="M232.959 222.1C235.312 222.268 236.45 221.029 236.91 219.081C241.681 222.722 240.703 229.122 244.634 233.099C244.987 235.897 243.684 238.313 241.044 238.521C237.706 238.943 237.23 235.476 236.725 233.328C235.84 229.568 232.306 226.411 232.959 222.1Z" fill="#CECDCE"/>
<path d="M235.375 211.711C228.787 209.396 228.505 203.577 226.82 198.581C231.456 195.485 233.038 198.893 234.759 202.31C236.485 205.464 236.693 208.51 235.375 211.711Z" fill="#CECDCE"/>
<path d="M265.245 256.552C263.301 257.588 262.026 259.324 260.755 260.93C256.241 266.351 254.457 266.354 248.546 260.845C250.586 255.64 255.055 252.174 259.902 250.17C267.799 246.817 264.351 253.618 265.245 256.552Z" fill="#CECDCE"/>
<path d="M51.473 39.4433C53.2802 54.7995 55.0768 70.0657 56.8819 85.4039C41.5409 87.2093 26.1999 89.0147 10.7867 90.8286C10.7326 90.5243 10.6784 90.22 10.6445 89.9317C10.0506 84.885 9.47686 79.8543 8.8468 74.8119C8.74287 73.9287 9.06183 73.5257 9.77935 73.2402C11.1102 72.7182 12.2899 73.091 13.3834 73.8211C15.411 75.1723 17.5983 75.7006 20.0292 75.3415C24.5477 74.6635 27.9106 70.3938 27.5345 65.7966C27.1605 61.2175 23.2543 57.6022 18.7073 57.5708C15.9768 57.5633 13.7168 58.5967 11.8605 60.5694C10.8027 61.6989 9.56318 62.3747 7.9807 61.8483C7.67674 61.7562 7.31865 61.3597 7.28471 61.0714C6.62708 55.7947 6.02367 50.5116 5.40218 45.2306C5.39157 45.1405 5.41923 45.0641 5.4501 44.8595C5.77535 44.8212 6.13675 44.7787 6.48006 44.7383C11.413 44.1577 16.346 43.5772 21.2789 42.9967C23.2666 42.7628 24.182 41.6683 24.1049 39.6124C24.0501 37.9012 23.2001 36.5942 21.9856 35.458C18.5055 32.1946 18.9746 26.5294 22.9345 23.9071C25.8579 21.9733 29.7341 22.376 32.2652 24.8922C34.6912 27.2929 35.1047 31.1182 33.2142 34.0452C32.3603 35.3517 31.7499 36.7027 32.0088 38.2803C32.1128 38.8528 32.3114 39.4507 32.5919 39.9659C33.1411 41.0525 33.9499 41.542 35.303 41.3645C40.3518 40.679 45.3995 40.1398 50.459 39.5444C50.7683 39.5262 51.0935 39.4879 51.473 39.4433Z" fill="white"/>
<path d="M86.4521 126.617C97.0917 124.018 107.669 121.435 118.296 118.839C120.892 129.468 123.488 140.097 126.097 150.776C125.887 150.84 125.678 150.905 125.478 150.954C121.982 151.808 118.495 152.646 115.004 153.525C114.392 153.675 114.081 153.485 113.819 153.006C113.337 152.115 113.497 151.254 113.915 150.422C114.69 148.879 114.872 147.296 114.409 145.618C113.542 142.5 110.249 140.505 107.05 141.167C103.863 141.826 101.659 144.885 102.03 148.084C102.261 150.005 103.183 151.504 104.731 152.638C105.616 153.284 106.199 154.097 105.965 155.255C105.927 155.477 105.679 155.763 105.479 155.812C101.827 156.731 98.1646 157.612 94.5057 158.506C94.4432 158.521 94.3871 158.508 94.2406 158.504C94.1856 158.279 94.1244 158.028 94.0663 157.79C93.2315 154.373 92.3967 150.955 91.5619 147.537C91.2255 146.16 90.3769 145.611 88.9382 145.843C87.7399 146.03 86.8945 146.74 86.2008 147.692C84.2076 150.421 80.1842 150.581 77.9982 148.024C76.3858 146.136 76.3336 143.376 77.8836 141.379C79.3616 139.466 82.0151 138.844 84.2364 139.92C85.2287 140.408 86.2313 140.72 87.318 140.401C87.7115 140.279 88.1147 140.088 88.4526 139.846C89.169 139.366 89.4433 138.755 89.2014 137.819C88.2828 134.329 87.4671 130.827 86.6109 127.321C86.5714 127.105 86.5163 126.88 86.4521 126.617Z" fill="white"/>
<path d="M190.935 136.068C197.097 141.847 203.224 147.593 209.379 153.366C203.605 159.523 197.831 165.679 192.03 171.865C191.9 171.757 191.771 171.648 191.655 171.54C189.63 169.64 187.618 167.741 185.58 165.856C185.225 165.523 185.217 165.243 185.416 164.871C185.788 164.184 186.412 163.924 187.126 163.844C188.449 163.695 189.549 163.145 190.438 162.139C192.087 160.265 191.989 157.297 190.213 155.508C188.444 153.727 185.539 153.592 183.628 155.18C182.485 156.138 181.904 157.366 181.823 158.844C181.779 159.688 181.499 160.407 180.653 160.744C180.493 160.813 180.204 160.773 180.088 160.665C177.955 158.692 175.843 156.697 173.724 154.709C173.687 154.675 173.672 154.634 173.613 154.537C173.735 154.407 173.871 154.262 174.001 154.124C175.857 152.144 177.714 150.165 179.571 148.185C180.319 147.387 180.316 146.608 179.56 145.776C178.934 145.08 178.119 144.833 177.211 144.786C174.608 144.648 172.809 142.116 173.54 139.626C174.081 137.789 175.842 136.592 177.785 136.752C179.644 136.901 181.164 138.353 181.405 140.242C181.508 141.088 181.729 141.868 182.393 142.436C182.638 142.638 182.931 142.818 183.23 142.935C183.842 143.195 184.352 143.115 184.855 142.565C186.723 140.5 188.642 138.497 190.547 136.467C190.67 136.351 190.792 136.22 190.935 136.068Z" fill="white"/>
</svg>