<svg width="154" height="93" viewBox="0 0 154 93" fill="none" xmlns="http://www.w3.org/2000/svg">
<path d="M17.3798 83.7823C17.3798 83.7823 -0.782982 84.8058 0.0262603 65.6362C0.835503 46.4666 19.9575 45.3859 19.9575 45.3859C19.9575 45.3859 31.7366 48.6326 31.5837 25.4417C31.4307 2.2508 55.1419 -4.70647 74.5699 3.02383C93.9978 10.7541 99.6579 11.2179 111.743 5.34292C123.828 -0.53211 134.23 16.7838 129.029 27.6062C123.828 38.4286 124.934 50.6873 137.536 54.5293C150.138 58.3712 147.344 82.7573 134.36 83.2427C121.377 83.7282 17.3798 83.7823 17.3798 83.7823Z" fill="#EDE7F2"/>
<path d="M80.5341 84.1926H43.9652C42.7857 84.1926 41.8312 83.2263 41.8312 82.0358V20.3325C41.8312 19.1405 42.7873 18.1758 43.9652 18.1758H78.3985C79.578 18.1758 80.5325 19.1421 80.5325 20.3325V84.1926H80.5341Z" fill="white"/>
<path d="M41.7548 82.6329C41.868 82.7906 41.8588 82.9607 41.8037 83.137C41.9047 83.5822 42.2122 83.8172 42.6191 83.9394C43.0535 84.0708 43.488 84.2068 43.9286 84.3166C53.6089 86.7254 65.0499 89.5763 74.6476 92.2974C75.3437 92.4953 75.7766 92.2108 76.0826 91.7671C76.39 91.3187 76.5507 90.7281 76.4726 90.1545C76.2508 88.5002 76.4589 86.8444 76.4726 85.1716C76.4941 82.4814 76.4007 79.799 76.4726 77.1197C76.6455 70.6989 76.7572 64.3137 76.4726 57.9161C76.1728 51.1814 77.0142 44.4468 76.4726 37.7245C76.1958 34.2814 76.566 30.8275 76.4726 27.3814C76.4482 26.4862 72.9404 25.5431 72.0623 25.339C68.6938 24.5536 65.2717 23.9692 61.9323 23.1112C55.4767 21.4522 48.9783 19.9587 42.5533 18.1761C41.9032 17.9952 41.6263 18.156 41.6722 18.844C41.6844 19.0234 41.6706 19.2043 41.6752 19.3836C41.7532 22.8251 41.5941 25.7085 41.6752 29.1516L41.7548 82.6329Z" fill="#371F9A"/>
<path d="M95.9221 60.1248C97.2285 59.3116 98.7017 59.1771 100.169 59.1755C101.059 59.1755 101.988 58.8586 102.857 59.3301C102.895 59.4244 102.935 59.5187 102.973 59.613C103.065 59.9223 103.155 60.2315 103.247 60.5407C103.256 60.6458 103.265 60.7509 103.274 60.8545C103.25 60.9906 103.26 61.1189 103.36 61.2271C103.363 62.2707 103.364 63.3159 103.367 64.3594C103.187 64.7722 103.242 65.2067 103.257 65.6365C102.869 67.4902 103.802 69.0842 104.252 70.771C104.608 72.1083 105.472 73.1086 106.409 74.0672C107.473 75.1556 108.589 76.2054 109.386 77.5303C109.341 77.8766 110.103 78.4147 109.199 78.5492C108.26 78.6899 107.894 79.2604 107.827 80.1323C107.561 80.0597 107.262 80.0396 107.033 79.9051C105.546 79.0269 103.886 78.6435 102.199 78.1364C101.956 79.8185 101.752 81.4913 101.881 83.1966C102.008 84.8571 102.18 86.5222 101.815 88.1781C101.356 88.2986 101.454 88.7284 101.331 89.0423C101.223 89.3221 101.09 89.7365 100.756 89.6514C100.311 89.5401 99.849 89.367 99.4956 89.0268C99.4696 89.0021 99.5002 88.8645 99.5446 88.8243C100.078 88.3249 99.4421 88.4502 99.2861 88.3203C99.332 87.8874 99.0994 87.5272 98.9694 87.1468C98.307 85.2173 98.0393 83.2044 97.7456 81.2007C97.5544 79.9004 97.2928 78.6311 96.8354 77.3958C96.1179 75.4617 95.6789 73.4626 95.5703 71.394C95.4555 69.2156 94.8972 67.0836 94.8605 64.899C94.8406 63.7194 95.0961 62.5614 95.2597 61.3987C95.3301 60.8978 95.5856 60.4881 95.9221 60.1248Z" fill="#418E89"/>
<path d="M94.5345 30.4083C93.3214 29.6863 93.4652 27.981 94.1505 26.9977C94.409 26.6267 94.819 26.6097 95.177 26.8246C95.9831 27.3069 96.8383 27.2002 97.698 27.1121C98.3787 27.0425 99.0564 26.9421 99.7387 26.9034C100.97 26.8323 101.692 27.3796 102.249 28.5005C103.032 30.0775 102.821 31.6931 102.572 33.3134C102.451 34.0957 102.232 34.8687 101.994 35.6247C101.721 36.489 101.195 37.1105 100.207 37.143C99.6943 36.9095 99.546 36.489 99.5521 35.9494C99.5597 35.1918 99.7984 34.4837 99.9391 33.754C99.9957 33.4602 100.176 33.117 99.8764 32.8975C99.627 32.715 99.3425 32.8898 99.0977 33.0366C98.8055 33.2113 98.4767 33.3845 98.1753 33.1418C97.9015 32.9222 98.0284 32.5635 98.0606 32.2667C98.1263 31.6575 98.3833 31.0809 98.3252 30.4439C98.2763 29.9182 98.0361 29.7188 97.5297 29.7667C97.2131 29.7961 96.953 29.9584 96.6715 30.0697C95.9847 30.3465 95.3009 30.6511 94.5345 30.4083Z" fill="#3B3B3E"/>
<path d="M94.5345 30.4097C95.3009 30.6524 95.9847 30.3479 96.6715 30.0742C96.953 29.9614 97.2131 29.8006 97.5297 29.7712C98.0346 29.7248 98.2763 29.9227 98.3252 30.4484C98.3849 31.0853 98.1263 31.662 98.0606 32.2712C98.0284 32.568 97.9015 32.9282 98.1753 33.1462C98.4767 33.3874 98.8055 33.2158 99.0977 33.0411C99.344 32.8942 99.627 32.7195 99.8764 32.902C100.176 33.1215 99.9957 33.4647 99.9391 33.7585C99.7984 34.4882 99.5597 35.1963 99.5521 35.9539C99.546 36.4935 99.6959 36.914 100.207 37.1474C99.881 37.772 100.216 38.3982 100.244 39.0151C100.265 39.4928 100.331 39.9767 100.326 40.4622C99.1635 40.2813 98.1722 40.8332 97.1458 41.2306C97.0463 40.3447 96.9484 39.4588 96.8459 38.5729C96.823 38.3688 96.8062 38.1694 96.5155 38.1524C95.4737 38.0952 95.255 37.2464 95.0148 36.4718C94.8879 36.0621 94.8404 35.6926 94.4442 35.3849C94.0281 35.0618 93.9226 34.4697 94.1123 33.9687C94.5528 32.8076 94.5085 31.6079 94.5345 30.4097Z" fill="#B9B4D5"/>
<path d="M99.2874 88.318C99.4435 88.4479 100.08 88.3227 99.546 88.822C99.5016 88.8638 99.471 88.9998 99.497 89.0246C99.8504 89.3647 100.314 89.5378 100.758 89.6492C101.091 89.7326 101.224 89.3183 101.333 89.04C101.455 88.7262 101.357 88.2964 101.816 88.1758C102.183 88.4757 102.217 88.8452 102.087 89.2827C101.912 89.8641 101.634 90.3712 101.194 90.7824C99.8856 92.0023 98.3451 92.7474 96.5843 92.9747C95.2749 93.1432 94.7853 92.4753 95.2565 91.2138C95.5701 90.3727 96.0918 89.6863 96.8826 89.2441C97.6383 88.8189 98.4246 88.4633 99.2874 88.318Z" fill="#3B3B3E"/>
<path d="M107.827 80.1323C107.894 79.2603 108.26 78.6898 109.199 78.5491C110.103 78.4146 109.341 77.8766 109.385 77.5303C110.101 78.4548 111.016 79.2387 110.918 80.6209C110.804 82.2628 110.031 83.5352 108.992 84.7025C108.875 84.8339 108.738 84.9591 108.588 85.0488C108.191 85.2822 107.773 85.5265 107.31 85.2297C106.815 84.9127 106.826 84.4134 106.944 83.9202C107.201 82.8441 107.513 81.785 108.035 80.8048C108.197 80.4987 108.258 80.2405 107.827 80.1323Z" fill="#3B3B3E"/>
<path d="M77.4028 52.7623C77.9611 53.0158 78.3543 53.5616 79.009 53.6636C79.2415 53.6992 79.2354 53.9666 79.2354 54.1738C77.415 55.5065 75.4355 55.5946 73.3887 54.8649C72.6651 54.6067 72.584 53.8538 73.2296 53.4425C74.0281 52.9339 74.9261 52.6046 75.8898 52.7221C76.4008 52.7824 76.8964 52.8133 77.4028 52.7623Z" fill="#B9B4D5"/>
<path d="M95.4417 59.3076C95.4543 59.2856 95.4653 59.2652 95.4779 59.2432C95.4669 59.2652 95.4543 59.2872 95.4417 59.3076C95.4417 59.3076 95.4432 59.3091 95.4417 59.3076Z" fill="#FDFDFD"/>
<path d="M87.0326 53.223C88.7811 52.6603 90.3292 51.7929 91.6907 50.5514C92.1405 50.1417 92.6422 49.7877 93.1409 49.4383C93.326 49.3084 93.6106 49.0889 93.6687 49.5882C93.7635 50.3984 93.9104 51.2039 93.967 52.0171C94.1307 54.3625 94.3877 56.6908 94.8971 58.9883C94.9369 59.1692 95.0302 59.2527 95.1985 59.2743C95.2107 59.2527 95.2214 59.2326 95.2336 59.2109C95.2229 59.2326 95.2107 59.2542 95.2 59.2759C95.1954 59.6469 95.483 59.8417 95.6788 60.0937C96.9852 59.2805 98.4584 59.146 99.9254 59.1444C100.816 59.1444 101.744 58.8275 102.613 59.299C103.456 58.795 103.583 57.8983 103.745 57.0588C104.071 55.3829 103.883 53.6776 103.9 51.9862C103.907 51.1188 103.982 50.25 103.796 49.378C103.482 47.9077 103.221 46.4266 102.98 44.9423C102.749 43.5138 102.127 42.1795 102.03 40.717C102.004 40.3196 101.669 40.0723 101.31 39.879C100.634 39.5141 99.9025 39.3564 99.1682 39.1941C98.0056 39.0147 97.0143 39.5651 95.9878 39.9625C94.79 40.9752 93.8079 42.1594 92.8488 43.4179C91.5546 45.1139 89.8535 46.4698 87.9505 47.4686C86.7343 48.1071 85.4723 48.6776 84.2607 49.313C82.5917 50.1881 80.8187 50.7834 79.1329 51.5919C78.4491 51.9197 77.5726 51.9259 77.1595 52.7345C77.7179 52.988 78.1111 53.5338 78.7658 53.6358C78.9983 53.6714 78.9922 53.9389 78.9922 54.146C79.1696 54.415 79.445 54.3146 79.6882 54.3362C81.0926 54.4614 82.454 54.0966 83.8369 53.9667L87.0326 53.223Z" fill="#8071A4"/>
<path d="M143.715 15.1104C146.688 18.7378 149.662 22.3652 152.635 25.9926C153.189 27.3912 152.729 28.3594 151.589 29.2733C147.066 32.9007 142.609 36.6077 138.121 40.2743C136.828 41.3318 135.827 41.2355 134.743 39.9374C133.337 38.2582 131.96 36.5529 130.572 34.8594C129.207 33.1942 127.821 31.5462 126.487 29.8584C125.299 28.3556 125.554 27.3253 127.223 26.5126C132.389 24.0042 136.759 20.5107 140.251 15.9396C141.636 14.125 141.754 14.1052 143.715 15.1104ZM142.316 31.4096C142.604 31.1737 142.891 30.941 143.178 30.7034C144.17 29.8755 144.167 29.7299 143.148 28.9811C142.42 28.4456 141.653 27.9575 140.977 27.3645C140.698 27.1203 140.475 26.6559 140.461 26.2864C140.403 24.7822 139.505 23.7008 138.12 23.5945C136.83 23.4965 135.698 24.4065 135.517 25.6867C135.325 27.0594 136.216 28.1966 137.645 28.5531C138.033 28.649 138.418 29.0014 138.676 29.337C138.968 29.715 139.125 30.2013 139.327 30.6473C140.505 33.2339 140.219 33.1164 142.316 31.4096Z" fill="#423977"/>
<path d="M129.716 23.0236C127.095 25.101 126.966 25.0889 124.972 22.6565C122.104 19.1582 121.565 15.8823 123.315 12.6004C125.945 7.67303 132.686 6.81665 136.574 10.9236C137.015 11.3899 137.42 11.8913 137.829 12.3866C139.418 14.3145 139.415 14.3173 137.807 16.1551C137.613 16.3766 137.422 16.6035 137.104 16.9797C136.193 15.8678 135.343 14.7851 134.444 13.7455C132.322 11.2914 129.035 11.2015 126.991 13.5209C125.521 15.1875 125.487 17.7538 126.952 19.6411C127.827 20.7685 128.758 21.8551 129.716 23.0236Z" fill="#423977"/>
<path d="M127.305 17.2304C127.648 14.8692 125.5 8.48734 121.373 13.3532C121.659 11.3854 122.978 7.67888 125.963 8.59542C128.948 9.51196 130.084 13.013 130.279 14.6489C129.145 16.4933 126.961 19.5917 127.305 17.2304Z" fill="#EDE7F2"/>
</svg>
